NotoSansTelugu-CondensedLight.ufo
<glyph name="exclam.telu" format="2">
  <advance width="254"/>
  <unicode hex="0021"/>
  <outline>
    <contour>
      <point x="139" y="162" type="line"/>
      <point x="141" y="657" type="line"/>
      <point x="113" y="657" type="line"/>
      <point x="115" y="162" type="line"/>
    </contour>
    <contour>
      <point x="101" y="19" type="curve" smooth="yes"/>
      <point x="101" y="2"/>
      <point x="106" y="-12"/>
      <point x="126" y="-12" type="curve" smooth="yes"/>
      <point x="150" y="-12"/>
      <point x="153" y="2"/>
      <point x="153" y="19" type="curve" smooth="yes"/>
      <point x="153" y="35"/>
      <point x="150" y="50"/>
      <point x="126" y="50" type="curve" smooth="yes"/>
      <point x="106" y="50"/>
      <point x="101" y="35"/>
    </contour>
  </outline>
</glyph>
<glyph name="quotedbl.telu" format="2">
  <advance width="363"/>
  <unicode hex="0022"/>
  <outline>
    <contour>
      <point x="103" y="515" type="line"/>
      <point x="124" y="515" type="line"/>
      <point x="128" y="773" type="line"/>
      <point x="100" y="773" type="line"/>
    </contour>
    <contour>
      <point x="238" y="515" type="line"/>
      <point x="259" y="515" type="line"/>
      <point x="263" y="773" type="line"/>
      <point x="235" y="773" type="line"/>
    </contour>
  </outline>
</glyph>
<glyph name="numbersign.telu" format="2">
  <advance width="501"/>
  <unicode hex="0023"/>
  <outline>
    <contour>
      <point x="84" y="0" type="line"/>
      <point x="111" y="0" type="line"/>
      <point x="152" y="207" type="line"/>
      <point x="295" y="207" type="line"/>
      <point x="254" y="0" type="line"/>
      <point x="281" y="0" type="line"/>
      <point x="322" y="207" type="line"/>
      <point x="430" y="207" type="line"/>
      <point x="430" y="233" type="line"/>
      <point x="327" y="233" type="line"/>
      <point x="365" y="422" type="line"/>
      <point x="474" y="422" type="line"/>
      <point x="474" y="448" type="line"/>
      <point x="370" y="448" type="line"/>
      <point x="411" y="649" type="line"/>
      <point x="384" y="649" type="line"/>
      <point x="343" y="448" type="line"/>
      <point x="200" y="448" type="line"/>
      <point x="241" y="649" type="line"/>
      <point x="214" y="649" type="line"/>
      <point x="173" y="448" type="line"/>
      <point x="71" y="448" type="line"/>
      <point x="71" y="422" type="line"/>
      <point x="168" y="422" type="line"/>
      <point x="130" y="233" type="line"/>
      <point x="27" y="233" type="line"/>
      <point x="27" y="207" type="line"/>
      <point x="125" y="207" type="line"/>
    </contour>
    <contour>
      <point x="157" y="233" type="line"/>
      <point x="195" y="422" type="line"/>
      <point x="338" y="422" type="line"/>
      <point x="300" y="233" type="line"/>
    </contour>
  </outline>
</glyph>
<glyph name="percent.telu" format="2">
  <advance width="590"/>
  <unicode hex="0025"/>
  <outline>
    <contour>
      <point x="166" y="0" type="line"/>
      <point x="193" y="0" type="line"/>
      <point x="424" y="649" type="line"/>
      <point x="397" y="649" type="line"/>
    </contour>
    <contour>
      <point x="150" y="276" type="curve" smooth="yes"/>
      <point x="213" y="276"/>
      <point x="248" y="338"/>
      <point x="248" y="470" type="curve" smooth="yes"/>
      <point x="248" y="590"/>
      <point x="217" y="661"/>
      <point x="149" y="661" type="curve" smooth="yes"/>
      <point x="84" y="661"/>
      <point x="51" y="593"/>
      <point x="51" y="471" type="curve" smooth="yes"/>
      <point x="51" y="340"/>
      <point x="85" y="276"/>
    </contour>
    <contour>
      <point x="150" y="301" type="curve" smooth="yes"/>
      <point x="103" y="301"/>
      <point x="77" y="359"/>
      <point x="77" y="470" type="curve" smooth="yes"/>
      <point x="77" y="576"/>
      <point x="102" y="636"/>
      <point x="149" y="636" type="curve" smooth="yes"/>
      <point x="197" y="636"/>
      <point x="222" y="576"/>
      <point x="222" y="470" type="curve" smooth="yes"/>
      <point x="222" y="359"/>
      <point x="196" y="301"/>
    </contour>
    <contour>
      <point x="441" y="-12" type="curve" smooth="yes"/>
      <point x="504" y="-12"/>
      <point x="539" y="50"/>
      <point x="539" y="182" type="curve" smooth="yes"/>
      <point x="539" y="302"/>
      <point x="508" y="373"/>
      <point x="440" y="373" type="curve" smooth="yes"/>
      <point x="375" y="373"/>
      <point x="342" y="305"/>
      <point x="342" y="183" type="curve" smooth="yes"/>
      <point x="342" y="52"/>
      <point x="376" y="-12"/>
    </contour>
    <contour>
      <point x="441" y="13" type="curve" smooth="yes"/>
      <point x="394" y="13"/>
      <point x="368" y="71"/>
      <point x="368" y="182" type="curve" smooth="yes"/>
      <point x="368" y="288"/>
      <point x="393" y="348"/>
      <point x="440" y="348" type="curve" smooth="yes"/>
      <point x="488" y="348"/>
      <point x="513" y="288"/>
      <point x="513" y="182" type="curve" smooth="yes"/>
      <point x="513" y="71"/>
      <point x="487" y="13"/>
    </contour>
  </outline>
</glyph>
<glyph name="quotesingle.telu" format="2">
  <advance width="228"/>
  <unicode hex="0027"/>
  <outline>
    <contour>
      <point x="103" y="515" type="line"/>
      <point x="124" y="515" type="line"/>
      <point x="128" y="773" type="line"/>
      <point x="100" y="773" type="line"/>
    </contour>
  </outline>
</glyph>
<glyph name="parenleft.telu" format="2">
  <advance width="309"/>
  <unicode hex="0028"/>
  <outline>
    <contour>
      <point x="54" y="206" type="curve" smooth="yes"/>
      <point x="54" y="-8"/>
      <point x="116" y="-205"/>
      <point x="237" y="-361" type="curve"/>
      <point x="266" y="-361" type="line"/>
      <point x="134" y="-185"/>
      <point x="81" y="1"/>
      <point x="81" y="206" type="curve" smooth="yes"/>
      <point x="81" y="411"/>
      <point x="134" y="597"/>
      <point x="266" y="773" type="curve"/>
      <point x="237" y="773" type="line"/>
      <point x="116" y="617"/>
      <point x="54" y="420"/>
    </contour>
  </outline>
</glyph>
<glyph name="parenright.telu" format="2">
  <advance width="309"/>
  <unicode hex="0029"/>
  <outline>
    <contour>
      <point x="255" y="206" type="curve" smooth="yes"/>
      <point x="255" y="420"/>
      <point x="193" y="617"/>
      <point x="72" y="773" type="curve"/>
      <point x="43" y="773" type="line"/>
      <point x="175" y="597"/>
      <point x="228" y="411"/>
      <point x="228" y="206" type="curve" smooth="yes"/>
      <point x="228" y="1"/>
      <point x="175" y="-185"/>
      <point x="43" y="-361" type="curve"/>
      <point x="72" y="-361" type="line"/>
      <point x="193" y="-205"/>
      <point x="255" y="-8"/>
    </contour>
  </outline>
</glyph>
<glyph name="asterisk.telu" format="2">
  <advance width="486"/>
  <unicode hex="002A"/>
  <outline>
    <contour>
      <point x="267" y="773" type="line"/>
      <point x="239" y="773" type="line"/>
      <point x="242" y="580" type="line"/>
      <point x="60" y="643" type="line"/>
      <point x="51" y="616" type="line"/>
      <point x="236" y="561" type="line"/>
      <point x="122" y="409" type="line"/>
      <point x="145" y="393" type="line"/>
      <point x="253" y="550" type="line"/>
      <point x="362" y="392" type="line"/>
      <point x="385" y="409" type="line"/>
      <point x="270" y="561" type="line"/>
      <point x="455" y="616" type="line"/>
      <point x="447" y="643" type="line"/>
      <point x="264" y="580" type="line"/>
    </contour>
  </outline>
</glyph>
<glyph name="plus.telu" format="2">
  <advance width="399"/>
  <unicode hex="002B"/>
  <outline>
    <contour>
      <point x="187" y="313" type="line"/>
      <point x="187" y="101" type="line"/>
      <point x="213" y="101" type="line"/>
      <point x="213" y="313" type="line"/>
      <point x="366" y="313" type="line"/>
      <point x="366" y="339" type="line"/>
      <point x="213" y="339" type="line"/>
      <point x="213" y="551" type="line"/>
      <point x="187" y="551" type="line"/>
      <point x="187" y="339" type="line"/>
      <point x="32" y="339" type="line"/>
      <point x="32" y="313" type="line"/>
    </contour>
  </outline>
</glyph>
<glyph name="comma.telu" format="2">
  <advance width="216"/>
  <unicode hex="002C"/>
  <outline>
    <contour>
      <point x="134" y="119" type="line"/>
      <point x="109" y="119" type="line"/>
      <point x="102" y="47"/>
      <point x="79" y="-57"/>
      <point x="52" y="-126" type="curve"/>
      <point x="74" y="-126" type="line"/>
      <point x="104" y="-57"/>
      <point x="129" y="28"/>
      <point x="140" y="110" type="curve"/>
    </contour>
  </outline>
</glyph>
<glyph name="hyphen.telu" format="2">
  <advance width="304"/>
  <unicode hex="002D"/>
  <outline>
    <contour>
      <point x="38" y="239" type="line"/>
      <point x="266" y="239" type="line"/>
      <point x="266" y="264" type="line"/>
      <point x="38" y="264" type="line"/>
    </contour>
  </outline>
</glyph>
<glyph name="slash.telu" format="2">
  <advance width="344"/>
  <unicode hex="002F"/>
  <outline>
    <contour>
      <point x="303" y="773" type="line"/>
      <point x="277" y="773" type="line"/>
      <point x="41" y="-361" type="line"/>
      <point x="67" y="-361" type="line"/>
    </contour>
  </outline>
</glyph>
<glyph name="zero.telu" format="2">
  <advance width="399"/>
  <unicode hex="0030"/>
  <outline>
    <contour>
      <point x="349" y="325" type="curve" smooth="yes"/>
      <point x="349" y="519"/>
      <point x="314" y="661"/>
      <point x="199" y="661" type="curve" smooth="yes"/>
      <point x="84" y="661"/>
      <point x="49" y="527"/>
      <point x="49" y="324" type="curve" smooth="yes"/>
      <point x="49" y="130"/>
      <point x="84" y="-12"/>
      <point x="199" y="-12" type="curve" smooth="yes"/>
      <point x="314" y="-12"/>
      <point x="349" y="122"/>
    </contour>
    <contour>
      <point x="76" y="324" type="curve" smooth="yes"/>
      <point x="76" y="499"/>
      <point x="103" y="635"/>
      <point x="199" y="635" type="curve" smooth="yes"/>
      <point x="294" y="635"/>
      <point x="322" y="493"/>
      <point x="322" y="324" type="curve" smooth="yes"/>
      <point x="322" y="150"/>
      <point x="295" y="14"/>
      <point x="199" y="14" type="curve" smooth="yes"/>
      <point x="104" y="14"/>
      <point x="76" y="155"/>
    </contour>
  </outline>
</glyph>
<glyph name="one.telu" format="2">
  <advance width="399"/>
  <unicode hex="0031"/>
  <outline>
    <contour>
      <point x="248" y="0" type="line"/>
      <point x="248" y="658" type="line"/>
      <point x="225" y="658" type="line"/>
      <point x="66" y="497" type="line"/>
      <point x="85" y="479" type="line"/>
      <point x="183" y="581" type="line" smooth="yes"/>
      <point x="198" y="596"/>
      <point x="210" y="609"/>
      <point x="223" y="627" type="curve"/>
      <point x="222" y="590"/>
      <point x="222" y="535"/>
      <point x="222" y="513" type="curve" smooth="yes"/>
      <point x="222" y="0" type="line"/>
    </contour>
  </outline>
</glyph>
<glyph name="two.telu" format="2">
  <advance width="399"/>
  <unicode hex="0032"/>
  <outline>
    <contour>
      <point x="347" y="0" type="line"/>
      <point x="347" y="26" type="line"/>
      <point x="72" y="26" type="line"/>
      <point x="72" y="27" type="line"/>
      <point x="210" y="220" type="line" smooth="yes"/>
      <point x="300" y="346"/>
      <point x="332" y="402"/>
      <point x="332" y="498" type="curve" smooth="yes"/>
      <point x="332" y="605"/>
      <point x="258" y="661"/>
      <point x="173" y="661" type="curve" smooth="yes"/>
      <point x="118" y="661"/>
      <point x="74" y="641"/>
      <point x="39" y="618" type="curve"/>
      <point x="54" y="596" type="line"/>
      <point x="83" y="615"/>
      <point x="118" y="635"/>
      <point x="170" y="635" type="curve" smooth="yes"/>
      <point x="241" y="635"/>
      <point x="305" y="593"/>
      <point x="305" y="496" type="curve" smooth="yes"/>
      <point x="305" y="400"/>
      <point x="263" y="336"/>
      <point x="188" y="232" type="curve" smooth="yes"/>
      <point x="37" y="21" type="line"/>
      <point x="37" y="0" type="line"/>
    </contour>
  </outline>
</glyph>
<glyph name="three.telu" format="2">
  <advance width="399"/>
  <unicode hex="0033"/>
  <outline>
    <contour>
      <point x="325" y="509" type="curve" smooth="yes"/>
      <point x="325" y="605"/>
      <point x="264" y="661"/>
      <point x="173" y="661" type="curve" smooth="yes"/>
      <point x="118" y="661"/>
      <point x="71" y="643"/>
      <point x="21" y="607" type="curve"/>
      <point x="35" y="585" type="line"/>
      <point x="75" y="613"/>
      <point x="116" y="635"/>
      <point x="172" y="635" type="curve" smooth="yes"/>
      <point x="249" y="635"/>
      <point x="298" y="592"/>
      <point x="298" y="504" type="curve" smooth="yes"/>
      <point x="298" y="418"/>
      <point x="235" y="353"/>
      <point x="135" y="353" type="curve" smooth="yes"/>
      <point x="94" y="353" type="line"/>
      <point x="94" y="327" type="line"/>
      <point x="129" y="327" type="line" smooth="yes"/>
      <point x="229" y="327"/>
      <point x="307" y="287"/>
      <point x="307" y="174" type="curve" smooth="yes"/>
      <point x="307" y="69"/>
      <point x="253" y="14"/>
      <point x="156" y="14" type="curve" smooth="yes"/>
      <point x="97" y="14"/>
      <point x="59" y="24"/>
      <point x="22" y="39" type="curve"/>
      <point x="22" y="11" type="line"/>
      <point x="64" y="-6"/>
      <point x="118" y="-12"/>
      <point x="158" y="-12" type="curve" smooth="yes"/>
      <point x="273" y="-12"/>
      <point x="334" y="62"/>
      <point x="334" y="172" type="curve" smooth="yes"/>
      <point x="334" y="271"/>
      <point x="281" y="325"/>
      <point x="201" y="339" type="curve"/>
      <point x="201" y="341" type="line"/>
      <point x="264" y="361"/>
      <point x="325" y="407"/>
    </contour>
  </outline>
</glyph>
<glyph name="four.telu" format="2">
  <advance width="399"/>
  <unicode hex="0034"/>
  <outline>
    <contour>
      <point x="382" y="177" type="line"/>
      <point x="382" y="203" type="line"/>
      <point x="297" y="203" type="line"/>
      <point x="297" y="656" type="line"/>
      <point x="269" y="656" type="line"/>
      <point x="21" y="202" type="line"/>
      <point x="21" y="177" type="line"/>
      <point x="271" y="177" type="line"/>
      <point x="271" y="0" type="line"/>
      <point x="297" y="0" type="line"/>
      <point x="297" y="177" type="line"/>
    </contour>
    <contour>
      <point x="271" y="203" type="line"/>
      <point x="50" y="203" type="line"/>
      <point x="220" y="514" type="line" smooth="yes"/>
      <point x="237" y="544"/>
      <point x="256" y="580"/>
      <point x="270" y="611" type="curve"/>
      <point x="272" y="611" type="line"/>
      <point x="271" y="589"/>
      <point x="271" y="573"/>
      <point x="271" y="548" type="curve" smooth="yes"/>
    </contour>
  </outline>
</glyph>
<glyph name="five.telu" format="2">
  <advance width="399"/>
  <unicode hex="0035"/>
  <outline>
    <contour>
      <point x="183" y="393" type="curve" smooth="yes"/>
      <point x="140" y="393"/>
      <point x="104" y="386"/>
      <point x="81" y="378" type="curve"/>
      <point x="99" y="624" type="line"/>
      <point x="311" y="624" type="line"/>
      <point x="311" y="649" type="line"/>
      <point x="75" y="649" type="line"/>
      <point x="54" y="363" type="line"/>
      <point x="70" y="348" type="line"/>
      <point x="95" y="359"/>
      <point x="138" y="368"/>
      <point x="178" y="368" type="curve" smooth="yes"/>
      <point x="284" y="368"/>
      <point x="324" y="302"/>
      <point x="324" y="204" type="curve" smooth="yes"/>
      <point x="324" y="96"/>
      <point x="278" y="14"/>
      <point x="161" y="14" type="curve" smooth="yes"/>
      <point x="107" y="14"/>
      <point x="75" y="24"/>
      <point x="47" y="37" type="curve"/>
      <point x="47" y="8" type="line"/>
      <point x="77" y="-4"/>
      <point x="117" y="-12"/>
      <point x="161" y="-12" type="curve" smooth="yes"/>
      <point x="294" y="-12"/>
      <point x="351" y="81"/>
      <point x="351" y="204" type="curve" smooth="yes"/>
      <point x="351" y="314"/>
      <point x="300" y="393"/>
    </contour>
  </outline>
</glyph>
<glyph name="six.telu" format="2">
  <advance width="399"/>
  <unicode hex="0036"/>
  <outline>
    <contour>
      <point x="52" y="280" type="curve" smooth="yes"/>
      <point x="52" y="84"/>
      <point x="97" y="-12"/>
      <point x="207" y="-12" type="curve" smooth="yes"/>
      <point x="297" y="-12"/>
      <point x="353" y="65"/>
      <point x="353" y="202" type="curve" smooth="yes"/>
      <point x="353" y="326"/>
      <point x="307" y="402"/>
      <point x="209" y="402" type="curve" smooth="yes"/>
      <point x="129" y="402"/>
      <point x="93" y="350"/>
      <point x="79" y="306" type="curve"/>
      <point x="78" y="306" type="line"/>
      <point x="82" y="516"/>
      <point x="140" y="636"/>
      <point x="265" y="636" type="curve" smooth="yes"/>
      <point x="282" y="636"/>
      <point x="307" y="634"/>
      <point x="327" y="629" type="curve"/>
      <point x="327" y="654" type="line"/>
      <point x="306" y="659"/>
      <point x="285" y="661"/>
      <point x="266" y="661" type="curve" smooth="yes"/>
      <point x="145" y="661"/>
      <point x="52" y="573"/>
    </contour>
    <contour>
      <point x="205" y="14" type="curve" smooth="yes"/>
      <point x="98" y="14"/>
      <point x="81" y="146"/>
      <point x="81" y="226" type="curve" smooth="yes"/>
      <point x="81" y="314"/>
      <point x="132" y="377"/>
      <point x="209" y="377" type="curve" smooth="yes"/>
      <point x="296" y="377"/>
      <point x="326" y="305"/>
      <point x="326" y="203" type="curve" smooth="yes"/>
      <point x="326" y="82"/>
      <point x="284" y="14"/>
    </contour>
  </outline>
</glyph>
<glyph name="seven.telu" format="2">
  <advance width="399"/>
  <unicode hex="0037"/>
  <outline>
    <contour>
      <point x="95" y="0" type="line"/>
      <point x="123" y="0" type="line"/>
      <point x="362" y="627" type="line"/>
      <point x="362" y="649" type="line"/>
      <point x="26" y="649" type="line"/>
      <point x="26" y="623" type="line"/>
      <point x="333" y="623" type="line"/>
    </contour>
  </outline>
</glyph>
<glyph name="eight.telu" format="2">
  <advance width="399"/>
  <unicode hex="0038"/>
  <outline>
    <contour>
      <point x="204" y="661" type="curve" smooth="yes"/>
      <point x="115" y="661"/>
      <point x="56" y="605"/>
      <point x="56" y="518" type="curve" smooth="yes"/>
      <point x="56" y="448"/>
      <point x="98" y="399"/>
      <point x="176" y="348" type="curve"/>
      <point x="104" y="309"/>
      <point x="39" y="246"/>
      <point x="39" y="155" type="curve" smooth="yes"/>
      <point x="39" y="55"/>
      <point x="103" y="-12"/>
      <point x="202" y="-12" type="curve" smooth="yes"/>
      <point x="299" y="-12"/>
      <point x="360" y="59"/>
      <point x="360" y="155" type="curve" smooth="yes"/>
      <point x="360" y="243"/>
      <point x="303" y="298"/>
      <point x="222" y="348" type="curve"/>
      <point x="295" y="390"/>
      <point x="345" y="433"/>
      <point x="345" y="519" type="curve" smooth="yes"/>
      <point x="345" y="601"/>
      <point x="294" y="661"/>
    </contour>
    <contour>
      <point x="66" y="154" type="curve" smooth="yes"/>
      <point x="66" y="242"/>
      <point x="129" y="298"/>
      <point x="198" y="335" type="curve"/>
      <point x="218" y="323" type="line" smooth="yes"/>
      <point x="301" y="271"/>
      <point x="333" y="215"/>
      <point x="333" y="155" type="curve" smooth="yes"/>
      <point x="333" y="71"/>
      <point x="283" y="14"/>
      <point x="201" y="14" type="curve" smooth="yes"/>
      <point x="123" y="14"/>
      <point x="66" y="64"/>
    </contour>
    <contour>
      <point x="203" y="635" type="curve" smooth="yes"/>
      <point x="277" y="635"/>
      <point x="318" y="590"/>
      <point x="318" y="520" type="curve" smooth="yes"/>
      <point x="318" y="440"/>
      <point x="269" y="401"/>
      <point x="200" y="361" type="curve"/>
      <point x="119" y="414"/>
      <point x="83" y="453"/>
      <point x="83" y="518" type="curve" smooth="yes"/>
      <point x="83" y="589"/>
      <point x="127" y="635"/>
    </contour>
  </outline>
</glyph>
<glyph name="nine.telu" format="2">
  <advance width="399"/>
  <unicode hex="0039"/>
  <outline>
    <contour>
      <point x="347" y="367" type="curve" smooth="yes"/>
      <point x="347" y="563"/>
      <point x="304" y="661"/>
      <point x="192" y="661" type="curve" smooth="yes"/>
      <point x="102" y="661"/>
      <point x="46" y="582"/>
      <point x="46" y="449" type="curve" smooth="yes"/>
      <point x="46" y="328"/>
      <point x="90" y="249"/>
      <point x="190" y="249" type="curve" smooth="yes"/>
      <point x="270" y="249"/>
      <point x="308" y="305"/>
      <point x="320" y="346" type="curve"/>
      <point x="321" y="346" type="line"/>
      <point x="320" y="134"/>
      <point x="262" y="13"/>
      <point x="135" y="13" type="curve" smooth="yes"/>
      <point x="115" y="13"/>
      <point x="92" y="15"/>
      <point x="76" y="20" type="curve"/>
      <point x="76" y="-5" type="line"/>
      <point x="93" y="-10"/>
      <point x="118" y="-12"/>
      <point x="135" y="-12" type="curve" smooth="yes"/>
      <point x="258" y="-12"/>
      <point x="347" y="75"/>
    </contour>
    <contour>
      <point x="194" y="635" type="curve" smooth="yes"/>
      <point x="301" y="635"/>
      <point x="318" y="502"/>
      <point x="318" y="428" type="curve" smooth="yes"/>
      <point x="318" y="338"/>
      <point x="267" y="274"/>
      <point x="190" y="274" type="curve" smooth="yes"/>
      <point x="103" y="274"/>
      <point x="73" y="349"/>
      <point x="73" y="447" type="curve" smooth="yes"/>
      <point x="73" y="566"/>
      <point x="115" y="635"/>
    </contour>
  </outline>
</glyph>
<glyph name="semicolon.telu" format="2">
  <advance width="193"/>
  <unicode hex="003B"/>
  <outline>
    <contour>
      <point x="134" y="119" type="line"/>
      <point x="109" y="119" type="line"/>
      <point x="102" y="47"/>
      <point x="79" y="-57"/>
      <point x="52" y="-126" type="curve"/>
      <point x="74" y="-126" type="line"/>
      <point x="104" y="-57"/>
      <point x="129" y="28"/>
      <point x="140" y="110" type="curve"/>
    </contour>
    <contour>
      <point x="82" y="381" type="curve" smooth="yes"/>
      <point x="82" y="364"/>
      <point x="87" y="350"/>
      <point x="107" y="350" type="curve" smooth="yes"/>
      <point x="131" y="350"/>
      <point x="134" y="364"/>
      <point x="134" y="381" type="curve" smooth="yes"/>
      <point x="134" y="397"/>
      <point x="131" y="412"/>
      <point x="107" y="412" type="curve" smooth="yes"/>
      <point x="87" y="412"/>
      <point x="82" y="397"/>
    </contour>
  </outline>
</glyph>
<glyph name="less.telu" format="2">
  <advance width="399"/>
  <unicode hex="003C"/>
  <outline>
    <contour>
      <point x="367" y="121" type="line"/>
      <point x="367" y="150" type="line"/>
      <point x="60" y="336" type="line"/>
      <point x="367" y="496" type="line"/>
      <point x="367" y="525" type="line"/>
      <point x="32" y="348" type="line"/>
      <point x="32" y="324" type="line"/>
    </contour>
  </outline>
</glyph>
<glyph name="equal.telu" format="2">
  <advance width="399"/>
  <unicode hex="003D"/>
  <outline>
    <contour>
      <point x="35" y="415" type="line"/>
      <point x="367" y="415" type="line"/>
      <point x="367" y="441" type="line"/>
      <point x="35" y="441" type="line"/>
    </contour>
    <contour>
      <point x="35" y="211" type="line"/>
      <point x="367" y="211" type="line"/>
      <point x="367" y="237" type="line"/>
      <point x="35" y="237" type="line"/>
    </contour>
  </outline>
</glyph>
<glyph name="greater.telu" format="2">
  <advance width="399"/>
  <unicode hex="003E"/>
  <outline>
    <contour>
      <point x="32" y="150" type="line"/>
      <point x="32" y="121" type="line"/>
      <point x="367" y="324" type="line"/>
      <point x="367" y="347" type="line"/>
      <point x="32" y="525" type="line"/>
      <point x="32" y="496" type="line"/>
      <point x="339" y="335" type="line"/>
    </contour>
  </outline>
</glyph>
<glyph name="question.telu" format="2">
  <advance width="321"/>
  <unicode hex="003F"/>
  <outline>
    <contour>
      <point x="156" y="661" type="curve" smooth="yes"/>
      <point x="115" y="661"/>
      <point x="79" y="647"/>
      <point x="53" y="634" type="curve"/>
      <point x="64" y="610" type="line"/>
      <point x="91" y="624"/>
      <point x="123" y="635"/>
      <point x="155" y="635" type="curve" smooth="yes"/>
      <point x="218" y="635"/>
      <point x="254" y="594"/>
      <point x="254" y="514" type="curve" smooth="yes"/>
      <point x="254" y="438"/>
      <point x="222" y="396"/>
      <point x="182" y="343" type="curve" smooth="yes"/>
      <point x="136" y="282"/>
      <point x="125" y="245"/>
      <point x="125" y="168" type="curve" smooth="yes"/>
      <point x="125" y="159" type="line"/>
      <point x="151" y="159" type="line"/>
      <point x="151" y="167" type="line" smooth="yes"/>
      <point x="151" y="232"/>
      <point x="158" y="269"/>
      <point x="206" y="332" type="curve" smooth="yes"/>
      <point x="249" y="388"/>
      <point x="281" y="436"/>
      <point x="281" y="515" type="curve" smooth="yes"/>
      <point x="281" y="611"/>
      <point x="230" y="661"/>
    </contour>
    <contour>
      <point x="138" y="-8" type="curve" smooth="yes"/>
      <point x="162" y="-8"/>
      <point x="165" y="6"/>
      <point x="165" y="23" type="curve" smooth="yes"/>
      <point x="165" y="39"/>
      <point x="162" y="54"/>
      <point x="138" y="54" type="curve" smooth="yes"/>
      <point x="118" y="54"/>
      <point x="113" y="39"/>
      <point x="113" y="23" type="curve" smooth="yes"/>
      <point x="113" y="6"/>
      <point x="118" y="-8"/>
    </contour>
  </outline>
</glyph>
<glyph name="bracketleft.telu" format="2">
  <advance width="267"/>
  <unicode hex="005B"/>
  <outline>
    <contour>
      <point x="224" y="-360" type="line"/>
      <point x="224" y="-334" type="line"/>
      <point x="111" y="-334" type="line"/>
      <point x="111" y="747" type="line"/>
      <point x="224" y="747" type="line"/>
      <point x="224" y="773" type="line"/>
      <point x="84" y="773" type="line"/>
      <point x="84" y="-360" type="line"/>
    </contour>
  </outline>
</glyph>
<glyph name="backslash.telu" format="2">
  <advance width="344"/>
  <unicode hex="005C"/>
  <outline>
    <contour>
      <point x="67" y="773" type="line"/>
      <point x="41" y="773" type="line"/>
      <point x="277" y="-361" type="line"/>
      <point x="303" y="-361" type="line"/>
    </contour>
  </outline>
</glyph>
<glyph name="bracketright.telu" format="2">
  <advance width="268"/>
  <unicode hex="005D"/>
  <outline>
    <contour>
      <point x="43" y="-335" type="line"/>
      <point x="43" y="-361" type="line"/>
      <point x="184" y="-361" type="line"/>
      <point x="184" y="773" type="line"/>
      <point x="43" y="773" type="line"/>
      <point x="43" y="747" type="line"/>
      <point x="157" y="747" type="line"/>
      <point x="157" y="-335" type="line"/>
    </contour>
  </outline>
</glyph>
<glyph name="underscore.telu" format="2">
  <advance width="357"/>
  <unicode hex="005F"/>
  <outline>
    <contour>
      <point x="-2" y="-115" type="line"/>
      <point x="359" y="-115" type="line"/>
      <point x="359" y="-90" type="line"/>
      <point x="-2" y="-90" type="line"/>
    </contour>
  </outline>
</glyph>
<glyph name="braceleft.telu" format="2">
  <advance width="358"/>
  <unicode hex="007B"/>
  <outline>
    <contour>
      <point x="315" y="-361" type="curve"/>
      <point x="315" y="-335" type="line"/>
      <point x="209" y="-335"/>
      <point x="177" y="-309"/>
      <point x="177" y="-222" type="curve" smooth="yes"/>
      <point x="177" y="83" type="line" smooth="yes"/>
      <point x="177" y="158"/>
      <point x="156" y="192"/>
      <point x="99" y="205" type="curve"/>
      <point x="99" y="207" type="line"/>
      <point x="157" y="218"/>
      <point x="177" y="264"/>
      <point x="177" y="332" type="curve" smooth="yes"/>
      <point x="177" y="631" type="line" smooth="yes"/>
      <point x="177" y="712"/>
      <point x="219" y="747"/>
      <point x="315" y="747" type="curve"/>
      <point x="315" y="773" type="line"/>
      <point x="207" y="773"/>
      <point x="151" y="724"/>
      <point x="151" y="637" type="curve" smooth="yes"/>
      <point x="151" y="336" type="line" smooth="yes"/>
      <point x="151" y="250"/>
      <point x="121" y="219"/>
      <point x="40" y="219" type="curve"/>
      <point x="40" y="193" type="line"/>
      <point x="121" y="193"/>
      <point x="151" y="164"/>
      <point x="151" y="79" type="curve" smooth="yes"/>
      <point x="151" y="-228" type="line" smooth="yes"/>
      <point x="151" y="-326"/>
      <point x="198" y="-361"/>
    </contour>
  </outline>
</glyph>
<glyph name="bar.telu" format="2">
  <advance width="503"/>
  <unicode hex="007C"/>
  <outline>
    <contour>
      <point x="243" y="773" type="line"/>
      <point x="243" y="-361" type="line"/>
      <point x="269" y="-361" type="line"/>
      <point x="269" y="773" type="line"/>
    </contour>
  </outline>
</glyph>
<glyph name="braceright.telu" format="2">
  <advance width="358"/>
  <unicode hex="007D"/>
  <outline>
    <contour>
      <point x="43" y="773" type="curve"/>
      <point x="43" y="747" type="line"/>
      <point x="149" y="747"/>
      <point x="181" y="721"/>
      <point x="181" y="634" type="curve" smooth="yes"/>
      <point x="181" y="329" type="line" smooth="yes"/>
      <point x="181" y="254"/>
      <point x="202" y="220"/>
      <point x="259" y="207" type="curve"/>
      <point x="259" y="205" type="line"/>
      <point x="201" y="194"/>
      <point x="181" y="148"/>
      <point x="181" y="80" type="curve" smooth="yes"/>
      <point x="181" y="-219" type="line" smooth="yes"/>
      <point x="181" y="-300"/>
      <point x="139" y="-335"/>
      <point x="43" y="-335" type="curve"/>
      <point x="43" y="-361" type="line"/>
      <point x="151" y="-361"/>
      <point x="207" y="-312"/>
      <point x="207" y="-225" type="curve" smooth="yes"/>
      <point x="207" y="76" type="line" smooth="yes"/>
      <point x="207" y="162"/>
      <point x="237" y="193"/>
      <point x="318" y="193" type="curve"/>
      <point x="318" y="219" type="line"/>
      <point x="237" y="219"/>
      <point x="207" y="248"/>
      <point x="207" y="333" type="curve" smooth="yes"/>
      <point x="207" y="640" type="line" smooth="yes"/>
      <point x="207" y="738"/>
      <point x="160" y="773"/>
    </contour>
  </outline>
</glyph>
<glyph name="asciitilde.telu" format="2">
  <advance width="399"/>
  <unicode hex="007E"/>
  <outline>
    <contour>
      <point x="197" y="314" type="curve" smooth="yes"/>
      <point x="230" y="294"/>
      <point x="253" y="284"/>
      <point x="285" y="284" type="curve" smooth="yes"/>
      <point x="320" y="284"/>
      <point x="349" y="303"/>
      <point x="369" y="326" type="curve"/>
      <point x="369" y="359" type="line"/>
      <point x="340" y="325"/>
      <point x="316" y="310"/>
      <point x="286" y="310" type="curve" smooth="yes"/>
      <point x="254" y="310"/>
      <point x="241" y="318"/>
      <point x="206" y="339" type="curve" smooth="yes"/>
      <point x="181" y="355"/>
      <point x="154" y="367"/>
      <point x="124" y="367" type="curve" smooth="yes"/>
      <point x="84" y="367"/>
      <point x="55" y="346"/>
      <point x="30" y="322" type="curve"/>
      <point x="30" y="289" type="line"/>
      <point x="63" y="324"/>
      <point x="89" y="341"/>
      <point x="124" y="341" type="curve" smooth="yes"/>
      <point x="150" y="341"/>
      <point x="168" y="332"/>
    </contour>
  </outline>
</glyph>
<glyph name="multiply.telu" format="2">
  <advance width="399"/>
  <unicode hex="00D7"/>
  <outline>
    <contour>
      <point x="39" y="183" type="line"/>
      <point x="57" y="165" type="line"/>
      <point x="200" y="308" type="line"/>
      <point x="343" y="165" type="line"/>
      <point x="361" y="183" type="line"/>
      <point x="218" y="326" type="line"/>
      <point x="361" y="469" type="line"/>
      <point x="343" y="487" type="line"/>
      <point x="200" y="344" type="line"/>
      <point x="57" y="487" type="line"/>
      <point x="39" y="469" type="line"/>
      <point x="182" y="326" type="line"/>
    </contour>
  </outline>
</glyph>
<glyph name="divide.telu" format="2">
  <advance width="399"/>
  <unicode hex="00F7"/>
  <outline>
    <contour>
      <point x="34" y="313" type="line"/>
      <point x="366" y="313" type="line"/>
      <point x="366" y="339" type="line"/>
      <point x="34" y="339" type="line"/>
    </contour>
    <contour>
      <point x="200" y="113" type="curve" smooth="yes"/>
      <point x="220" y="113"/>
      <point x="225" y="129"/>
      <point x="225" y="149" type="curve" smooth="yes"/>
      <point x="225" y="168"/>
      <point x="220" y="184"/>
      <point x="200" y="184" type="curve" smooth="yes"/>
      <point x="182" y="184"/>
      <point x="175" y="169"/>
      <point x="175" y="147" type="curve" smooth="yes"/>
      <point x="175" y="130"/>
      <point x="179" y="113"/>
    </contour>
    <contour>
      <point x="200" y="467" type="curve" smooth="yes"/>
      <point x="220" y="467"/>
      <point x="225" y="482"/>
      <point x="225" y="502" type="curve" smooth="yes"/>
      <point x="225" y="522"/>
      <point x="220" y="538"/>
      <point x="200" y="538" type="curve" smooth="yes"/>
      <point x="180" y="538"/>
      <point x="175" y="522"/>
      <point x="175" y="503" type="curve" smooth="yes"/>
      <point x="175" y="483"/>
      <point x="180" y="467"/>
    </contour>
  </outline>
</glyph>
<glyph name="uni0952" format="2">
  <unicode hex="0952"/>
  <outline>
    <contour>
      <point x="-433" y="-134" type="line"/>
      <point x="-433" y="-160" type="line"/>
      <point x="-138" y="-160" type="line"/>
      <point x="-138" y="-134" type="line"/>
    </contour>
  </outline>
</glyph>
<glyph name="dandatelu" format="2">
  <advance width="262"/>
  <unicode hex="0964"/>
  <outline>
    <contour>
      <point x="150" y="-139" type="line"/>
      <point x="176" y="-139" type="line"/>
      <point x="176" y="651" type="line"/>
      <point x="150" y="651" type="line"/>
    </contour>
  </outline>
</glyph>
<glyph name="dbldandatelu" format="2">
  <advance width="409"/>
  <unicode hex="0965"/>
  <outline>
    <contour>
      <point x="297" y="-139" type="line"/>
      <point x="323" y="-139" type="line"/>
      <point x="323" y="651" type="line"/>
      <point x="297" y="651" type="line"/>
    </contour>
    <contour>
      <point x="150" y="-139" type="line"/>
      <point x="176" y="-139" type="line"/>
      <point x="176" y="651" type="line"/>
      <point x="150" y="651" type="line"/>
    </contour>
  </outline>
</glyph>
<glyph name="uni0C00" format="2">
  <unicode hex="0C00"/>
  <outline>
    <contour>
      <point x="-286" y="614" type="curve" smooth="yes"/>
      <point x="-211" y="614"/>
      <point x="-166" y="665"/>
      <point x="-166" y="747" type="curve" smooth="yes"/>
      <point x="-166" y="766"/>
      <point x="-168" y="782"/>
      <point x="-171" y="799" type="curve"/>
      <point x="-197" y="794" type="line"/>
      <point x="-194" y="780"/>
      <point x="-192" y="763"/>
      <point x="-192" y="749" type="curve" smooth="yes"/>
      <point x="-192" y="673"/>
      <point x="-229" y="639"/>
      <point x="-286" y="639" type="curve" smooth="yes"/>
      <point x="-343" y="639"/>
      <point x="-380" y="669"/>
      <point x="-380" y="749" type="curve" smooth="yes"/>
      <point x="-380" y="762"/>
      <point x="-378" y="780"/>
      <point x="-375" y="794" type="curve"/>
      <point x="-401" y="799" type="line"/>
      <point x="-404" y="782"/>
      <point x="-406" y="768"/>
      <point x="-406" y="749" type="curve" smooth="yes"/>
      <point x="-406" y="663"/>
      <point x="-365" y="614"/>
    </contour>
    <contour>
      <point x="-286" y="720" type="curve" smooth="yes"/>
      <point x="-270" y="720"/>
      <point x="-258" y="729"/>
      <point x="-258" y="755" type="curve" smooth="yes"/>
      <point x="-258" y="779"/>
      <point x="-268" y="790"/>
      <point x="-286" y="790" type="curve" smooth="yes"/>
      <point x="-302" y="790"/>
      <point x="-315" y="779"/>
      <point x="-315" y="755" type="curve" smooth="yes"/>
      <point x="-315" y="729"/>
      <point x="-301" y="720"/>
    </contour>
  </outline>
</glyph>
<glyph name="candrabindutelu" format="2">
  <advance width="218"/>
  <unicode hex="0C01"/>
  <outline>
    <contour>
      <point x="38" y="199" type="curve" smooth="yes"/>
      <point x="38" y="59"/>
      <point x="98" y="-12"/>
      <point x="200" y="-12" type="curve" smooth="yes"/>
      <point x="201" y="-12" type="line"/>
      <point x="201" y="14" type="line"/>
      <point x="111" y="14"/>
      <point x="65" y="74"/>
      <point x="65" y="199" type="curve" smooth="yes"/>
      <point x="65" y="327"/>
      <point x="121" y="384"/>
      <point x="201" y="384" type="curve"/>
      <point x="201" y="410" type="line"/>
      <point x="200" y="410" type="line" smooth="yes"/>
      <point x="104" y="410"/>
      <point x="38" y="334"/>
    </contour>
  </outline>
</glyph>
<glyph name="anusvaratelu" format="2">
  <advance width="364"/>
  <unicode hex="0C02"/>
  <outline>
    <contour>
      <point x="38" y="199" type="curve" smooth="yes"/>
      <point x="38" y="59"/>
      <point x="94" y="-12"/>
      <point x="182" y="-12" type="curve" smooth="yes"/>
      <point x="270" y="-12"/>
      <point x="326" y="68"/>
      <point x="326" y="199" type="curve" smooth="yes"/>
      <point x="326" y="336"/>
      <point x="269" y="410"/>
      <point x="183" y="410" type="curve" smooth="yes"/>
      <point x="98" y="410"/>
      <point x="38" y="332"/>
    </contour>
    <contour>
      <point x="65" y="199" type="curve" smooth="yes"/>
      <point x="65" y="311"/>
      <point x="107" y="384"/>
      <point x="183" y="384" type="curve" smooth="yes"/>
      <point x="257" y="384"/>
      <point x="299" y="318"/>
      <point x="299" y="199" type="curve" smooth="yes"/>
      <point x="299" y="87"/>
      <point x="258" y="14"/>
      <point x="182" y="14" type="curve" smooth="yes"/>
      <point x="107" y="14"/>
      <point x="65" y="75"/>
    </contour>
  </outline>
</glyph>
<glyph name="visargatelu" format="2">
  <advance width="227"/>
  <unicode hex="0C03"/>
  <outline>
    <contour>
      <point x="34" y="100" type="curve" smooth="yes"/>
      <point x="34" y="32"/>
      <point x="62" y="-12"/>
      <point x="114" y="-12" type="curve" smooth="yes"/>
      <point x="164" y="-12"/>
      <point x="193" y="30"/>
      <point x="193" y="100" type="curve" smooth="yes"/>
      <point x="193" y="168"/>
      <point x="165" y="212"/>
      <point x="114" y="212" type="curve" smooth="yes"/>
      <point x="63" y="212"/>
      <point x="34" y="170"/>
    </contour>
    <contour>
      <point x="60" y="100" type="curve" smooth="yes"/>
      <point x="60" y="156"/>
      <point x="79" y="187"/>
      <point x="113" y="187" type="curve" smooth="yes"/>
      <point x="149" y="187"/>
      <point x="167" y="156"/>
      <point x="167" y="100" type="curve" smooth="yes"/>
      <point x="167" y="44"/>
      <point x="148" y="13"/>
      <point x="114" y="13" type="curve" smooth="yes"/>
      <point x="78" y="13"/>
      <point x="60" y="44"/>
    </contour>
    <contour>
      <point x="34" y="381" type="curve" smooth="yes"/>
      <point x="34" y="313"/>
      <point x="62" y="269"/>
      <point x="114" y="269" type="curve" smooth="yes"/>
      <point x="164" y="269"/>
      <point x="193" y="311"/>
      <point x="193" y="381" type="curve" smooth="yes"/>
      <point x="193" y="449"/>
      <point x="165" y="493"/>
      <point x="114" y="493" type="curve" smooth="yes"/>
      <point x="63" y="493"/>
      <point x="34" y="451"/>
    </contour>
    <contour>
      <point x="60" y="381" type="curve" smooth="yes"/>
      <point x="60" y="437"/>
      <point x="79" y="468"/>
      <point x="113" y="468" type="curve" smooth="yes"/>
      <point x="149" y="468"/>
      <point x="167" y="437"/>
      <point x="167" y="381" type="curve" smooth="yes"/>
      <point x="167" y="325"/>
      <point x="148" y="294"/>
      <point x="114" y="294" type="curve" smooth="yes"/>
      <point x="78" y="294"/>
      <point x="60" y="325"/>
    </contour>
  </outline>
</glyph>
<glyph name="uni0C04" format="2">
  <unicode hex="0C04"/>
  <outline>
    <contour>
      <point x="-365" y="723" type="curve" smooth="yes"/>
      <point x="-365" y="655"/>
      <point x="-337" y="611"/>
      <point x="-285" y="611" type="curve" smooth="yes"/>
      <point x="-235" y="611"/>
      <point x="-206" y="653"/>
      <point x="-206" y="723" type="curve" smooth="yes"/>
      <point x="-206" y="791"/>
      <point x="-234" y="835"/>
      <point x="-285" y="835" type="curve" smooth="yes"/>
      <point x="-336" y="835"/>
      <point x="-365" y="793"/>
    </contour>
    <contour>
      <point x="-339" y="723" type="curve" smooth="yes"/>
      <point x="-339" y="779"/>
      <point x="-320" y="810"/>
      <point x="-286" y="810" type="curve" smooth="yes"/>
      <point x="-250" y="810"/>
      <point x="-232" y="779"/>
      <point x="-232" y="723" type="curve" smooth="yes"/>
      <point x="-232" y="667"/>
      <point x="-251" y="636"/>
      <point x="-285" y="636" type="curve" smooth="yes"/>
      <point x="-321" y="636"/>
      <point x="-339" y="667"/>
    </contour>
  </outline>
</glyph>
<glyph name="atelu" format="2">
  <advance width="577"/>
  <unicode hex="0C05"/>
  <outline>
    <contour>
      <point x="283" y="-12" type="curve" smooth="yes"/>
      <point x="448" y="-12"/>
      <point x="537" y="94"/>
      <point x="537" y="282" type="curve" smooth="yes"/>
      <point x="537" y="425"/>
      <point x="496" y="493"/>
      <point x="426" y="493" type="curve" smooth="yes"/>
      <point x="374" y="493"/>
      <point x="336" y="447"/>
      <point x="336" y="383" type="curve" smooth="yes"/>
      <point x="336" y="304"/>
      <point x="384" y="256"/>
      <point x="435" y="227" type="curve"/>
      <point x="429" y="240" type="line"/>
      <point x="211" y="240" type="line"/>
      <point x="211" y="215" type="line"/>
      <point x="451" y="215" type="line"/>
      <point x="451" y="239" type="line"/>
      <point x="409" y="265"/>
      <point x="363" y="310"/>
      <point x="363" y="383" type="curve" smooth="yes"/>
      <point x="363" y="433"/>
      <point x="388" y="468"/>
      <point x="427" y="468" type="curve" smooth="yes"/>
      <point x="481" y="468"/>
      <point x="510" y="402"/>
      <point x="510" y="282" type="curve" smooth="yes"/>
      <point x="510" y="105"/>
      <point x="432" y="14"/>
      <point x="283" y="14" type="curve" smooth="yes"/>
      <point x="134" y="14"/>
      <point x="67" y="120"/>
      <point x="67" y="259" type="curve" smooth="yes"/>
      <point x="67" y="280" type="line" smooth="yes"/>
      <point x="67" y="401"/>
      <point x="105" y="468"/>
      <point x="155" y="468" type="curve" smooth="yes"/>
      <point x="190" y="468"/>
      <point x="211" y="438"/>
      <point x="211" y="382" type="curve" smooth="yes"/>
      <point x="211" y="321"/>
      <point x="185" y="290"/>
      <point x="136" y="290" type="curve" smooth="yes"/>
      <point x="104" y="290"/>
      <point x="80" y="301"/>
      <point x="54" y="327" type="curve"/>
      <point x="46" y="303" type="line"/>
      <point x="68" y="280"/>
      <point x="102" y="265"/>
      <point x="137" y="265" type="curve" smooth="yes"/>
      <point x="197" y="265"/>
      <point x="238" y="306"/>
      <point x="238" y="382" type="curve" smooth="yes"/>
      <point x="238" y="455"/>
      <point x="202" y="493"/>
      <point x="156" y="493" type="curve" smooth="yes"/>
      <point x="93" y="493"/>
      <point x="40" y="429"/>
      <point x="40" y="266" type="curve" smooth="yes"/>
      <point x="40" y="107"/>
      <point x="118" y="-12"/>
    </contour>
  </outline>
</glyph>
<glyph name="aatelu" format="2">
  <advance width="575"/>
  <unicode hex="0C06"/>
  <outline>
    <contour>
      <point x="297" y="-12" type="curve" smooth="yes"/>
      <point x="462" y="-12"/>
      <point x="524" y="72"/>
      <point x="524" y="161" type="curve" smooth="yes"/>
      <point x="524" y="207"/>
      <point x="505" y="238"/>
      <point x="471" y="261" type="curve"/>
      <point x="398" y="311"/>
      <point x="369" y="340"/>
      <point x="369" y="393" type="curve" smooth="yes"/>
      <point x="369" y="436"/>
      <point x="396" y="468"/>
      <point x="439" y="468" type="curve" smooth="yes"/>
      <point x="482" y="468"/>
      <point x="512" y="436"/>
      <point x="512" y="382" type="curve" smooth="yes"/>
      <point x="512" y="300"/>
      <point x="451" y="247"/>
      <point x="393" y="240" type="curve"/>
      <point x="211" y="240" type="line"/>
      <point x="211" y="215" type="line"/>
      <point x="375" y="215" type="line" smooth="yes"/>
      <point x="420" y="215"/>
      <point x="446" y="228"/>
      <point x="469" y="246" type="curve"/>
      <point x="517" y="280"/>
      <point x="539" y="335"/>
      <point x="539" y="382" type="curve" smooth="yes"/>
      <point x="539" y="454"/>
      <point x="495" y="493"/>
      <point x="438" y="493" type="curve" smooth="yes"/>
      <point x="381" y="493"/>
      <point x="342" y="451"/>
      <point x="342" y="393" type="curve" smooth="yes"/>
      <point x="342" y="333"/>
      <point x="380" y="294"/>
      <point x="451" y="246" type="curve"/>
      <point x="480" y="227"/>
      <point x="497" y="202"/>
      <point x="497" y="160" type="curve" smooth="yes"/>
      <point x="497" y="80"/>
      <point x="440" y="14"/>
      <point x="297" y="14" type="curve" smooth="yes"/>
      <point x="129" y="14"/>
      <point x="67" y="120"/>
      <point x="67" y="259" type="curve" smooth="yes"/>
      <point x="67" y="280" type="line" smooth="yes"/>
      <point x="67" y="401"/>
      <point x="105" y="468"/>
      <point x="155" y="468" type="curve" smooth="yes"/>
      <point x="190" y="468"/>
      <point x="211" y="438"/>
      <point x="211" y="382" type="curve" smooth="yes"/>
      <point x="211" y="321"/>
      <point x="185" y="290"/>
      <point x="136" y="290" type="curve" smooth="yes"/>
      <point x="104" y="290"/>
      <point x="80" y="301"/>
      <point x="54" y="327" type="curve"/>
      <point x="46" y="303" type="line"/>
      <point x="68" y="280"/>
      <point x="102" y="265"/>
      <point x="137" y="265" type="curve" smooth="yes"/>
      <point x="197" y="265"/>
      <point x="238" y="306"/>
      <point x="238" y="382" type="curve" smooth="yes"/>
      <point x="238" y="455"/>
      <point x="202" y="493"/>
      <point x="156" y="493" type="curve" smooth="yes"/>
      <point x="93" y="493"/>
      <point x="40" y="429"/>
      <point x="40" y="266" type="curve" smooth="yes"/>
      <point x="40" y="107"/>
      <point x="114" y="-12"/>
    </contour>
  </outline>
</glyph>
<glyph name="itelu" format="2">
  <advance width="495"/>
  <unicode hex="0C07"/>
  <outline>
    <contour>
      <point x="221" y="-12" type="curve" smooth="yes"/>
      <point x="303" y="-12"/>
      <point x="352" y="20"/>
      <point x="394" y="74" type="curve" smooth="yes"/>
      <point x="396" y="77"/>
      <point x="401" y="83"/>
      <point x="403" y="86" type="curve" smooth="yes"/>
      <point x="439" y="143"/>
      <point x="455" y="214"/>
      <point x="455" y="291" type="curve" smooth="yes"/>
      <point x="455" y="445"/>
      <point x="399" y="493"/>
      <point x="336" y="493" type="curve" smooth="yes"/>
      <point x="289" y="493"/>
      <point x="237" y="464"/>
      <point x="227" y="347" type="curve"/>
      <point x="235" y="344" type="line"/>
      <point x="229" y="460"/>
      <point x="181" y="493"/>
      <point x="130" y="493" type="curve" smooth="yes"/>
      <point x="76" y="493"/>
      <point x="35" y="451"/>
      <point x="35" y="386" type="curve" smooth="yes"/>
      <point x="35" y="352"/>
      <point x="42" y="327"/>
      <point x="51" y="301" type="curve"/>
      <point x="76" y="309" type="line"/>
      <point x="68" y="332"/>
      <point x="62" y="355"/>
      <point x="62" y="385" type="curve" smooth="yes"/>
      <point x="62" y="433"/>
      <point x="87" y="468"/>
      <point x="131" y="468" type="curve" smooth="yes"/>
      <point x="183" y="468"/>
      <point x="208" y="417"/>
      <point x="220" y="330" type="curve"/>
      <point x="244" y="330" type="line"/>
      <point x="254" y="413"/>
      <point x="279" y="467"/>
      <point x="336" y="467" type="curve" smooth="yes"/>
      <point x="380" y="467"/>
      <point x="428" y="435"/>
      <point x="428" y="292" type="curve" smooth="yes"/>
      <point x="428" y="224"/>
      <point x="414" y="157"/>
      <point x="384" y="106" type="curve" smooth="yes"/>
      <point x="351" y="51"/>
      <point x="298" y="14"/>
      <point x="222" y="14" type="curve" smooth="yes"/>
      <point x="139" y="14"/>
      <point x="108" y="61"/>
      <point x="108" y="120" type="curve" smooth="yes"/>
      <point x="108" y="176"/>
      <point x="147" y="218"/>
      <point x="213" y="218" type="curve" smooth="yes"/>
      <point x="323" y="218"/>
      <point x="395" y="119"/>
      <point x="395" y="-2" type="curve" smooth="yes"/>
      <point x="395" y="-28"/>
      <point x="392" y="-60"/>
      <point x="383" y="-92" type="curve"/>
      <point x="408" y="-97" type="line"/>
      <point x="418" y="-62"/>
      <point x="421" y="-32"/>
      <point x="421" y="-3" type="curve" smooth="yes"/>
      <point x="421" y="34"/>
      <point x="415" y="70"/>
      <point x="402" y="103" type="curve"/>
      <point x="369" y="188"/>
      <point x="306" y="243"/>
      <point x="213" y="243" type="curve" smooth="yes"/>
      <point x="137" y="243"/>
      <point x="81" y="198"/>
      <point x="81" y="120" type="curve" smooth="yes"/>
      <point x="81" y="41"/>
      <point x="126" y="-12"/>
    </contour>
  </outline>
</glyph>
<glyph name="iitelu" format="2">
  <advance width="690"/>
  <unicode hex="0C08"/>
  <outline>
    <contour>
      <point x="574" y="52" type="curve" smooth="yes"/>
      <point x="627" y="52"/>
      <point x="663" y="81"/>
      <point x="663" y="155" type="curve" smooth="yes"/>
      <point x="663" y="193"/>
      <point x="650" y="227"/>
      <point x="625" y="249" type="curve" smooth="yes"/>
      <point x="602" y="269"/>
      <point x="571" y="282"/>
      <point x="512" y="282" type="curve" smooth="yes"/>
      <point x="28" y="282" type="line"/>
      <point x="28" y="257" type="line"/>
      <point x="520" y="257" type="line" smooth="yes"/>
      <point x="600" y="257"/>
      <point x="637" y="218"/>
      <point x="637" y="155" type="curve" smooth="yes"/>
      <point x="637" y="102"/>
      <point x="616" y="77"/>
      <point x="574" y="77" type="curve" smooth="yes"/>
      <point x="539" y="77"/>
      <point x="509" y="96"/>
      <point x="509" y="142" type="curve" smooth="yes"/>
      <point x="509" y="190"/>
      <point x="535" y="228"/>
      <point x="580" y="258" type="curve"/>
      <point x="558" y="268" type="line"/>
      <point x="513" y="241"/>
      <point x="483" y="192"/>
      <point x="483" y="143" type="curve" smooth="yes"/>
      <point x="483" y="89"/>
      <point x="517" y="52"/>
    </contour>
    <contour>
      <point x="579" y="463" type="curve" smooth="yes"/>
      <point x="537" y="463"/>
      <point x="507" y="439"/>
      <point x="479" y="381" type="curve"/>
      <point x="504" y="372" type="line"/>
      <point x="526" y="415"/>
      <point x="545" y="438"/>
      <point x="579" y="438" type="curve" smooth="yes"/>
      <point x="610" y="438"/>
      <point x="629" y="418"/>
      <point x="629" y="384" type="curve" smooth="yes"/>
      <point x="629" y="346"/>
      <point x="606" y="313"/>
      <point x="561" y="274" type="curve"/>
      <point x="584" y="262" type="line"/>
      <point x="627" y="301"/>
      <point x="656" y="337"/>
      <point x="656" y="384" type="curve" smooth="yes"/>
      <point x="656" y="437"/>
      <point x="621" y="463"/>
    </contour>
    <contour>
      <point x="77" y="240" type="curve" smooth="yes"/>
      <point x="77" y="80"/>
      <point x="133" y="-12"/>
      <point x="249" y="-12" type="curve" smooth="yes"/>
      <point x="367" y="-12"/>
      <point x="423" y="84"/>
      <point x="423" y="238" type="curve" smooth="yes"/>
      <point x="423" y="406"/>
      <point x="355" y="493"/>
      <point x="250" y="493" type="curve" smooth="yes"/>
      <point x="147" y="493"/>
      <point x="77" y="403"/>
    </contour>
    <contour>
      <point x="103" y="239" type="curve" smooth="yes"/>
      <point x="103" y="367"/>
      <point x="148" y="468"/>
      <point x="250" y="468" type="curve" smooth="yes"/>
      <point x="344" y="468"/>
      <point x="397" y="385"/>
      <point x="397" y="238" type="curve" smooth="yes"/>
      <point x="397" y="99"/>
      <point x="352" y="14"/>
      <point x="249" y="14" type="curve" smooth="yes"/>
      <point x="150" y="14"/>
      <point x="103" y="91"/>
    </contour>
    <component base="hattelu" xOffset="142"/>
  </outline>
</glyph>
<glyph name="utelu" format="2">
  <advance width="580"/>
  <unicode hex="0C09"/>
  <outline>
    <contour>
      <point x="398" y="-12" type="curve" smooth="yes"/>
      <point x="469" y="-12"/>
      <point x="514" y="35"/>
      <point x="514" y="120" type="curve" smooth="yes"/>
      <point x="514" y="197"/>
      <point x="480" y="240"/>
      <point x="428" y="240" type="curve" smooth="yes"/>
      <point x="375" y="240"/>
      <point x="341" y="195"/>
      <point x="341" y="128" type="curve" smooth="yes"/>
      <point x="341" y="83"/>
      <point x="356" y="36"/>
      <point x="380" y="2" type="curve"/>
      <point x="404" y="8" type="line"/>
      <point x="379" y="44"/>
      <point x="367" y="87"/>
      <point x="367" y="126" type="curve" smooth="yes"/>
      <point x="367" y="183"/>
      <point x="392" y="215"/>
      <point x="428" y="215" type="curve" smooth="yes"/>
      <point x="463" y="215"/>
      <point x="487" y="184"/>
      <point x="487" y="120" type="curve" smooth="yes"/>
      <point x="487" y="52"/>
      <point x="454" y="13"/>
      <point x="399" y="13" type="curve" smooth="yes"/>
      <point x="394" y="13"/>
      <point x="385" y="14"/>
      <point x="380" y="14" type="curve" smooth="yes"/>
      <point x="301" y="21"/>
      <point x="274" y="77"/>
      <point x="266" y="168" type="curve"/>
      <point x="242" y="168" type="line"/>
      <point x="234" y="69"/>
      <point x="211" y="14"/>
      <point x="154" y="14" type="curve" smooth="yes"/>
      <point x="94" y="14"/>
      <point x="67" y="66"/>
      <point x="67" y="195" type="curve" smooth="yes"/>
      <point x="67" y="226"/>
      <point x="68" y="253"/>
      <point x="73" y="279" type="curve" smooth="yes"/>
      <point x="96" y="402"/>
      <point x="168" y="468"/>
      <point x="277" y="468" type="curve" smooth="yes"/>
      <point x="347" y="468"/>
      <point x="398" y="447"/>
      <point x="457" y="412" type="curve"/>
      <point x="473" y="434" type="line"/>
      <point x="410" y="471"/>
      <point x="351" y="493"/>
      <point x="276" y="493" type="curve" smooth="yes"/>
      <point x="134" y="493"/>
      <point x="40" y="392"/>
      <point x="40" y="196" type="curve" smooth="yes"/>
      <point x="40" y="43"/>
      <point x="83" y="-12"/>
      <point x="154" y="-12" type="curve" smooth="yes"/>
      <point x="204" y="-12"/>
      <point x="253" y="15"/>
      <point x="258" y="143" type="curve"/>
      <point x="249" y="144" type="line"/>
      <point x="253" y="41"/>
      <point x="307" y="-12"/>
    </contour>
    <contour>
      <point x="66" y="267" type="line"/>
      <point x="554" y="267" type="line"/>
      <point x="554" y="292" type="line"/>
      <point x="69" y="292" type="line"/>
    </contour>
    <contour>
      <point x="299" y="627" type="line"/>
      <point x="267" y="627" type="line"/>
      <point x="271" y="475" type="line"/>
      <point x="295" y="475" type="line"/>
    </contour>
  </outline>
</glyph>
<glyph name="uutelu" format="2">
  <advance width="779"/>
  <unicode hex="0C0A"/>
  <outline>
    <contour>
      <point x="398" y="-12" type="curve" smooth="yes"/>
      <point x="469" y="-12"/>
      <point x="514" y="35"/>
      <point x="514" y="120" type="curve" smooth="yes"/>
      <point x="514" y="197"/>
      <point x="480" y="240"/>
      <point x="428" y="240" type="curve" smooth="yes"/>
      <point x="375" y="240"/>
      <point x="341" y="195"/>
      <point x="341" y="128" type="curve" smooth="yes"/>
      <point x="341" y="83"/>
      <point x="356" y="36"/>
      <point x="380" y="2" type="curve"/>
      <point x="404" y="8" type="line"/>
      <point x="379" y="44"/>
      <point x="367" y="87"/>
      <point x="367" y="126" type="curve" smooth="yes"/>
      <point x="367" y="183"/>
      <point x="392" y="215"/>
      <point x="428" y="215" type="curve" smooth="yes"/>
      <point x="463" y="215"/>
      <point x="487" y="184"/>
      <point x="487" y="120" type="curve" smooth="yes"/>
      <point x="487" y="52"/>
      <point x="454" y="13"/>
      <point x="399" y="13" type="curve" smooth="yes"/>
      <point x="394" y="13"/>
      <point x="385" y="14"/>
      <point x="380" y="14" type="curve" smooth="yes"/>
      <point x="301" y="21"/>
      <point x="274" y="77"/>
      <point x="266" y="168" type="curve"/>
      <point x="242" y="168" type="line"/>
      <point x="234" y="69"/>
      <point x="211" y="14"/>
      <point x="154" y="14" type="curve" smooth="yes"/>
      <point x="94" y="14"/>
      <point x="67" y="66"/>
      <point x="67" y="195" type="curve" smooth="yes"/>
      <point x="67" y="226"/>
      <point x="68" y="253"/>
      <point x="73" y="279" type="curve" smooth="yes"/>
      <point x="96" y="402"/>
      <point x="168" y="468"/>
      <point x="277" y="468" type="curve" smooth="yes"/>
      <point x="347" y="468"/>
      <point x="398" y="447"/>
      <point x="457" y="412" type="curve"/>
      <point x="473" y="434" type="line"/>
      <point x="410" y="471"/>
      <point x="351" y="493"/>
      <point x="276" y="493" type="curve" smooth="yes"/>
      <point x="134" y="493"/>
      <point x="40" y="392"/>
      <point x="40" y="196" type="curve" smooth="yes"/>
      <point x="40" y="43"/>
      <point x="83" y="-12"/>
      <point x="154" y="-12" type="curve" smooth="yes"/>
      <point x="204" y="-12"/>
      <point x="253" y="15"/>
      <point x="258" y="143" type="curve"/>
      <point x="249" y="144" type="line"/>
      <point x="253" y="41"/>
      <point x="307" y="-12"/>
    </contour>
    <contour>
      <point x="663" y="62" type="curve" smooth="yes"/>
      <point x="716" y="62"/>
      <point x="752" y="91"/>
      <point x="752" y="165" type="curve" smooth="yes"/>
      <point x="752" y="203"/>
      <point x="739" y="237"/>
      <point x="714" y="259" type="curve" smooth="yes"/>
      <point x="691" y="279"/>
      <point x="660" y="292"/>
      <point x="601" y="292" type="curve" smooth="yes"/>
      <point x="62" y="292" type="line"/>
      <point x="62" y="267" type="line"/>
      <point x="609" y="267" type="line" smooth="yes"/>
      <point x="689" y="267"/>
      <point x="726" y="228"/>
      <point x="726" y="165" type="curve" smooth="yes"/>
      <point x="726" y="112"/>
      <point x="705" y="87"/>
      <point x="663" y="87" type="curve" smooth="yes"/>
      <point x="628" y="87"/>
      <point x="598" y="106"/>
      <point x="598" y="152" type="curve" smooth="yes"/>
      <point x="598" y="200"/>
      <point x="624" y="238"/>
      <point x="669" y="268" type="curve"/>
      <point x="647" y="278" type="line"/>
      <point x="602" y="251"/>
      <point x="572" y="202"/>
      <point x="572" y="153" type="curve" smooth="yes"/>
      <point x="572" y="99"/>
      <point x="606" y="62"/>
    </contour>
    <contour>
      <point x="668" y="473" type="curve" smooth="yes"/>
      <point x="626" y="473"/>
      <point x="596" y="449"/>
      <point x="568" y="391" type="curve"/>
      <point x="593" y="382" type="line"/>
      <point x="615" y="425"/>
      <point x="634" y="448"/>
      <point x="668" y="448" type="curve" smooth="yes"/>
      <point x="699" y="448"/>
      <point x="718" y="428"/>
      <point x="718" y="394" type="curve" smooth="yes"/>
      <point x="718" y="356"/>
      <point x="695" y="323"/>
      <point x="650" y="284" type="curve"/>
      <point x="673" y="272" type="line"/>
      <point x="716" y="311"/>
      <point x="745" y="347"/>
      <point x="745" y="394" type="curve" smooth="yes"/>
      <point x="745" y="447"/>
      <point x="710" y="473"/>
    </contour>
    <contour>
      <point x="249" y="627" type="line"/>
      <point x="217" y="627" type="line"/>
      <point x="221" y="475" type="line"/>
      <point x="245" y="475" type="line"/>
    </contour>
    <contour>
      <point x="349" y="627" type="line"/>
      <point x="317" y="627" type="line"/>
      <point x="321" y="475" type="line"/>
      <point x="345" y="475" type="line"/>
    </contour>
  </outline>
</glyph>
<glyph name="lvocalictelu" format="2">
  <advance width="625"/>
  <unicode hex="0C0C"/>
  <outline>
    <contour>
      <point x="395" y="-61" type="curve" smooth="yes"/>
      <point x="521" y="-61"/>
      <point x="583" y="54"/>
      <point x="583" y="208" type="curve" smooth="yes"/>
      <point x="583" y="340"/>
      <point x="538" y="423"/>
      <point x="465" y="493" type="curve"/>
      <point x="447" y="474" type="line"/>
      <point x="521" y="404"/>
      <point x="556" y="324"/>
      <point x="556" y="207" type="curve" smooth="yes"/>
      <point x="556" y="80"/>
      <point x="506" y="-35"/>
      <point x="396" y="-35" type="curve" smooth="yes"/>
      <point x="331" y="-35"/>
      <point x="303" y="12"/>
      <point x="303" y="71" type="curve" smooth="yes"/>
      <point x="303" y="124"/>
      <point x="319" y="159"/>
      <point x="361" y="233" type="curve" smooth="yes"/>
      <point x="394" y="291"/>
      <point x="411" y="332"/>
      <point x="411" y="384" type="curve" smooth="yes"/>
      <point x="411" y="442"/>
      <point x="381" y="493"/>
      <point x="320" y="493" type="curve" smooth="yes"/>
      <point x="262" y="493"/>
      <point x="221" y="448"/>
      <point x="210" y="344" type="curve"/>
      <point x="217" y="346" type="line"/>
      <point x="212" y="456"/>
      <point x="172" y="493"/>
      <point x="119" y="493" type="curve" smooth="yes"/>
      <point x="75" y="493"/>
      <point x="35" y="457"/>
      <point x="35" y="386" type="curve" smooth="yes"/>
      <point x="35" y="350"/>
      <point x="44" y="321"/>
      <point x="55" y="292" type="curve"/>
      <point x="80" y="300" type="line"/>
      <point x="69" y="327"/>
      <point x="62" y="353"/>
      <point x="62" y="386" type="curve" smooth="yes"/>
      <point x="62" y="442"/>
      <point x="87" y="467"/>
      <point x="120" y="467" type="curve" smooth="yes"/>
      <point x="166" y="467"/>
      <point x="196" y="422"/>
      <point x="203" y="315" type="curve"/>
      <point x="227" y="315" type="line"/>
      <point x="234" y="412"/>
      <point x="266" y="467"/>
      <point x="320" y="467" type="curve" smooth="yes"/>
      <point x="364" y="467"/>
      <point x="384" y="432"/>
      <point x="384" y="385" type="curve" smooth="yes"/>
      <point x="384" y="337"/>
      <point x="368" y="296"/>
      <point x="339" y="247" type="curve" smooth="yes"/>
      <point x="293" y="168"/>
      <point x="275" y="119"/>
      <point x="275" y="69" type="curve" smooth="yes"/>
      <point x="275" y="-5"/>
      <point x="320" y="-61"/>
    </contour>
  </outline>
</glyph>
<glyph name="eetelu" format="2">
  <advance width="505"/>
  <unicode hex="0C0F"/>
  <outline>
    <contour>
      <point x="356" y="-12" type="curve" smooth="yes"/>
      <point x="423" y="-12"/>
      <point x="465" y="41"/>
      <point x="465" y="176" type="curve" smooth="yes"/>
      <point x="465" y="426"/>
      <point x="327" y="607"/>
      <point x="186" y="700" type="curve"/>
      <point x="170" y="679" type="line"/>
      <point x="314" y="585"/>
      <point x="438" y="411"/>
      <point x="438" y="176" type="curve" smooth="yes"/>
      <point x="438" y="65"/>
      <point x="413" y="14"/>
      <point x="356" y="14" type="curve" smooth="yes"/>
      <point x="303" y="14"/>
      <point x="277" y="48"/>
      <point x="235" y="140" type="curve" smooth="yes"/>
      <point x="195" y="227"/>
      <point x="172" y="250"/>
      <point x="125" y="250" type="curve" smooth="yes"/>
      <point x="78" y="250"/>
      <point x="35" y="206"/>
      <point x="35" y="120" type="curve" smooth="yes"/>
      <point x="35" y="43"/>
      <point x="65" y="-12"/>
      <point x="129" y="-12" type="curve" smooth="yes"/>
      <point x="178" y="-12"/>
      <point x="216" y="20"/>
      <point x="234" y="102" type="curve"/>
      <point x="219" y="125" type="line"/>
      <point x="199" y="51"/>
      <point x="176" y="14"/>
      <point x="129" y="14" type="curve" smooth="yes"/>
      <point x="85" y="14"/>
      <point x="62" y="49"/>
      <point x="62" y="120" type="curve" smooth="yes"/>
      <point x="62" y="187"/>
      <point x="88" y="224"/>
      <point x="125" y="224" type="curve" smooth="yes"/>
      <point x="163" y="224"/>
      <point x="179" y="200"/>
      <point x="213" y="127" type="curve" smooth="yes"/>
      <point x="259" y="29"/>
      <point x="290" y="-12"/>
    </contour>
    <contour>
      <point x="90" y="696" type="curve" smooth="yes"/>
      <point x="90" y="642"/>
      <point x="112" y="588"/>
      <point x="144" y="527" type="curve"/>
      <point x="169" y="537" type="line"/>
      <point x="136" y="598"/>
      <point x="117" y="642"/>
      <point x="117" y="696" type="curve" smooth="yes"/>
      <point x="117" y="741"/>
      <point x="140" y="790"/>
      <point x="196" y="790" type="curve" smooth="yes"/>
      <point x="207" y="790"/>
      <point x="216" y="789"/>
      <point x="225" y="786" type="curve"/>
      <point x="232" y="811" type="line"/>
      <point x="219" y="815"/>
      <point x="208" y="816"/>
      <point x="196" y="816" type="curve" smooth="yes"/>
      <point x="143" y="816"/>
      <point x="90" y="777"/>
    </contour>
  </outline>
</glyph>
<glyph name="aitelu" format="2">
  <advance width="523"/>
  <unicode hex="0C10"/>
  <outline>
    <contour>
      <point x="362" y="-12" type="curve" smooth="yes"/>
      <point x="447" y="-12"/>
      <point x="479" y="63"/>
      <point x="479" y="228" type="curve" smooth="yes"/>
      <point x="479" y="409"/>
      <point x="422" y="493"/>
      <point x="344" y="493" type="curve" smooth="yes"/>
      <point x="293" y="493"/>
      <point x="242" y="464"/>
      <point x="231" y="347" type="curve"/>
      <point x="239" y="344" type="line"/>
      <point x="233" y="460"/>
      <point x="185" y="493"/>
      <point x="134" y="493" type="curve" smooth="yes"/>
      <point x="80" y="493"/>
      <point x="39" y="451"/>
      <point x="39" y="388" type="curve" smooth="yes"/>
      <point x="39" y="361"/>
      <point x="43" y="335"/>
      <point x="52" y="309" type="curve"/>
      <point x="77" y="317" type="line"/>
      <point x="69" y="340"/>
      <point x="66" y="360"/>
      <point x="66" y="387" type="curve" smooth="yes"/>
      <point x="66" y="433"/>
      <point x="91" y="468"/>
      <point x="135" y="468" type="curve" smooth="yes"/>
      <point x="187" y="468"/>
      <point x="212" y="417"/>
      <point x="224" y="330" type="curve"/>
      <point x="248" y="330" type="line"/>
      <point x="258" y="413"/>
      <point x="283" y="467"/>
      <point x="342" y="467" type="curve" smooth="yes"/>
      <point x="418" y="467"/>
      <point x="452" y="363"/>
      <point x="452" y="228" type="curve" smooth="yes"/>
      <point x="452" y="61"/>
      <point x="420" y="14"/>
      <point x="362" y="14" type="curve" smooth="yes"/>
      <point x="309" y="14"/>
      <point x="283" y="48"/>
      <point x="241" y="140" type="curve" smooth="yes"/>
      <point x="201" y="227"/>
      <point x="178" y="250"/>
      <point x="131" y="250" type="curve" smooth="yes"/>
      <point x="84" y="250"/>
      <point x="41" y="206"/>
      <point x="41" y="120" type="curve" smooth="yes"/>
      <point x="41" y="43"/>
      <point x="71" y="-12"/>
      <point x="135" y="-12" type="curve" smooth="yes"/>
      <point x="184" y="-12"/>
      <point x="222" y="20"/>
      <point x="240" y="102" type="curve"/>
      <point x="225" y="125" type="line"/>
      <point x="205" y="51"/>
      <point x="182" y="14"/>
      <point x="135" y="14" type="curve" smooth="yes"/>
      <point x="91" y="14"/>
      <point x="68" y="49"/>
      <point x="68" y="120" type="curve" smooth="yes"/>
      <point x="68" y="187"/>
      <point x="94" y="224"/>
      <point x="131" y="224" type="curve" smooth="yes"/>
      <point x="169" y="224"/>
      <point x="185" y="200"/>
      <point x="219" y="127" type="curve" smooth="yes"/>
      <point x="265" y="29"/>
      <point x="296" y="-12"/>
    </contour>
  </outline>
</glyph>
<glyph name="otelu" format="2">
  <advance width="516"/>
  <unicode hex="0C12"/>
  <outline>
    <contour>
      <point x="376" y="-12" type="curve" smooth="yes"/>
      <point x="440" y="-12"/>
      <point x="480" y="32"/>
      <point x="480" y="122" type="curve" smooth="yes"/>
      <point x="480" y="194"/>
      <point x="446" y="257"/>
      <point x="388" y="301" type="curve"/>
      <point x="370" y="282" type="line"/>
      <point x="416" y="246"/>
      <point x="453" y="194"/>
      <point x="453" y="122" type="curve" smooth="yes"/>
      <point x="453" y="56"/>
      <point x="429" y="14"/>
      <point x="377" y="14" type="curve" smooth="yes"/>
      <point x="318" y="14"/>
      <point x="289" y="56"/>
      <point x="281" y="168" type="curve"/>
      <point x="257" y="168" type="line"/>
      <point x="250" y="75"/>
      <point x="229" y="14"/>
      <point x="155" y="14" type="curve" smooth="yes"/>
      <point x="105" y="14"/>
      <point x="75" y="45"/>
      <point x="75" y="112" type="curve" smooth="yes"/>
      <point x="75" y="172"/>
      <point x="103" y="208"/>
      <point x="159" y="247" type="curve" smooth="yes"/>
      <point x="217" y="287"/>
      <point x="241" y="324"/>
      <point x="241" y="386" type="curve" smooth="yes"/>
      <point x="241" y="435"/>
      <point x="217" y="493"/>
      <point x="143" y="493" type="curve" smooth="yes"/>
      <point x="75" y="493"/>
      <point x="41" y="440"/>
      <point x="41" y="384" type="curve" smooth="yes"/>
      <point x="41" y="358"/>
      <point x="47" y="333"/>
      <point x="52" y="315" type="curve"/>
      <point x="78" y="321" type="line"/>
      <point x="72" y="341"/>
      <point x="68" y="359"/>
      <point x="68" y="384" type="curve" smooth="yes"/>
      <point x="68" y="432"/>
      <point x="93" y="467"/>
      <point x="143" y="467" type="curve" smooth="yes"/>
      <point x="199" y="467"/>
      <point x="214" y="420"/>
      <point x="214" y="385" type="curve" smooth="yes"/>
      <point x="214" y="336"/>
      <point x="195" y="304"/>
      <point x="145" y="269" type="curve" smooth="yes"/>
      <point x="83" y="226"/>
      <point x="48" y="182"/>
      <point x="48" y="112" type="curve" smooth="yes"/>
      <point x="48" y="39"/>
      <point x="82" y="-12"/>
      <point x="155" y="-12" type="curve" smooth="yes"/>
      <point x="222" y="-12"/>
      <point x="268" y="30"/>
      <point x="273" y="143" type="curve"/>
      <point x="265" y="143" type="line"/>
      <point x="271" y="22"/>
      <point x="316" y="-12"/>
    </contour>
  </outline>
</glyph>
<glyph name="autelu" format="2">
  <advance width="516"/>
  <unicode hex="0C14"/>
  <outline>
    <contour>
      <point x="396" y="443" type="curve" smooth="yes"/>
      <point x="444" y="443"/>
      <point x="484" y="472"/>
      <point x="484" y="546" type="curve" smooth="yes"/>
      <point x="484" y="585"/>
      <point x="471" y="618"/>
      <point x="446" y="640" type="curve" smooth="yes"/>
      <point x="423" y="660"/>
      <point x="392" y="673"/>
      <point x="333" y="673" type="curve" smooth="yes"/>
      <point x="23" y="673" type="line"/>
      <point x="23" y="648" type="line"/>
      <point x="99" y="648" type="line" smooth="yes"/>
      <point x="151" y="648"/>
      <point x="176" y="641"/>
      <point x="193" y="626" type="curve" smooth="yes"/>
      <point x="207" y="614"/>
      <point x="214" y="593"/>
      <point x="214" y="570" type="curve" smooth="yes"/>
      <point x="214" y="547"/>
      <point x="207" y="527"/>
      <point x="193" y="515" type="curve" smooth="yes"/>
      <point x="176" y="500"/>
      <point x="150" y="493"/>
      <point x="100" y="493" type="curve" smooth="yes"/>
      <point x="70" y="493" type="line"/>
      <point x="70" y="471" type="line"/>
      <point x="112" y="471" type="line" smooth="yes"/>
      <point x="158" y="471"/>
      <point x="198" y="479"/>
      <point x="219" y="505" type="curve" smooth="yes"/>
      <point x="232" y="521"/>
      <point x="241" y="543"/>
      <point x="241" y="571" type="curve" smooth="yes"/>
      <point x="241" y="609"/>
      <point x="223" y="635"/>
      <point x="195" y="648" type="curve"/>
      <point x="341" y="648" type="line" smooth="yes"/>
      <point x="421" y="648"/>
      <point x="458" y="610"/>
      <point x="458" y="546" type="curve" smooth="yes"/>
      <point x="458" y="490"/>
      <point x="432" y="468"/>
      <point x="396" y="468" type="curve" smooth="yes"/>
      <point x="360" y="468"/>
      <point x="330" y="487"/>
      <point x="330" y="545" type="curve" smooth="yes"/>
      <point x="330" y="586"/>
      <point x="346" y="621"/>
      <point x="375" y="658" type="curve"/>
      <point x="351" y="665" type="line"/>
      <point x="321" y="628"/>
      <point x="304" y="590"/>
      <point x="304" y="544" type="curve" smooth="yes"/>
      <point x="304" y="480"/>
      <point x="340" y="443"/>
    </contour>
    <component base="otelu"/>
  </outline>
</glyph>
<glyph name="ngatelu" format="2">
  <advance width="516"/>
  <unicode hex="0C19"/>
  <outline>
    <contour>
      <point x="376" y="-12" type="curve" smooth="yes"/>
      <point x="440" y="-12"/>
      <point x="480" y="31"/>
      <point x="480" y="122" type="curve" smooth="yes"/>
      <point x="480" y="168"/>
      <point x="467" y="207"/>
      <point x="449" y="239" type="curve"/>
      <point x="424" y="228" type="line"/>
      <point x="441" y="201"/>
      <point x="453" y="165"/>
      <point x="453" y="122" type="curve" smooth="yes"/>
      <point x="453" y="56"/>
      <point x="429" y="14"/>
      <point x="377" y="14" type="curve" smooth="yes"/>
      <point x="318" y="14"/>
      <point x="289" y="56"/>
      <point x="281" y="168" type="curve"/>
      <point x="257" y="168" type="line"/>
      <point x="250" y="75"/>
      <point x="229" y="14"/>
      <point x="155" y="14" type="curve" smooth="yes"/>
      <point x="105" y="14"/>
      <point x="75" y="45"/>
      <point x="75" y="112" type="curve" smooth="yes"/>
      <point x="75" y="172"/>
      <point x="103" y="208"/>
      <point x="159" y="247" type="curve" smooth="yes"/>
      <point x="217" y="287"/>
      <point x="241" y="324"/>
      <point x="241" y="386" type="curve" smooth="yes"/>
      <point x="241" y="435"/>
      <point x="217" y="493"/>
      <point x="143" y="493" type="curve" smooth="yes"/>
      <point x="75" y="493"/>
      <point x="41" y="440"/>
      <point x="41" y="384" type="curve" smooth="yes"/>
      <point x="41" y="358"/>
      <point x="47" y="333"/>
      <point x="52" y="315" type="curve"/>
      <point x="78" y="321" type="line"/>
      <point x="72" y="341"/>
      <point x="68" y="359"/>
      <point x="68" y="384" type="curve" smooth="yes"/>
      <point x="68" y="432"/>
      <point x="93" y="467"/>
      <point x="143" y="467" type="curve" smooth="yes"/>
      <point x="199" y="467"/>
      <point x="214" y="420"/>
      <point x="214" y="385" type="curve" smooth="yes"/>
      <point x="214" y="336"/>
      <point x="195" y="304"/>
      <point x="145" y="269" type="curve" smooth="yes"/>
      <point x="83" y="226"/>
      <point x="48" y="182"/>
      <point x="48" y="112" type="curve" smooth="yes"/>
      <point x="48" y="39"/>
      <point x="82" y="-12"/>
      <point x="155" y="-12" type="curve" smooth="yes"/>
      <point x="222" y="-12"/>
      <point x="268" y="30"/>
      <point x="273" y="143" type="curve"/>
      <point x="265" y="143" type="line"/>
      <point x="271" y="22"/>
      <point x="316" y="-12"/>
    </contour>
    <contour>
      <point x="217" y="313" type="line"/>
      <point x="443" y="313" type="line"/>
      <point x="443" y="338" type="line"/>
      <point x="223" y="338" type="line"/>
    </contour>
    <contour>
      <point x="352" y="493" type="line"/>
      <point x="320" y="493" type="line"/>
      <point x="324" y="336" type="line"/>
      <point x="348" y="336" type="line"/>
    </contour>
  </outline>
</glyph>
<glyph name="catelu" format="2">
  <advance width="533"/>
  <unicode hex="0C1A"/>
  <outline>
    <contour>
      <point x="374" y="-12" type="curve" smooth="yes"/>
      <point x="452" y="-12"/>
      <point x="493" y="47"/>
      <point x="493" y="154" type="curve" smooth="yes"/>
      <point x="493" y="342"/>
      <point x="404" y="445"/>
      <point x="279" y="492" type="curve"/>
      <point x="267" y="471" type="line"/>
      <point x="374" y="431"/>
      <point x="466" y="342"/>
      <point x="466" y="155" type="curve" smooth="yes"/>
      <point x="466" y="75"/>
      <point x="442" y="14"/>
      <point x="374" y="14" type="curve" smooth="yes"/>
      <point x="310" y="14"/>
      <point x="286" y="69"/>
      <point x="278" y="168" type="curve"/>
      <point x="254" y="168" type="line"/>
      <point x="246" y="70"/>
      <point x="227" y="14"/>
      <point x="163" y="14" type="curve" smooth="yes"/>
      <point x="107" y="14"/>
      <point x="84" y="68"/>
      <point x="84" y="124" type="curve" smooth="yes"/>
      <point x="84" y="193"/>
      <point x="119" y="243"/>
      <point x="182" y="286" type="curve"/>
      <point x="182" y="311" type="line"/>
      <point x="26" y="311" type="line"/>
      <point x="26" y="286" type="line"/>
      <point x="151" y="286" type="line"/>
      <point x="152" y="290" type="line"/>
      <point x="98" y="253"/>
      <point x="57" y="203"/>
      <point x="57" y="124" type="curve" smooth="yes"/>
      <point x="57" y="51"/>
      <point x="92" y="-12"/>
      <point x="162" y="-12" type="curve" smooth="yes"/>
      <point x="217" y="-12"/>
      <point x="263" y="14"/>
      <point x="270" y="143" type="curve"/>
      <point x="262" y="143" type="line"/>
      <point x="269" y="12"/>
      <point x="322" y="-12"/>
    </contour>
    <component base="hattelu" xOffset="164"/>
  </outline>
</glyph>
<glyph name="nnatelu" format="2">
  <advance width="593"/>
  <unicode hex="0C23"/>
  <outline>
    <contour>
      <point x="428" y="-12" type="curve" smooth="yes"/>
      <point x="502" y="-12"/>
      <point x="548" y="43"/>
      <point x="548" y="232" type="curve" smooth="yes"/>
      <point x="548" y="406"/>
      <point x="502" y="493"/>
      <point x="414" y="493" type="curve" smooth="yes"/>
      <point x="347" y="493"/>
      <point x="307" y="443"/>
      <point x="293" y="349" type="curve"/>
      <point x="302" y="349" type="line"/>
      <point x="292" y="437"/>
      <point x="247" y="493"/>
      <point x="166" y="493" type="curve" smooth="yes"/>
      <point x="96" y="493"/>
      <point x="43" y="446"/>
      <point x="43" y="365" type="curve" smooth="yes"/>
      <point x="43" y="284"/>
      <point x="98" y="243"/>
      <point x="164" y="236" type="curve"/>
      <point x="166" y="244" type="line"/>
      <point x="76" y="235"/>
      <point x="37" y="180"/>
      <point x="37" y="113" type="curve" smooth="yes"/>
      <point x="37" y="44"/>
      <point x="72" y="-12"/>
      <point x="151" y="-12" type="curve" smooth="yes"/>
      <point x="202" y="-12"/>
      <point x="246" y="8"/>
      <point x="287" y="60" type="curve"/>
      <point x="265" y="76" type="line"/>
      <point x="227" y="26"/>
      <point x="192" y="14"/>
      <point x="153" y="14" type="curve" smooth="yes"/>
      <point x="91" y="14"/>
      <point x="64" y="55"/>
      <point x="64" y="113" type="curve" smooth="yes"/>
      <point x="64" y="153"/>
      <point x="79" y="183"/>
      <point x="105" y="202" type="curve" smooth="yes"/>
      <point x="127" y="218"/>
      <point x="155" y="228"/>
      <point x="210" y="228" type="curve" smooth="yes"/>
      <point x="228" y="228" type="line"/>
      <point x="228" y="253" type="line"/>
      <point x="209" y="253" type="line" smooth="yes"/>
      <point x="159" y="253"/>
      <point x="130" y="261"/>
      <point x="106" y="280" type="curve" smooth="yes"/>
      <point x="84" y="298"/>
      <point x="70" y="327"/>
      <point x="70" y="366" type="curve" smooth="yes"/>
      <point x="70" y="431"/>
      <point x="113" y="467"/>
      <point x="165" y="467" type="curve" smooth="yes"/>
      <point x="237" y="467"/>
      <point x="276" y="416"/>
      <point x="285" y="330" type="curve"/>
      <point x="309" y="330" type="line"/>
      <point x="323" y="409"/>
      <point x="351" y="467"/>
      <point x="413" y="467" type="curve" smooth="yes"/>
      <point x="484" y="467"/>
      <point x="521" y="386"/>
      <point x="521" y="248" type="curve" smooth="yes"/>
      <point x="521" y="222" type="line" smooth="yes"/>
      <point x="521" y="54"/>
      <point x="481" y="14"/>
      <point x="428" y="14" type="curve" smooth="yes"/>
      <point x="380" y="14"/>
      <point x="355" y="49"/>
      <point x="355" y="113" type="curve" smooth="yes"/>
      <point x="355" y="175"/>
      <point x="381" y="211"/>
      <point x="428" y="211" type="curve" smooth="yes"/>
      <point x="469" y="211"/>
      <point x="499" y="185"/>
      <point x="525" y="142" type="curve"/>
      <point x="537" y="163" type="line"/>
      <point x="504" y="216"/>
      <point x="470" y="236"/>
      <point x="427" y="236" type="curve" smooth="yes"/>
      <point x="355" y="236"/>
      <point x="328" y="176"/>
      <point x="328" y="114" type="curve" smooth="yes"/>
      <point x="328" y="33"/>
      <point x="364" y="-12"/>
    </contour>
  </outline>
</glyph>
<glyph name="natelu" format="2">
  <advance width="499"/>
  <unicode hex="0C28"/>
  <outline>
    <contour>
      <point x="350" y="-12" type="curve" smooth="yes"/>
      <point x="417" y="-12"/>
      <point x="459" y="42"/>
      <point x="459" y="154" type="curve" smooth="yes"/>
      <point x="459" y="349"/>
      <point x="359" y="476"/>
      <point x="196" y="492" type="curve"/>
      <point x="179" y="469" type="line"/>
      <point x="180" y="469" type="line"/>
      <point x="327" y="463"/>
      <point x="432" y="349"/>
      <point x="432" y="155" type="curve" smooth="yes"/>
      <point x="432" y="65"/>
      <point x="407" y="14"/>
      <point x="350" y="14" type="curve" smooth="yes"/>
      <point x="297" y="14"/>
      <point x="271" y="48"/>
      <point x="226" y="147" type="curve" smooth="yes"/>
      <point x="189" y="230"/>
      <point x="164" y="257"/>
      <point x="119" y="257" type="curve" smooth="yes"/>
      <point x="66" y="257"/>
      <point x="35" y="209"/>
      <point x="35" y="139" type="curve" smooth="yes"/>
      <point x="35" y="78"/>
      <point x="56" y="31"/>
      <point x="80" y="-13" type="curve"/>
      <point x="105" y="-5" type="line"/>
      <point x="76" y="50"/>
      <point x="61" y="91"/>
      <point x="61" y="139" type="curve" smooth="yes"/>
      <point x="61" y="197"/>
      <point x="82" y="231"/>
      <point x="119" y="231" type="curve" smooth="yes"/>
      <point x="151" y="231"/>
      <point x="168" y="212"/>
      <point x="203" y="136" type="curve" smooth="yes"/>
      <point x="252" y="28"/>
      <point x="285" y="-12"/>
    </contour>
    <component base="hattelu" xOffset="80"/>
  </outline>
</glyph>
<glyph name="batelu" format="2">
  <advance width="534"/>
  <unicode hex="0C2C"/>
  <outline>
    <contour>
      <point x="377" y="-12" type="curve" smooth="yes"/>
      <point x="449" y="-12"/>
      <point x="494" y="41"/>
      <point x="494" y="159" type="curve" smooth="yes"/>
      <point x="494" y="335"/>
      <point x="406" y="434"/>
      <point x="316" y="494" type="curve"/>
      <point x="301" y="472" type="line"/>
      <point x="393" y="413"/>
      <point x="467" y="316"/>
      <point x="467" y="159" type="curve" smooth="yes"/>
      <point x="467" y="65"/>
      <point x="441" y="14"/>
      <point x="377" y="14" type="curve" smooth="yes"/>
      <point x="318" y="14"/>
      <point x="289" y="56"/>
      <point x="281" y="168" type="curve"/>
      <point x="257" y="168" type="line"/>
      <point x="250" y="75"/>
      <point x="229" y="14"/>
      <point x="155" y="14" type="curve" smooth="yes"/>
      <point x="105" y="14"/>
      <point x="75" y="45"/>
      <point x="75" y="112" type="curve" smooth="yes"/>
      <point x="75" y="172"/>
      <point x="103" y="208"/>
      <point x="159" y="247" type="curve" smooth="yes"/>
      <point x="217" y="287"/>
      <point x="241" y="324"/>
      <point x="241" y="386" type="curve" smooth="yes"/>
      <point x="241" y="435"/>
      <point x="217" y="493"/>
      <point x="143" y="493" type="curve" smooth="yes"/>
      <point x="75" y="493"/>
      <point x="41" y="440"/>
      <point x="41" y="384" type="curve" smooth="yes"/>
      <point x="41" y="358"/>
      <point x="47" y="333"/>
      <point x="52" y="315" type="curve"/>
      <point x="78" y="321" type="line"/>
      <point x="72" y="341"/>
      <point x="68" y="359"/>
      <point x="68" y="384" type="curve" smooth="yes"/>
      <point x="68" y="432"/>
      <point x="93" y="467"/>
      <point x="143" y="467" type="curve" smooth="yes"/>
      <point x="199" y="467"/>
      <point x="214" y="420"/>
      <point x="214" y="385" type="curve" smooth="yes"/>
      <point x="214" y="336"/>
      <point x="195" y="304"/>
      <point x="145" y="269" type="curve" smooth="yes"/>
      <point x="83" y="226"/>
      <point x="48" y="182"/>
      <point x="48" y="112" type="curve" smooth="yes"/>
      <point x="48" y="39"/>
      <point x="82" y="-12"/>
      <point x="155" y="-12" type="curve" smooth="yes"/>
      <point x="222" y="-12"/>
      <point x="268" y="30"/>
      <point x="273" y="143" type="curve"/>
      <point x="265" y="143" type="line"/>
      <point x="271" y="22"/>
      <point x="316" y="-12"/>
    </contour>
  </outline>
</glyph>
<glyph name="yatelu" format="2">
  <advance width="931"/>
  <unicode hex="0C2F"/>
  <outline>
    <contour>
      <point x="40" y="240" type="curve" smooth="yes"/>
      <point x="40" y="80"/>
      <point x="96" y="-12"/>
      <point x="212" y="-12" type="curve" smooth="yes"/>
      <point x="330" y="-12"/>
      <point x="386" y="84"/>
      <point x="386" y="238" type="curve" smooth="yes"/>
      <point x="386" y="406"/>
      <point x="318" y="493"/>
      <point x="213" y="493" type="curve" smooth="yes"/>
      <point x="110" y="493"/>
      <point x="40" y="403"/>
    </contour>
    <contour>
      <point x="67" y="239" type="curve" smooth="yes"/>
      <point x="67" y="367"/>
      <point x="111" y="467"/>
      <point x="213" y="467" type="curve" smooth="yes"/>
      <point x="307" y="467"/>
      <point x="359" y="385"/>
      <point x="359" y="238" type="curve" smooth="yes"/>
      <point x="359" y="99"/>
      <point x="315" y="14"/>
      <point x="212" y="14" type="curve" smooth="yes"/>
      <point x="113" y="14"/>
      <point x="67" y="91"/>
    </contour>
    <contour>
      <point x="516" y="-12" type="curve" smooth="yes"/>
      <point x="590" y="-12"/>
      <point x="635" y="41"/>
      <point x="635" y="159" type="curve" smooth="yes"/>
      <point x="635" y="335"/>
      <point x="547" y="434"/>
      <point x="458" y="491" type="curve"/>
      <point x="443" y="473" type="line"/>
      <point x="534" y="413"/>
      <point x="608" y="316"/>
      <point x="608" y="159" type="curve" smooth="yes"/>
      <point x="608" y="65"/>
      <point x="582" y="14"/>
      <point x="516" y="14" type="curve" smooth="yes"/>
      <point x="456" y="14"/>
      <point x="410" y="50"/>
      <point x="365" y="132" type="curve"/>
      <point x="351" y="108" type="line"/>
      <point x="400" y="22"/>
      <point x="451" y="-12"/>
    </contour>
    <contour>
      <point x="772" y="-12" type="curve" smooth="yes"/>
      <point x="846" y="-12"/>
      <point x="891" y="41"/>
      <point x="891" y="159" type="curve" smooth="yes"/>
      <point x="891" y="335"/>
      <point x="803" y="434"/>
      <point x="713" y="494" type="curve"/>
      <point x="698" y="472" type="line"/>
      <point x="790" y="413"/>
      <point x="864" y="316"/>
      <point x="864" y="159" type="curve" smooth="yes"/>
      <point x="864" y="65"/>
      <point x="838" y="14"/>
      <point x="772" y="14" type="curve" smooth="yes"/>
      <point x="712" y="14"/>
      <point x="669" y="49"/>
      <point x="627" y="122" type="curve"/>
      <point x="608" y="107" type="line"/>
      <point x="657" y="21"/>
      <point x="707" y="-12"/>
    </contour>
    <component base="hattelu" xOffset="354"/>
  </outline>
</glyph>
<glyph name="rratelu" format="2">
  <advance width="591"/>
  <unicode hex="0C31"/>
  <outline>
    <contour>
      <point x="408" y="-12" type="curve" smooth="yes"/>
      <point x="492" y="-12"/>
      <point x="545" y="60"/>
      <point x="545" y="250" type="curve" smooth="yes"/>
      <point x="545" y="425"/>
      <point x="491" y="493"/>
      <point x="424" y="493" type="curve" smooth="yes"/>
      <point x="370" y="493"/>
      <point x="341" y="445"/>
      <point x="341" y="393" type="curve" smooth="yes"/>
      <point x="341" y="317"/>
      <point x="387" y="274"/>
      <point x="436" y="240" type="curve"/>
      <point x="434" y="254" type="line"/>
      <point x="211" y="254" type="line"/>
      <point x="211" y="229" type="line"/>
      <point x="457" y="229" type="line"/>
      <point x="457" y="253" type="line"/>
      <point x="413" y="281"/>
      <point x="368" y="324"/>
      <point x="368" y="391" type="curve" smooth="yes"/>
      <point x="368" y="434"/>
      <point x="389" y="467"/>
      <point x="424" y="467" type="curve" smooth="yes"/>
      <point x="480" y="467"/>
      <point x="518" y="398"/>
      <point x="518" y="249" type="curve" smooth="yes"/>
      <point x="518" y="80"/>
      <point x="475" y="14"/>
      <point x="407" y="14" type="curve" smooth="yes"/>
      <point x="338" y="14"/>
      <point x="315" y="70"/>
      <point x="307" y="168" type="curve"/>
      <point x="283" y="168" type="line"/>
      <point x="275" y="70"/>
      <point x="252" y="14"/>
      <point x="183" y="14" type="curve" smooth="yes"/>
      <point x="102" y="14"/>
      <point x="72" y="107"/>
      <point x="72" y="227" type="curve" smooth="yes"/>
      <point x="72" y="253" type="line" smooth="yes"/>
      <point x="72" y="407"/>
      <point x="115" y="467"/>
      <point x="166" y="467" type="curve" smooth="yes"/>
      <point x="199" y="467"/>
      <point x="220" y="438"/>
      <point x="220" y="382" type="curve" smooth="yes"/>
      <point x="220" y="321"/>
      <point x="194" y="290"/>
      <point x="144" y="290" type="curve" smooth="yes"/>
      <point x="109" y="290"/>
      <point x="83" y="305"/>
      <point x="62" y="326" type="curve"/>
      <point x="56" y="299" type="line"/>
      <point x="75" y="281"/>
      <point x="108" y="264"/>
      <point x="146" y="264" type="curve" smooth="yes"/>
      <point x="206" y="264"/>
      <point x="247" y="306"/>
      <point x="247" y="382" type="curve" smooth="yes"/>
      <point x="247" y="457"/>
      <point x="210" y="493"/>
      <point x="166" y="493" type="curve" smooth="yes"/>
      <point x="106" y="493"/>
      <point x="46" y="440"/>
      <point x="46" y="242" type="curve" smooth="yes"/>
      <point x="46" y="67"/>
      <point x="97" y="-12"/>
      <point x="182" y="-12" type="curve" smooth="yes"/>
      <point x="243" y="-12"/>
      <point x="290" y="13"/>
      <point x="299" y="143" type="curve"/>
      <point x="291" y="143" type="line"/>
      <point x="300" y="13"/>
      <point x="347" y="-12"/>
    </contour>
  </outline>
</glyph>
<glyph name="latelu" format="2">
  <advance width="497"/>
  <unicode hex="0C32"/>
  <outline>
    <contour>
      <point x="249" y="-12" type="curve" smooth="yes"/>
      <point x="391" y="-12"/>
      <point x="457" y="89"/>
      <point x="457" y="239" type="curve" smooth="yes"/>
      <point x="457" y="349"/>
      <point x="408" y="437"/>
      <point x="331" y="494" type="curve"/>
      <point x="316" y="472" type="line"/>
      <point x="387" y="421"/>
      <point x="430" y="339"/>
      <point x="430" y="239" type="curve" smooth="yes"/>
      <point x="430" y="100"/>
      <point x="375" y="14"/>
      <point x="248" y="14" type="curve" smooth="yes"/>
      <point x="138" y="14"/>
      <point x="67" y="94"/>
      <point x="67" y="256" type="curve" smooth="yes"/>
      <point x="67" y="280" type="line" smooth="yes"/>
      <point x="67" y="401"/>
      <point x="105" y="468"/>
      <point x="155" y="468" type="curve" smooth="yes"/>
      <point x="190" y="468"/>
      <point x="211" y="438"/>
      <point x="211" y="382" type="curve" smooth="yes"/>
      <point x="211" y="321"/>
      <point x="185" y="290"/>
      <point x="136" y="290" type="curve" smooth="yes"/>
      <point x="104" y="290"/>
      <point x="80" y="301"/>
      <point x="54" y="327" type="curve"/>
      <point x="46" y="303" type="line"/>
      <point x="68" y="280"/>
      <point x="102" y="265"/>
      <point x="137" y="265" type="curve" smooth="yes"/>
      <point x="197" y="265"/>
      <point x="238" y="306"/>
      <point x="238" y="382" type="curve" smooth="yes"/>
      <point x="238" y="455"/>
      <point x="202" y="493"/>
      <point x="156" y="493" type="curve" smooth="yes"/>
      <point x="93" y="493"/>
      <point x="40" y="429"/>
      <point x="40" y="266" type="curve" smooth="yes"/>
      <point x="40" y="81"/>
      <point x="120" y="-12"/>
    </contour>
  </outline>
</glyph>
<glyph name="lllatelu" format="2">
  <advance width="580"/>
  <unicode hex="0C34"/>
  <outline>
    <contour>
      <point x="403" y="-12" type="curve" smooth="yes"/>
      <point x="487" y="-12"/>
      <point x="535" y="66"/>
      <point x="535" y="222" type="curve" smooth="yes"/>
      <point x="535" y="432"/>
      <point x="460" y="493"/>
      <point x="398" y="493" type="curve" smooth="yes"/>
      <point x="349" y="493"/>
      <point x="312" y="457"/>
      <point x="312" y="382" type="curve" smooth="yes"/>
      <point x="312" y="306"/>
      <point x="353" y="264"/>
      <point x="413" y="264" type="curve" smooth="yes"/>
      <point x="454" y="264"/>
      <point x="493" y="280"/>
      <point x="514" y="303" type="curve"/>
      <point x="505" y="327" type="line"/>
      <point x="479" y="301"/>
      <point x="450" y="290"/>
      <point x="414" y="290" type="curve" smooth="yes"/>
      <point x="365" y="290"/>
      <point x="339" y="321"/>
      <point x="339" y="382" type="curve" smooth="yes"/>
      <point x="339" y="438"/>
      <point x="360" y="467"/>
      <point x="398" y="467" type="curve" smooth="yes"/>
      <point x="463" y="467"/>
      <point x="509" y="382"/>
      <point x="509" y="237" type="curve" smooth="yes"/>
      <point x="509" y="207" type="line" smooth="yes"/>
      <point x="509" y="107"/>
      <point x="483" y="14"/>
      <point x="402" y="14" type="curve" smooth="yes"/>
      <point x="333" y="14"/>
      <point x="310" y="70"/>
      <point x="302" y="168" type="curve"/>
      <point x="278" y="168" type="line"/>
      <point x="270" y="70"/>
      <point x="247" y="14"/>
      <point x="178" y="14" type="curve" smooth="yes"/>
      <point x="97" y="14"/>
      <point x="71" y="107"/>
      <point x="71" y="207" type="curve" smooth="yes"/>
      <point x="71" y="237" type="line" smooth="yes"/>
      <point x="71" y="382"/>
      <point x="117" y="467"/>
      <point x="186" y="467" type="curve" smooth="yes"/>
      <point x="220" y="467"/>
      <point x="241" y="438"/>
      <point x="241" y="382" type="curve" smooth="yes"/>
      <point x="241" y="321"/>
      <point x="215" y="290"/>
      <point x="166" y="290" type="curve" smooth="yes"/>
      <point x="130" y="290"/>
      <point x="101" y="301"/>
      <point x="75" y="327" type="curve"/>
      <point x="66" y="303" type="line"/>
      <point x="87" y="280"/>
      <point x="126" y="264"/>
      <point x="167" y="264" type="curve" smooth="yes"/>
      <point x="227" y="264"/>
      <point x="268" y="306"/>
      <point x="268" y="382" type="curve" smooth="yes"/>
      <point x="268" y="457"/>
      <point x="231" y="493"/>
      <point x="186" y="493" type="curve" smooth="yes"/>
      <point x="120" y="493"/>
      <point x="45" y="432"/>
      <point x="45" y="222" type="curve" smooth="yes"/>
      <point x="45" y="66"/>
      <point x="93" y="-12"/>
      <point x="177" y="-12" type="curve" smooth="yes"/>
      <point x="238" y="-12"/>
      <point x="285" y="13"/>
      <point x="294" y="143" type="curve"/>
      <point x="286" y="143" type="line"/>
      <point x="295" y="13"/>
      <point x="342" y="-12"/>
    </contour>
  </outline>
</glyph>
<glyph name="avagrahatelu" format="2">
  <advance width="418"/>
  <unicode hex="0C3D"/>
  <outline>
    <contour>
      <point x="143" y="493" type="curve" smooth="yes"/>
      <point x="75" y="493"/>
      <point x="41" y="440"/>
      <point x="41" y="384" type="curve" smooth="yes"/>
      <point x="41" y="358"/>
      <point x="47" y="333"/>
      <point x="52" y="315" type="curve"/>
      <point x="78" y="321" type="line"/>
      <point x="72" y="341"/>
      <point x="68" y="359"/>
      <point x="68" y="384" type="curve" smooth="yes"/>
      <point x="68" y="432"/>
      <point x="93" y="467"/>
      <point x="143" y="467" type="curve" smooth="yes"/>
      <point x="199" y="467"/>
      <point x="214" y="420"/>
      <point x="214" y="385" type="curve" smooth="yes"/>
      <point x="214" y="336"/>
      <point x="195" y="304"/>
      <point x="145" y="269" type="curve" smooth="yes"/>
      <point x="83" y="226"/>
      <point x="48" y="182"/>
      <point x="48" y="116" type="curve" smooth="yes"/>
      <point x="48" y="78"/>
      <point x="61" y="50"/>
      <point x="80" y="33" type="curve" smooth="yes"/>
      <point x="104" y="11"/>
      <point x="140" y="0"/>
      <point x="206" y="0" type="curve" smooth="yes"/>
      <point x="403" y="0" type="line"/>
      <point x="403" y="26" type="line"/>
      <point x="209" y="26" type="line" smooth="yes"/>
      <point x="152" y="26"/>
      <point x="120" y="33"/>
      <point x="99" y="52" type="curve" smooth="yes"/>
      <point x="84" y="66"/>
      <point x="75" y="86"/>
      <point x="75" y="116" type="curve" smooth="yes"/>
      <point x="75" y="172"/>
      <point x="104" y="209"/>
      <point x="159" y="247" type="curve" smooth="yes"/>
      <point x="217" y="287"/>
      <point x="241" y="324"/>
      <point x="241" y="386" type="curve" smooth="yes"/>
      <point x="241" y="435"/>
      <point x="217" y="493"/>
    </contour>
  </outline>
</glyph>
<glyph name="aavowelsigntelu" format="2">
  <advance width="162"/>
  <unicode hex="0C3E"/>
  <outline>
    <contour>
      <point x="57" y="263" type="curve" smooth="yes"/>
      <point x="105" y="263"/>
      <point x="145" y="292"/>
      <point x="145" y="366" type="curve" smooth="yes"/>
      <point x="145" y="405"/>
      <point x="132" y="438"/>
      <point x="107" y="460" type="curve" smooth="yes"/>
      <point x="84" y="480"/>
      <point x="53" y="493"/>
      <point x="-6" y="493" type="curve" smooth="yes"/>
      <point x="-479" y="493" type="line"/>
      <point x="-479" y="468" type="line"/>
      <point x="2" y="468" type="line" smooth="yes"/>
      <point x="82" y="468"/>
      <point x="119" y="430"/>
      <point x="119" y="366" type="curve" smooth="yes"/>
      <point x="119" y="310"/>
      <point x="93" y="288"/>
      <point x="57" y="288" type="curve" smooth="yes"/>
      <point x="21" y="288"/>
      <point x="-9" y="307"/>
      <point x="-9" y="365" type="curve" smooth="yes"/>
      <point x="-9" y="406"/>
      <point x="7" y="441"/>
      <point x="36" y="478" type="curve"/>
      <point x="12" y="485" type="line"/>
      <point x="-18" y="448"/>
      <point x="-35" y="410"/>
      <point x="-35" y="364" type="curve" smooth="yes"/>
      <point x="-35" y="300"/>
      <point x="1" y="263"/>
    </contour>
  </outline>
</glyph>
<glyph name="ivowelsigntelu" format="2">
  <unicode hex="0C3F"/>
  <outline>
    <contour>
      <point x="-299" y="468" type="curve" smooth="yes"/>
      <point x="-233" y="468"/>
      <point x="-182" y="503"/>
      <point x="-182" y="610" type="curve" smooth="yes"/>
      <point x="-182" y="711"/>
      <point x="-227" y="769"/>
      <point x="-292" y="769" type="curve" smooth="yes"/>
      <point x="-343" y="769"/>
      <point x="-384" y="730"/>
      <point x="-384" y="674" type="curve" smooth="yes"/>
      <point x="-384" y="610"/>
      <point x="-342" y="580"/>
      <point x="-297" y="580" type="curve" smooth="yes"/>
      <point x="-243" y="580"/>
      <point x="-211" y="604"/>
      <point x="-190" y="638" type="curve"/>
      <point x="-198" y="660" type="line"/>
      <point x="-226" y="621"/>
      <point x="-254" y="605"/>
      <point x="-296" y="605" type="curve" smooth="yes"/>
      <point x="-327" y="605"/>
      <point x="-357" y="623"/>
      <point x="-357" y="674" type="curve" smooth="yes"/>
      <point x="-357" y="715"/>
      <point x="-333" y="744"/>
      <point x="-292" y="744" type="curve" smooth="yes"/>
      <point x="-239" y="744"/>
      <point x="-207" y="691"/>
      <point x="-207" y="615" type="curve" smooth="yes"/>
      <point x="-207" y="611" type="line" smooth="yes"/>
      <point x="-207" y="519"/>
      <point x="-246" y="493"/>
      <point x="-299" y="493" type="curve" smooth="yes"/>
      <point x="-323" y="493"/>
      <point x="-345" y="496"/>
      <point x="-365" y="505" type="curve"/>
      <point x="-374" y="482" type="line"/>
      <point x="-351" y="472"/>
      <point x="-326" y="468"/>
    </contour>
  </outline>
</glyph>
<glyph name="iivowelsigntelu" format="2">
  <unicode hex="0C40"/>
  <outline>
    <contour>
      <point x="-299" y="468" type="curve" smooth="yes"/>
      <point x="-233" y="468"/>
      <point x="-182" y="501"/>
      <point x="-182" y="602" type="curve" smooth="yes"/>
      <point x="-182" y="695"/>
      <point x="-227" y="751"/>
      <point x="-292" y="751" type="curve" smooth="yes"/>
      <point x="-343" y="751"/>
      <point x="-384" y="715"/>
      <point x="-384" y="662" type="curve" smooth="yes"/>
      <point x="-384" y="601"/>
      <point x="-342" y="573"/>
      <point x="-297" y="573" type="curve" smooth="yes"/>
      <point x="-243" y="573"/>
      <point x="-211" y="597"/>
      <point x="-190" y="631" type="curve"/>
      <point x="-198" y="653" type="line"/>
      <point x="-226" y="614"/>
      <point x="-254" y="598"/>
      <point x="-296" y="598" type="curve" smooth="yes"/>
      <point x="-327" y="598"/>
      <point x="-357" y="615"/>
      <point x="-357" y="662" type="curve" smooth="yes"/>
      <point x="-357" y="699"/>
      <point x="-333" y="726"/>
      <point x="-292" y="726" type="curve" smooth="yes"/>
      <point x="-239" y="726"/>
      <point x="-207" y="677"/>
      <point x="-207" y="607" type="curve" smooth="yes"/>
      <point x="-207" y="603" type="line" smooth="yes"/>
      <point x="-207" y="517"/>
      <point x="-246" y="493"/>
      <point x="-299" y="493" type="curve" smooth="yes"/>
      <point x="-323" y="493"/>
      <point x="-345" y="496"/>
      <point x="-365" y="505" type="curve"/>
      <point x="-374" y="482" type="line"/>
      <point x="-351" y="472"/>
      <point x="-326" y="468"/>
    </contour>
    <contour>
      <point x="-273" y="869" type="curve" smooth="yes"/>
      <point x="-327" y="869"/>
      <point x="-363" y="828"/>
      <point x="-363" y="781" type="curve" smooth="yes"/>
      <point x="-363" y="751"/>
      <point x="-352" y="731"/>
      <point x="-342" y="716" type="curve"/>
      <point x="-320" y="728" type="line"/>
      <point x="-328" y="741"/>
      <point x="-336" y="756"/>
      <point x="-336" y="780" type="curve" smooth="yes"/>
      <point x="-336" y="819"/>
      <point x="-309" y="844"/>
      <point x="-273" y="844" type="curve" smooth="yes"/>
      <point x="-229" y="844"/>
      <point x="-205" y="817"/>
      <point x="-195" y="772" type="curve"/>
      <point x="-169" y="779" type="line"/>
      <point x="-181" y="825"/>
      <point x="-208" y="869"/>
    </contour>
  </outline>
</glyph>
<glyph name="uvowelsigntelu" format="2">
  <advance width="256"/>
  <unicode hex="0C41"/>
  <outline>
    <contour>
      <point x="97" y="-12" type="curve" smooth="yes"/>
      <point x="171" y="-12"/>
      <point x="216" y="41"/>
      <point x="216" y="159" type="curve" smooth="yes"/>
      <point x="216" y="335"/>
      <point x="128" y="434"/>
      <point x="38" y="494" type="curve"/>
      <point x="23" y="472" type="line"/>
      <point x="115" y="413"/>
      <point x="189" y="316"/>
      <point x="189" y="159" type="curve" smooth="yes"/>
      <point x="189" y="65"/>
      <point x="163" y="14"/>
      <point x="97" y="14" type="curve" smooth="yes"/>
      <point x="37" y="14"/>
      <point x="-6" y="49"/>
      <point x="-48" y="122" type="curve"/>
      <point x="-67" y="107" type="line"/>
      <point x="-18" y="21"/>
      <point x="32" y="-12"/>
    </contour>
  </outline>
</glyph>
<glyph name="uuvowelsigntelu" format="2">
  <advance width="456"/>
  <unicode hex="0C42"/>
  <outline>
    <contour>
      <point x="97" y="-12" type="curve" smooth="yes"/>
      <point x="171" y="-12"/>
      <point x="216" y="42"/>
      <point x="216" y="156" type="curve" smooth="yes"/>
      <point x="216" y="319"/>
      <point x="143" y="417"/>
      <point x="56" y="476" type="curve"/>
      <point x="54" y="483" type="line"/>
      <point x="49" y="487"/>
      <point x="41" y="490"/>
      <point x="36" y="493" type="curve"/>
      <point x="25" y="471" type="line"/>
      <point x="116" y="411"/>
      <point x="189" y="316"/>
      <point x="189" y="156" type="curve" smooth="yes"/>
      <point x="189" y="65"/>
      <point x="163" y="14"/>
      <point x="97" y="14" type="curve" smooth="yes"/>
      <point x="37" y="14"/>
      <point x="-6" y="49"/>
      <point x="-48" y="122" type="curve"/>
      <point x="-67" y="107" type="line"/>
      <point x="-18" y="21"/>
      <point x="32" y="-12"/>
    </contour>
    <contour>
      <point x="351" y="263" type="curve" smooth="yes"/>
      <point x="399" y="263"/>
      <point x="439" y="292"/>
      <point x="439" y="366" type="curve" smooth="yes"/>
      <point x="439" y="405"/>
      <point x="426" y="438"/>
      <point x="401" y="460" type="curve" smooth="yes"/>
      <point x="378" y="480"/>
      <point x="347" y="493"/>
      <point x="288" y="493" type="curve" smooth="yes"/>
      <point x="36" y="493" type="line"/>
      <point x="41" y="468" type="line"/>
      <point x="296" y="468" type="line" smooth="yes"/>
      <point x="376" y="468"/>
      <point x="413" y="430"/>
      <point x="413" y="366" type="curve" smooth="yes"/>
      <point x="413" y="310"/>
      <point x="387" y="288"/>
      <point x="351" y="288" type="curve" smooth="yes"/>
      <point x="315" y="288"/>
      <point x="285" y="307"/>
      <point x="285" y="365" type="curve" smooth="yes"/>
      <point x="285" y="406"/>
      <point x="301" y="441"/>
      <point x="330" y="478" type="curve"/>
      <point x="306" y="485" type="line"/>
      <point x="276" y="448"/>
      <point x="259" y="410"/>
      <point x="259" y="364" type="curve" smooth="yes"/>
      <point x="259" y="300"/>
      <point x="295" y="263"/>
    </contour>
  </outline>
</glyph>
<glyph name="rvocalicvowelsigntelu" format="2">
  <advance width="281"/>
  <unicode hex="0C43"/>
  <outline>
    <contour>
      <point x="72" y="-369" type="curve" smooth="yes"/>
      <point x="173" y="-369"/>
      <point x="267" y="-312"/>
      <point x="267" y="-82" type="curve" smooth="yes"/>
      <point x="267" y="191"/>
      <point x="128" y="378"/>
      <point x="-14" y="493" type="curve"/>
      <point x="-30" y="474" type="line"/>
      <point x="123" y="347"/>
      <point x="240" y="160"/>
      <point x="240" y="-83" type="curve" smooth="yes"/>
      <point x="240" y="-298"/>
      <point x="153" y="-343"/>
      <point x="72" y="-343" type="curve" smooth="yes"/>
      <point x="-6" y="-343"/>
      <point x="-55" y="-292"/>
      <point x="-55" y="-204" type="curve" smooth="yes"/>
      <point x="-55" y="-187" type="line" smooth="yes"/>
      <point x="-55" y="-114"/>
      <point x="-28" y="-60"/>
      <point x="23" y="-60" type="curve" smooth="yes"/>
      <point x="54" y="-60"/>
      <point x="81" y="-83"/>
      <point x="81" y="-136" type="curve" smooth="yes"/>
      <point x="81" y="-184"/>
      <point x="57" y="-211"/>
      <point x="7" y="-211" type="curve" smooth="yes"/>
      <point x="-22" y="-211"/>
      <point x="-44" y="-204"/>
      <point x="-68" y="-183" type="curve"/>
      <point x="-67" y="-211" type="line"/>
      <point x="-46" y="-230"/>
      <point x="-17" y="-236"/>
      <point x="9" y="-236" type="curve" smooth="yes"/>
      <point x="70" y="-236"/>
      <point x="107" y="-202"/>
      <point x="107" y="-134" type="curve" smooth="yes"/>
      <point x="107" y="-75"/>
      <point x="75" y="-35"/>
      <point x="23" y="-35" type="curve" smooth="yes"/>
      <point x="-33" y="-35"/>
      <point x="-80" y="-87"/>
      <point x="-80" y="-190" type="curve" smooth="yes"/>
      <point x="-80" y="-314"/>
      <point x="-12" y="-369"/>
    </contour>
  </outline>
</glyph>
<glyph name="rrvocalicvowelsigntelu" format="2">
  <advance width="441"/>
  <unicode hex="0C44"/>
  <outline>
    <contour>
      <point x="82" y="-369" type="curve" smooth="yes"/>
      <point x="183" y="-369"/>
      <point x="277" y="-312"/>
      <point x="277" y="-82" type="curve" smooth="yes"/>
      <point x="277" y="178"/>
      <point x="152" y="360"/>
      <point x="14" y="475" type="curve"/>
      <point x="10" y="482" type="line"/>
      <point x="5" y="486"/>
      <point x="7" y="489"/>
      <point x="2" y="493" type="curve"/>
      <point x="-12" y="468" type="line"/>
      <point x="135" y="340"/>
      <point x="250" y="160"/>
      <point x="250" y="-83" type="curve" smooth="yes"/>
      <point x="250" y="-298"/>
      <point x="163" y="-343"/>
      <point x="82" y="-343" type="curve" smooth="yes"/>
      <point x="4" y="-343"/>
      <point x="-45" y="-292"/>
      <point x="-45" y="-204" type="curve" smooth="yes"/>
      <point x="-45" y="-187" type="line" smooth="yes"/>
      <point x="-45" y="-114"/>
      <point x="-18" y="-60"/>
      <point x="33" y="-60" type="curve" smooth="yes"/>
      <point x="64" y="-60"/>
      <point x="91" y="-83"/>
      <point x="91" y="-136" type="curve" smooth="yes"/>
      <point x="91" y="-184"/>
      <point x="67" y="-211"/>
      <point x="17" y="-211" type="curve" smooth="yes"/>
      <point x="-12" y="-211"/>
      <point x="-34" y="-204"/>
      <point x="-58" y="-183" type="curve"/>
      <point x="-57" y="-211" type="line"/>
      <point x="-36" y="-230"/>
      <point x="-7" y="-236"/>
      <point x="19" y="-236" type="curve" smooth="yes"/>
      <point x="80" y="-236"/>
      <point x="117" y="-202"/>
      <point x="117" y="-134" type="curve" smooth="yes"/>
      <point x="117" y="-75"/>
      <point x="85" y="-35"/>
      <point x="33" y="-35" type="curve" smooth="yes"/>
      <point x="-23" y="-35"/>
      <point x="-70" y="-87"/>
      <point x="-70" y="-190" type="curve" smooth="yes"/>
      <point x="-70" y="-314"/>
      <point x="-2" y="-369"/>
    </contour>
    <contour>
      <point x="336" y="263" type="curve" smooth="yes"/>
      <point x="384" y="263"/>
      <point x="424" y="292"/>
      <point x="424" y="366" type="curve" smooth="yes"/>
      <point x="424" y="405"/>
      <point x="411" y="438"/>
      <point x="386" y="460" type="curve" smooth="yes"/>
      <point x="363" y="480"/>
      <point x="332" y="493"/>
      <point x="273" y="493" type="curve" smooth="yes"/>
      <point x="2" y="493" type="line"/>
      <point x="10" y="471" type="line"/>
      <point x="39" y="468"/>
      <point x="67" y="468"/>
      <point x="96" y="468" type="curve" smooth="yes"/>
      <point x="281" y="468" type="line" smooth="yes"/>
      <point x="361" y="468"/>
      <point x="398" y="430"/>
      <point x="398" y="366" type="curve" smooth="yes"/>
      <point x="398" y="310"/>
      <point x="372" y="288"/>
      <point x="336" y="288" type="curve" smooth="yes"/>
      <point x="300" y="288"/>
      <point x="270" y="307"/>
      <point x="270" y="365" type="curve" smooth="yes"/>
      <point x="270" y="406"/>
      <point x="286" y="441"/>
      <point x="315" y="478" type="curve"/>
      <point x="291" y="485" type="line"/>
      <point x="261" y="448"/>
      <point x="244" y="410"/>
      <point x="244" y="364" type="curve" smooth="yes"/>
      <point x="244" y="300"/>
      <point x="280" y="263"/>
    </contour>
  </outline>
</glyph>
<glyph name="evowelsigntelu" format="2">
  <unicode hex="0C46"/>
  <outline>
    <contour>
      <point x="-115" y="571" type="curve" smooth="yes"/>
      <point x="-115" y="599"/>
      <point x="-124" y="624"/>
      <point x="-143" y="642" type="curve" smooth="yes"/>
      <point x="-165" y="663"/>
      <point x="-196" y="673"/>
      <point x="-255" y="673" type="curve" smooth="yes"/>
      <point x="-467" y="673" type="line"/>
      <point x="-467" y="648" type="line"/>
      <point x="-257" y="648" type="line" smooth="yes"/>
      <point x="-205" y="648"/>
      <point x="-180" y="641"/>
      <point x="-163" y="626" type="curve" smooth="yes"/>
      <point x="-149" y="614"/>
      <point x="-142" y="594"/>
      <point x="-142" y="570" type="curve" smooth="yes"/>
      <point x="-142" y="547"/>
      <point x="-149" y="527"/>
      <point x="-163" y="515" type="curve" smooth="yes"/>
      <point x="-180" y="500"/>
      <point x="-206" y="493"/>
      <point x="-257" y="493" type="curve" smooth="yes"/>
      <point x="-285" y="493" type="line"/>
      <point x="-285" y="469" type="line"/>
      <point x="-252" y="469" type="line" smooth="yes"/>
      <point x="-195" y="469"/>
      <point x="-165" y="478"/>
      <point x="-143" y="499" type="curve" smooth="yes"/>
      <point x="-124" y="517"/>
      <point x="-115" y="542"/>
    </contour>
  </outline>
</glyph>
<glyph name="eevowelsigntelu" format="2">
  <unicode hex="0C47"/>
  <outline>
    <contour>
      <point x="-115" y="571" type="curve" smooth="yes"/>
      <point x="-115" y="599"/>
      <point x="-124" y="624"/>
      <point x="-143" y="642" type="curve" smooth="yes"/>
      <point x="-165" y="663"/>
      <point x="-196" y="673"/>
      <point x="-255" y="673" type="curve" smooth="yes"/>
      <point x="-467" y="673" type="line"/>
      <point x="-467" y="648" type="line"/>
      <point x="-257" y="648" type="line" smooth="yes"/>
      <point x="-205" y="648"/>
      <point x="-180" y="641"/>
      <point x="-163" y="626" type="curve" smooth="yes"/>
      <point x="-149" y="614"/>
      <point x="-142" y="594"/>
      <point x="-142" y="570" type="curve" smooth="yes"/>
      <point x="-142" y="547"/>
      <point x="-149" y="527"/>
      <point x="-163" y="515" type="curve" smooth="yes"/>
      <point x="-180" y="500"/>
      <point x="-206" y="493"/>
      <point x="-257" y="493" type="curve" smooth="yes"/>
      <point x="-285" y="493" type="line"/>
      <point x="-285" y="469" type="line"/>
      <point x="-252" y="469" type="line" smooth="yes"/>
      <point x="-195" y="469"/>
      <point x="-165" y="478"/>
      <point x="-143" y="499" type="curve" smooth="yes"/>
      <point x="-124" y="517"/>
      <point x="-115" y="542"/>
    </contour>
    <contour>
      <point x="-180" y="810" type="curve" smooth="yes"/>
      <point x="-221" y="810"/>
      <point x="-268" y="780"/>
      <point x="-268" y="717" type="curve" smooth="yes"/>
      <point x="-268" y="693"/>
      <point x="-262" y="675"/>
      <point x="-250" y="656" type="curve"/>
      <point x="-224" y="658" type="line"/>
      <point x="-237" y="676"/>
      <point x="-242" y="696"/>
      <point x="-242" y="716" type="curve" smooth="yes"/>
      <point x="-242" y="763"/>
      <point x="-212" y="785"/>
      <point x="-180" y="785" type="curve" smooth="yes"/>
      <point x="-126" y="785"/>
      <point x="-113" y="746"/>
      <point x="-103" y="710" type="curve"/>
      <point x="-78" y="717" type="line"/>
      <point x="-88" y="766"/>
      <point x="-118" y="810"/>
    </contour>
  </outline>
</glyph>
<glyph name="ovowelsigntelu" format="2">
  <advance width="102"/>
  <unicode hex="0C4A"/>
  <outline>
    <contour>
      <point x="1" y="460" type="curve" smooth="yes"/>
      <point x="49" y="460"/>
      <point x="89" y="489"/>
      <point x="89" y="563" type="curve" smooth="yes"/>
      <point x="89" y="602"/>
      <point x="76" y="635"/>
      <point x="51" y="657" type="curve" smooth="yes"/>
      <point x="28" y="677"/>
      <point x="-3" y="690"/>
      <point x="-61" y="690" type="curve" smooth="yes"/>
      <point x="-76" y="690" type="line" smooth="yes"/>
      <point x="-153" y="690"/>
      <point x="-196" y="659"/>
      <point x="-208" y="591" type="curve"/>
      <point x="-206" y="591" type="line"/>
      <point x="-220" y="662"/>
      <point x="-255" y="690"/>
      <point x="-305" y="690" type="curve" smooth="yes"/>
      <point x="-307" y="690" type="line" smooth="yes"/>
      <point x="-366" y="690"/>
      <point x="-405" y="644"/>
      <point x="-405" y="580" type="curve" smooth="yes"/>
      <point x="-405" y="505"/>
      <point x="-364" y="469"/>
      <point x="-291" y="469" type="curve" smooth="yes"/>
      <point x="-274" y="469" type="line"/>
      <point x="-274" y="493" type="line"/>
      <point x="-295" y="493" type="line" smooth="yes"/>
      <point x="-356" y="493"/>
      <point x="-378" y="526"/>
      <point x="-378" y="579" type="curve" smooth="yes"/>
      <point x="-378" y="629"/>
      <point x="-352" y="664"/>
      <point x="-308" y="664" type="curve" smooth="yes"/>
      <point x="-306" y="664" type="line" smooth="yes"/>
      <point x="-263" y="664"/>
      <point x="-226" y="633"/>
      <point x="-219" y="551" type="curve"/>
      <point x="-195" y="551" type="line"/>
      <point x="-185" y="629"/>
      <point x="-155" y="665"/>
      <point x="-77" y="665" type="curve" smooth="yes"/>
      <point x="-54" y="665" type="line" smooth="yes"/>
      <point x="23" y="665"/>
      <point x="63" y="629"/>
      <point x="63" y="563" type="curve" smooth="yes"/>
      <point x="63" y="507"/>
      <point x="37" y="485"/>
      <point x="1" y="485" type="curve" smooth="yes"/>
      <point x="-35" y="485"/>
      <point x="-65" y="504"/>
      <point x="-65" y="562" type="curve" smooth="yes"/>
      <point x="-65" y="603"/>
      <point x="-49" y="638"/>
      <point x="-20" y="675" type="curve"/>
      <point x="-44" y="682" type="line"/>
      <point x="-74" y="645"/>
      <point x="-91" y="607"/>
      <point x="-91" y="561" type="curve" smooth="yes"/>
      <point x="-91" y="497"/>
      <point x="-55" y="460"/>
    </contour>
  </outline>
</glyph>
<glyph name="auvowelsigntelu" format="2">
  <advance width="92"/>
  <unicode hex="0C4C"/>
  <outline>
    <contour>
      <point x="-9" y="443" type="curve" smooth="yes"/>
      <point x="39" y="443"/>
      <point x="79" y="472"/>
      <point x="79" y="546" type="curve" smooth="yes"/>
      <point x="79" y="585"/>
      <point x="66" y="618"/>
      <point x="41" y="640" type="curve" smooth="yes"/>
      <point x="18" y="660"/>
      <point x="-13" y="673"/>
      <point x="-72" y="673" type="curve" smooth="yes"/>
      <point x="-419" y="673" type="line"/>
      <point x="-419" y="648" type="line"/>
      <point x="-308" y="648" type="line" smooth="yes"/>
      <point x="-256" y="648"/>
      <point x="-231" y="641"/>
      <point x="-214" y="626" type="curve" smooth="yes"/>
      <point x="-200" y="614"/>
      <point x="-193" y="594"/>
      <point x="-193" y="570" type="curve" smooth="yes"/>
      <point x="-193" y="547"/>
      <point x="-200" y="527"/>
      <point x="-214" y="515" type="curve" smooth="yes"/>
      <point x="-231" y="500"/>
      <point x="-257" y="493"/>
      <point x="-308" y="493" type="curve" smooth="yes"/>
      <point x="-346" y="493" type="line"/>
      <point x="-346" y="469" type="line"/>
      <point x="-303" y="469" type="line" smooth="yes"/>
      <point x="-246" y="469"/>
      <point x="-216" y="478"/>
      <point x="-194" y="499" type="curve" smooth="yes"/>
      <point x="-175" y="517"/>
      <point x="-166" y="543"/>
      <point x="-166" y="571" type="curve" smooth="yes"/>
      <point x="-166" y="609"/>
      <point x="-184" y="635"/>
      <point x="-212" y="648" type="curve"/>
      <point x="-64" y="648" type="line" smooth="yes"/>
      <point x="16" y="648"/>
      <point x="53" y="610"/>
      <point x="53" y="546" type="curve" smooth="yes"/>
      <point x="53" y="490"/>
      <point x="27" y="468"/>
      <point x="-9" y="468" type="curve" smooth="yes"/>
      <point x="-45" y="468"/>
      <point x="-75" y="487"/>
      <point x="-75" y="545" type="curve" smooth="yes"/>
      <point x="-75" y="586"/>
      <point x="-59" y="621"/>
      <point x="-30" y="658" type="curve"/>
      <point x="-54" y="665" type="line"/>
      <point x="-84" y="628"/>
      <point x="-101" y="590"/>
      <point x="-101" y="544" type="curve" smooth="yes"/>
      <point x="-101" y="480"/>
      <point x="-65" y="443"/>
    </contour>
  </outline>
</glyph>
<glyph name="viramatelu" format="2">
  <unicode hex="0C4D"/>
  <outline>
    <contour>
      <point x="-323" y="562" type="curve" smooth="yes"/>
      <point x="-323" y="502"/>
      <point x="-286" y="472"/>
      <point x="-207" y="469" type="curve"/>
      <point x="-206" y="469" type="line"/>
      <point x="-206" y="493" type="line"/>
      <point x="-207" y="493" type="line" smooth="yes"/>
      <point x="-237" y="493"/>
      <point x="-265" y="499"/>
      <point x="-280" y="515" type="curve" smooth="yes"/>
      <point x="-291" y="526"/>
      <point x="-296" y="542"/>
      <point x="-296" y="561" type="curve" smooth="yes"/>
      <point x="-296" y="582"/>
      <point x="-289" y="598"/>
      <point x="-276" y="610" type="curve" smooth="yes"/>
      <point x="-260" y="625"/>
      <point x="-233" y="631"/>
      <point x="-199" y="631" type="curve" smooth="yes"/>
      <point x="-128" y="631" type="line"/>
      <point x="-128" y="656" type="line"/>
      <point x="-198" y="656" type="line" smooth="yes"/>
      <point x="-245" y="656"/>
      <point x="-273" y="664"/>
      <point x="-287" y="680" type="curve" smooth="yes"/>
      <point x="-298" y="692"/>
      <point x="-303" y="707"/>
      <point x="-303" y="727" type="curve" smooth="yes"/>
      <point x="-303" y="746"/>
      <point x="-298" y="760"/>
      <point x="-284" y="774" type="curve" smooth="yes"/>
      <point x="-267" y="790"/>
      <point x="-242" y="797"/>
      <point x="-196" y="797" type="curve" smooth="yes"/>
      <point x="-9" y="797" type="line"/>
      <point x="-9" y="822" type="line"/>
      <point x="-189" y="822" type="line" smooth="yes"/>
      <point x="-245" y="822"/>
      <point x="-281" y="813"/>
      <point x="-304" y="791" type="curve" smooth="yes"/>
      <point x="-321" y="775"/>
      <point x="-330" y="754"/>
      <point x="-330" y="728" type="curve" smooth="yes"/>
      <point x="-330" y="678"/>
      <point x="-297" y="645"/>
      <point x="-238" y="636" type="curve"/>
      <point x="-236" y="649" type="line"/>
      <point x="-302" y="637"/>
      <point x="-323" y="600"/>
    </contour>
  </outline>
</glyph>
<glyph name="lengthmarktelu" format="2">
  <unicode hex="0C55"/>
  <outline>
    <contour>
      <point x="-185" y="659" type="curve" smooth="yes"/>
      <point x="-226" y="659"/>
      <point x="-273" y="629"/>
      <point x="-273" y="566" type="curve" smooth="yes"/>
      <point x="-273" y="537"/>
      <point x="-264" y="515"/>
      <point x="-246" y="491" type="curve"/>
      <point x="-223" y="499" type="line"/>
      <point x="-240" y="520"/>
      <point x="-247" y="542"/>
      <point x="-247" y="565" type="curve" smooth="yes"/>
      <point x="-247" y="612"/>
      <point x="-217" y="634"/>
      <point x="-185" y="634" type="curve" smooth="yes"/>
      <point x="-131" y="634"/>
      <point x="-118" y="595"/>
      <point x="-108" y="559" type="curve"/>
      <point x="-83" y="566" type="line"/>
      <point x="-93" y="615"/>
      <point x="-123" y="659"/>
    </contour>
  </outline>
</glyph>
<glyph name="ailengthmarktelu" format="2">
  <unicode hex="0C56"/>
  <outline>
    <contour>
      <point x="-397" y="-83" type="curve" smooth="yes"/>
      <point x="-447" y="-83"/>
      <point x="-480" y="-119"/>
      <point x="-480" y="-177" type="curve" smooth="yes"/>
      <point x="-480" y="-215"/>
      <point x="-468" y="-244"/>
      <point x="-446" y="-263" type="curve" smooth="yes"/>
      <point x="-420" y="-285"/>
      <point x="-379" y="-294"/>
      <point x="-328" y="-294" type="curve" smooth="yes"/>
      <point x="-96" y="-294" type="line"/>
      <point x="-96" y="-269" type="line"/>
      <point x="-340" y="-269" type="line" smooth="yes"/>
      <point x="-420" y="-269"/>
      <point x="-454" y="-239"/>
      <point x="-454" y="-177" type="curve" smooth="yes"/>
      <point x="-454" y="-136"/>
      <point x="-433" y="-108"/>
      <point x="-396" y="-108" type="curve" smooth="yes"/>
      <point x="-368" y="-108"/>
      <point x="-339" y="-127"/>
      <point x="-339" y="-179" type="curve" smooth="yes"/>
      <point x="-339" y="-212"/>
      <point x="-353" y="-245"/>
      <point x="-380" y="-277" type="curve"/>
      <point x="-354" y="-282" type="line"/>
      <point x="-331" y="-254"/>
      <point x="-313" y="-219"/>
      <point x="-313" y="-178" type="curve" smooth="yes"/>
      <point x="-313" y="-112"/>
      <point x="-353" y="-83"/>
    </contour>
  </outline>
</glyph>
<glyph name="tsatelu" format="2">
  <advance width="533"/>
  <unicode hex="0C58"/>
  <outline>
    <contour>
      <point x="374" y="-12" type="curve" smooth="yes"/>
      <point x="452" y="-12"/>
      <point x="493" y="45"/>
      <point x="493" y="147" type="curve" smooth="yes"/>
      <point x="493" y="328"/>
      <point x="404" y="427"/>
      <point x="279" y="472" type="curve"/>
      <point x="267" y="451" type="line"/>
      <point x="374" y="413"/>
      <point x="466" y="328"/>
      <point x="466" y="149" type="curve" smooth="yes"/>
      <point x="466" y="72"/>
      <point x="442" y="14"/>
      <point x="374" y="14" type="curve" smooth="yes"/>
      <point x="310" y="14"/>
      <point x="286" y="69"/>
      <point x="278" y="168" type="curve"/>
      <point x="254" y="168" type="line"/>
      <point x="246" y="70"/>
      <point x="227" y="14"/>
      <point x="163" y="14" type="curve" smooth="yes"/>
      <point x="107" y="14"/>
      <point x="84" y="68"/>
      <point x="84" y="124" type="curve" smooth="yes"/>
      <point x="84" y="193"/>
      <point x="119" y="243"/>
      <point x="182" y="286" type="curve"/>
      <point x="182" y="311" type="line"/>
      <point x="26" y="311" type="line"/>
      <point x="26" y="286" type="line"/>
      <point x="151" y="286" type="line"/>
      <point x="152" y="290" type="line"/>
      <point x="98" y="253"/>
      <point x="57" y="203"/>
      <point x="57" y="124" type="curve" smooth="yes"/>
      <point x="57" y="51"/>
      <point x="92" y="-12"/>
      <point x="162" y="-12" type="curve" smooth="yes"/>
      <point x="217" y="-12"/>
      <point x="263" y="14"/>
      <point x="270" y="143" type="curve"/>
      <point x="262" y="143" type="line"/>
      <point x="269" y="12"/>
      <point x="322" y="-12"/>
    </contour>
    <contour>
      <point x="274" y="449" type="curve" smooth="yes"/>
      <point x="307" y="449"/>
      <point x="328" y="464"/>
      <point x="359" y="522" type="curve" smooth="yes"/>
      <point x="390" y="578" type="line" smooth="yes"/>
      <point x="428" y="647"/>
      <point x="443" y="667"/>
      <point x="490" y="671" type="curve"/>
      <point x="487" y="697" type="line"/>
      <point x="434" y="690"/>
      <point x="411" y="670"/>
      <point x="367" y="589" type="curve" smooth="yes"/>
      <point x="329" y="521" type="line" smooth="yes"/>
      <point x="306" y="481"/>
      <point x="296" y="473"/>
      <point x="274" y="473" type="curve" smooth="yes"/>
      <point x="248" y="473"/>
      <point x="231" y="494"/>
      <point x="217" y="572" type="curve"/>
      <point x="191" y="566" type="line"/>
      <point x="206" y="477"/>
      <point x="239" y="449"/>
    </contour>
    <contour>
      <point x="338" y="867" type="curve" smooth="yes"/>
      <point x="294" y="867"/>
      <point x="254" y="838"/>
      <point x="254" y="772" type="curve" smooth="yes"/>
      <point x="254" y="731"/>
      <point x="272" y="696"/>
      <point x="295" y="668" type="curve"/>
      <point x="321" y="673" type="line"/>
      <point x="294" y="705"/>
      <point x="280" y="738"/>
      <point x="280" y="771" type="curve" smooth="yes"/>
      <point x="280" y="823"/>
      <point x="309" y="842"/>
      <point x="337" y="842" type="curve" smooth="yes"/>
      <point x="374" y="842"/>
      <point x="395" y="814"/>
      <point x="395" y="773" type="curve" smooth="yes"/>
      <point x="395" y="711"/>
      <point x="361" y="681"/>
      <point x="281" y="681" type="curve" smooth="yes"/>
      <point x="57" y="681" type="line"/>
      <point x="57" y="656" type="line"/>
      <point x="269" y="656" type="line" smooth="yes"/>
      <point x="320" y="656"/>
      <point x="361" y="665"/>
      <point x="387" y="687" type="curve" smooth="yes"/>
      <point x="409" y="706"/>
      <point x="421" y="735"/>
      <point x="421" y="773" type="curve" smooth="yes"/>
      <point x="421" y="831"/>
      <point x="388" y="867"/>
    </contour>
  </outline>
</glyph>
<glyph name="dzatelu" format="2">
  <advance width="516"/>
  <unicode hex="0C59"/>
  <outline>
    <contour>
      <point x="369" y="793" type="curve" smooth="yes"/>
      <point x="325" y="793"/>
      <point x="285" y="764"/>
      <point x="285" y="698" type="curve" smooth="yes"/>
      <point x="285" y="657"/>
      <point x="303" y="622"/>
      <point x="326" y="594" type="curve"/>
      <point x="352" y="599" type="line"/>
      <point x="325" y="631"/>
      <point x="311" y="664"/>
      <point x="311" y="697" type="curve" smooth="yes"/>
      <point x="311" y="749"/>
      <point x="340" y="768"/>
      <point x="368" y="768" type="curve" smooth="yes"/>
      <point x="405" y="768"/>
      <point x="426" y="740"/>
      <point x="426" y="699" type="curve" smooth="yes"/>
      <point x="426" y="637"/>
      <point x="392" y="607"/>
      <point x="312" y="607" type="curve" smooth="yes"/>
      <point x="68" y="607" type="line"/>
      <point x="68" y="582" type="line"/>
      <point x="300" y="582" type="line" smooth="yes"/>
      <point x="351" y="582"/>
      <point x="392" y="591"/>
      <point x="418" y="613" type="curve" smooth="yes"/>
      <point x="440" y="632"/>
      <point x="452" y="661"/>
      <point x="452" y="699" type="curve" smooth="yes"/>
      <point x="452" y="757"/>
      <point x="419" y="793"/>
    </contour>
    <component base="jatelu"/>
  </outline>
</glyph>
<glyph name="llvocalictelu" format="2">
  <advance width="843"/>
  <unicode hex="0C61"/>
  <outline>
    <contour>
      <point x="395" y="-61" type="curve" smooth="yes"/>
      <point x="521" y="-61"/>
      <point x="583" y="54"/>
      <point x="583" y="208" type="curve" smooth="yes"/>
      <point x="583" y="343"/>
      <point x="535" y="427"/>
      <point x="464" y="487" type="curve"/>
      <point x="447" y="474" type="line"/>
      <point x="521" y="404"/>
      <point x="556" y="324"/>
      <point x="556" y="207" type="curve" smooth="yes"/>
      <point x="556" y="80"/>
      <point x="506" y="-35"/>
      <point x="396" y="-35" type="curve" smooth="yes"/>
      <point x="331" y="-35"/>
      <point x="303" y="12"/>
      <point x="303" y="71" type="curve" smooth="yes"/>
      <point x="303" y="124"/>
      <point x="319" y="159"/>
      <point x="361" y="233" type="curve" smooth="yes"/>
      <point x="394" y="291"/>
      <point x="411" y="332"/>
      <point x="411" y="384" type="curve" smooth="yes"/>
      <point x="411" y="442"/>
      <point x="381" y="493"/>
      <point x="320" y="493" type="curve" smooth="yes"/>
      <point x="262" y="493"/>
      <point x="221" y="448"/>
      <point x="210" y="344" type="curve"/>
      <point x="217" y="346" type="line"/>
      <point x="212" y="456"/>
      <point x="172" y="493"/>
      <point x="119" y="493" type="curve" smooth="yes"/>
      <point x="75" y="493"/>
      <point x="35" y="457"/>
      <point x="35" y="386" type="curve" smooth="yes"/>
      <point x="35" y="350"/>
      <point x="44" y="321"/>
      <point x="55" y="292" type="curve"/>
      <point x="80" y="300" type="line"/>
      <point x="69" y="327"/>
      <point x="62" y="353"/>
      <point x="62" y="386" type="curve" smooth="yes"/>
      <point x="62" y="442"/>
      <point x="87" y="467"/>
      <point x="120" y="467" type="curve" smooth="yes"/>
      <point x="166" y="467"/>
      <point x="196" y="422"/>
      <point x="203" y="315" type="curve"/>
      <point x="227" y="315" type="line"/>
      <point x="234" y="412"/>
      <point x="266" y="467"/>
      <point x="320" y="467" type="curve" smooth="yes"/>
      <point x="364" y="467"/>
      <point x="384" y="432"/>
      <point x="384" y="385" type="curve" smooth="yes"/>
      <point x="384" y="337"/>
      <point x="368" y="296"/>
      <point x="339" y="247" type="curve" smooth="yes"/>
      <point x="293" y="168"/>
      <point x="275" y="119"/>
      <point x="275" y="69" type="curve" smooth="yes"/>
      <point x="275" y="-5"/>
      <point x="320" y="-61"/>
    </contour>
    <contour>
      <point x="738" y="263" type="curve" smooth="yes"/>
      <point x="786" y="263"/>
      <point x="826" y="292"/>
      <point x="826" y="366" type="curve" smooth="yes"/>
      <point x="826" y="405"/>
      <point x="813" y="438"/>
      <point x="788" y="460" type="curve" smooth="yes"/>
      <point x="765" y="480"/>
      <point x="734" y="493"/>
      <point x="675" y="493" type="curve" smooth="yes"/>
      <point x="465" y="493" type="line"/>
      <point x="447" y="474" type="line"/>
      <point x="476" y="468" type="line"/>
      <point x="683" y="468" type="line" smooth="yes"/>
      <point x="763" y="468"/>
      <point x="800" y="430"/>
      <point x="800" y="366" type="curve" smooth="yes"/>
      <point x="800" y="310"/>
      <point x="774" y="288"/>
      <point x="738" y="288" type="curve" smooth="yes"/>
      <point x="702" y="288"/>
      <point x="672" y="307"/>
      <point x="672" y="365" type="curve" smooth="yes"/>
      <point x="672" y="406"/>
      <point x="688" y="441"/>
      <point x="717" y="478" type="curve"/>
      <point x="693" y="485" type="line"/>
      <point x="663" y="448"/>
      <point x="646" y="410"/>
      <point x="646" y="364" type="curve" smooth="yes"/>
      <point x="646" y="300"/>
      <point x="682" y="263"/>
    </contour>
  </outline>
</glyph>
<glyph name="lvocalicvowelsigntelu" format="2">
  <unicode hex="0C62"/>
  <outline>
    <contour>
      <point x="-136" y="-444" type="curve" smooth="yes"/>
      <point x="-42" y="-444"/>
      <point x="6" y="-362"/>
      <point x="6" y="-247" type="curve" smooth="yes"/>
      <point x="6" y="-178"/>
      <point x="-17" y="-116"/>
      <point x="-67" y="-66" type="curve"/>
      <point x="-87" y="-82" type="line"/>
      <point x="-42" y="-127"/>
      <point x="-20" y="-182"/>
      <point x="-20" y="-248" type="curve" smooth="yes"/>
      <point x="-20" y="-330"/>
      <point x="-52" y="-419"/>
      <point x="-135" y="-419" type="curve" smooth="yes"/>
      <point x="-170" y="-419"/>
      <point x="-202" y="-398"/>
      <point x="-202" y="-341" type="curve" smooth="yes"/>
      <point x="-202" y="-311"/>
      <point x="-194" y="-286"/>
      <point x="-169" y="-245" type="curve" smooth="yes"/>
      <point x="-143" y="-203"/>
      <point x="-131" y="-176"/>
      <point x="-131" y="-138" type="curve" smooth="yes"/>
      <point x="-131" y="-102"/>
      <point x="-153" y="-66"/>
      <point x="-197" y="-66" type="curve" smooth="yes"/>
      <point x="-243" y="-66"/>
      <point x="-268" y="-107"/>
      <point x="-276" y="-158" type="curve"/>
      <point x="-270" y="-158" type="line"/>
      <point x="-278" y="-97"/>
      <point x="-304" y="-66"/>
      <point x="-343" y="-66" type="curve" smooth="yes"/>
      <point x="-372" y="-66"/>
      <point x="-406" y="-89"/>
      <point x="-406" y="-146" type="curve" smooth="yes"/>
      <point x="-406" y="-169"/>
      <point x="-399" y="-195"/>
      <point x="-389" y="-220" type="curve"/>
      <point x="-364" y="-214" type="line"/>
      <point x="-374" y="-193"/>
      <point x="-380" y="-172"/>
      <point x="-380" y="-146" type="curve" smooth="yes"/>
      <point x="-380" y="-114"/>
      <point x="-366" y="-91"/>
      <point x="-340" y="-91" type="curve" smooth="yes"/>
      <point x="-310" y="-91"/>
      <point x="-291" y="-119"/>
      <point x="-286" y="-190" type="curve"/>
      <point x="-262" y="-190" type="line"/>
      <point x="-254" y="-124"/>
      <point x="-232" y="-91"/>
      <point x="-198" y="-91" type="curve" smooth="yes"/>
      <point x="-170" y="-91"/>
      <point x="-157" y="-113"/>
      <point x="-157" y="-138" type="curve" smooth="yes"/>
      <point x="-157" y="-169"/>
      <point x="-166" y="-193"/>
      <point x="-191" y="-233" type="curve" smooth="yes"/>
      <point x="-216" y="-273"/>
      <point x="-228" y="-306"/>
      <point x="-228" y="-342" type="curve" smooth="yes"/>
      <point x="-228" y="-411"/>
      <point x="-187" y="-444"/>
    </contour>
  </outline>
</glyph>
<glyph name="llvocalicvowelsigntelu" format="2">
  <advance width="211"/>
  <unicode hex="0C63"/>
  <outline>
    <contour>
      <point x="-136" y="-444" type="curve" smooth="yes"/>
      <point x="-42" y="-444"/>
      <point x="6" y="-362"/>
      <point x="6" y="-247" type="curve" smooth="yes"/>
      <point x="6" y="-178"/>
      <point x="-15" y="-119"/>
      <point x="-71" y="-66" type="curve"/>
      <point x="-87" y="-82" type="line"/>
      <point x="-42" y="-127"/>
      <point x="-20" y="-182"/>
      <point x="-20" y="-248" type="curve" smooth="yes"/>
      <point x="-20" y="-330"/>
      <point x="-52" y="-419"/>
      <point x="-135" y="-419" type="curve" smooth="yes"/>
      <point x="-170" y="-419"/>
      <point x="-202" y="-398"/>
      <point x="-202" y="-341" type="curve" smooth="yes"/>
      <point x="-202" y="-311"/>
      <point x="-194" y="-286"/>
      <point x="-169" y="-245" type="curve" smooth="yes"/>
      <point x="-143" y="-203"/>
      <point x="-131" y="-176"/>
      <point x="-131" y="-138" type="curve" smooth="yes"/>
      <point x="-131" y="-102"/>
      <point x="-153" y="-66"/>
      <point x="-197" y="-66" type="curve" smooth="yes"/>
      <point x="-243" y="-66"/>
      <point x="-268" y="-107"/>
      <point x="-276" y="-158" type="curve"/>
      <point x="-270" y="-158" type="line"/>
      <point x="-278" y="-97"/>
      <point x="-304" y="-66"/>
      <point x="-343" y="-66" type="curve" smooth="yes"/>
      <point x="-372" y="-66"/>
      <point x="-406" y="-89"/>
      <point x="-406" y="-146" type="curve" smooth="yes"/>
      <point x="-406" y="-169"/>
      <point x="-399" y="-195"/>
      <point x="-389" y="-220" type="curve"/>
      <point x="-364" y="-214" type="line"/>
      <point x="-374" y="-193"/>
      <point x="-380" y="-172"/>
      <point x="-380" y="-146" type="curve" smooth="yes"/>
      <point x="-380" y="-114"/>
      <point x="-366" y="-91"/>
      <point x="-340" y="-91" type="curve" smooth="yes"/>
      <point x="-310" y="-91"/>
      <point x="-291" y="-119"/>
      <point x="-286" y="-190" type="curve"/>
      <point x="-262" y="-190" type="line"/>
      <point x="-254" y="-124"/>
      <point x="-232" y="-91"/>
      <point x="-198" y="-91" type="curve" smooth="yes"/>
      <point x="-170" y="-91"/>
      <point x="-157" y="-113"/>
      <point x="-157" y="-138" type="curve" smooth="yes"/>
      <point x="-157" y="-169"/>
      <point x="-166" y="-193"/>
      <point x="-191" y="-233" type="curve" smooth="yes"/>
      <point x="-216" y="-273"/>
      <point x="-228" y="-306"/>
      <point x="-228" y="-342" type="curve" smooth="yes"/>
      <point x="-228" y="-411"/>
      <point x="-187" y="-444"/>
    </contour>
    <contour>
      <point x="134" y="-269" type="curve" smooth="yes"/>
      <point x="182" y="-269"/>
      <point x="211" y="-237"/>
      <point x="211" y="-178" type="curve" smooth="yes"/>
      <point x="211" y="-135"/>
      <point x="196" y="-106"/>
      <point x="170" y="-88" type="curve" smooth="yes"/>
      <point x="148" y="-73"/>
      <point x="122" y="-66"/>
      <point x="72" y="-66" type="curve" smooth="yes"/>
      <point x="-71" y="-66" type="line"/>
      <point x="-53" y="-91" type="line"/>
      <point x="88" y="-91" type="line" smooth="yes"/>
      <point x="161" y="-91"/>
      <point x="185" y="-127"/>
      <point x="185" y="-178" type="curve" smooth="yes"/>
      <point x="185" y="-218"/>
      <point x="172" y="-244"/>
      <point x="133" y="-244" type="curve" smooth="yes"/>
      <point x="98" y="-244"/>
      <point x="80" y="-223"/>
      <point x="80" y="-179" type="curve" smooth="yes"/>
      <point x="80" y="-141"/>
      <point x="94" y="-110"/>
      <point x="121" y="-81" type="curve"/>
      <point x="93" y="-78" type="line"/>
      <point x="76" y="-99"/>
      <point x="54" y="-133"/>
      <point x="54" y="-179" type="curve" smooth="yes"/>
      <point x="54" y="-233"/>
      <point x="81" y="-269"/>
    </contour>
  </outline>
</glyph>
<glyph name="zerotelu" format="2">
  <advance width="497"/>
  <unicode hex="0C66"/>
  <outline>
    <contour>
      <point x="54" y="310" type="curve" smooth="yes"/>
      <point x="54" y="101"/>
      <point x="121" y="-12"/>
      <point x="248" y="-12" type="curve" smooth="yes"/>
      <point x="376" y="-12"/>
      <point x="443" y="101"/>
      <point x="443" y="310" type="curve" smooth="yes"/>
      <point x="443" y="520"/>
      <point x="375" y="633"/>
      <point x="248" y="633" type="curve" smooth="yes"/>
      <point x="121" y="633"/>
      <point x="54" y="520"/>
    </contour>
    <contour>
      <point x="81" y="310" type="curve" smooth="yes"/>
      <point x="81" y="504"/>
      <point x="138" y="607"/>
      <point x="248" y="607" type="curve" smooth="yes"/>
      <point x="358" y="607"/>
      <point x="416" y="504"/>
      <point x="416" y="310" type="curve" smooth="yes"/>
      <point x="416" y="116"/>
      <point x="358" y="14"/>
      <point x="248" y="14" type="curve" smooth="yes"/>
      <point x="138" y="14"/>
      <point x="81" y="117"/>
    </contour>
  </outline>
</glyph>
<glyph name="onetelu" format="2">
  <advance width="482"/>
  <unicode hex="0C67"/>
  <outline>
    <contour>
      <point x="242" y="633" type="curve" smooth="yes"/>
      <point x="124" y="633"/>
      <point x="54" y="525"/>
      <point x="54" y="323" type="curve" smooth="yes"/>
      <point x="54" y="188"/>
      <point x="88" y="91"/>
      <point x="131" y="-8" type="curve"/>
      <point x="156" y="2" type="line"/>
      <point x="113" y="98"/>
      <point x="81" y="201"/>
      <point x="81" y="322" type="curve" smooth="yes"/>
      <point x="81" y="500"/>
      <point x="136" y="607"/>
      <point x="243" y="607" type="curve" smooth="yes"/>
      <point x="352" y="607"/>
      <point x="401" y="487"/>
      <point x="401" y="318" type="curve" smooth="yes"/>
      <point x="401" y="197"/>
      <point x="369" y="98"/>
      <point x="326" y="2" type="curve"/>
      <point x="352" y="-8" type="line"/>
      <point x="393" y="91"/>
      <point x="428" y="188"/>
      <point x="428" y="319" type="curve" smooth="yes"/>
      <point x="428" y="524"/>
      <point x="359" y="633"/>
    </contour>
  </outline>
</glyph>
<glyph name="twotelu" format="2">
  <advance width="557"/>
  <unicode hex="0C68"/>
  <outline>
    <contour>
      <point x="307" y="633" type="curve" smooth="yes"/>
      <point x="223" y="633"/>
      <point x="178" y="576"/>
      <point x="178" y="510" type="curve" smooth="yes"/>
      <point x="178" y="437"/>
      <point x="217" y="398"/>
      <point x="274" y="398" type="curve" smooth="yes"/>
      <point x="323" y="398"/>
      <point x="369" y="430"/>
      <point x="369" y="508" type="curve" smooth="yes"/>
      <point x="369" y="558"/>
      <point x="352" y="595"/>
      <point x="328" y="618" type="curve"/>
      <point x="312" y="620" type="line"/>
      <point x="301" y="615" type="line"/>
      <point x="329" y="588"/>
      <point x="342" y="548"/>
      <point x="342" y="509" type="curve" smooth="yes"/>
      <point x="342" y="449"/>
      <point x="311" y="424"/>
      <point x="273" y="424" type="curve" smooth="yes"/>
      <point x="232" y="424"/>
      <point x="205" y="450"/>
      <point x="205" y="510" type="curve" smooth="yes"/>
      <point x="205" y="567"/>
      <point x="240" y="608"/>
      <point x="308" y="608" type="curve" smooth="yes"/>
      <point x="314" y="608"/>
      <point x="321" y="608"/>
      <point x="326" y="607" type="curve"/>
      <point x="432" y="593"/>
      <point x="476" y="453"/>
      <point x="476" y="310" type="curve" smooth="yes"/>
      <point x="476" y="220"/>
      <point x="462" y="146"/>
      <point x="424" y="98" type="curve" smooth="yes"/>
      <point x="386" y="51"/>
      <point x="326" y="26"/>
      <point x="210" y="26" type="curve" smooth="yes"/>
      <point x="15" y="26" type="line"/>
      <point x="15" y="0" type="line"/>
      <point x="211" y="0" type="line" smooth="yes"/>
      <point x="340" y="0"/>
      <point x="403" y="29"/>
      <point x="447" y="84" type="curve" smooth="yes"/>
      <point x="491" y="139"/>
      <point x="503" y="220"/>
      <point x="503" y="309" type="curve" smooth="yes"/>
      <point x="503" y="493"/>
      <point x="434" y="633"/>
    </contour>
  </outline>
</glyph>
<glyph name="threetelu" format="2">
  <advance width="399"/>
  <unicode hex="0C69"/>
  <outline>
    <contour>
      <point x="195" y="-12" type="curve" smooth="yes"/>
      <point x="299" y="-12"/>
      <point x="351" y="50"/>
      <point x="351" y="152" type="curve" smooth="yes"/>
      <point x="351" y="247"/>
      <point x="294" y="305"/>
      <point x="187" y="313" type="curve"/>
      <point x="186" y="306" type="line"/>
      <point x="294" y="312"/>
      <point x="351" y="370"/>
      <point x="351" y="472" type="curve" smooth="yes"/>
      <point x="351" y="566"/>
      <point x="297" y="633"/>
      <point x="192" y="633" type="curve" smooth="yes"/>
      <point x="128" y="633"/>
      <point x="72" y="609"/>
      <point x="12" y="564" type="curve"/>
      <point x="25" y="541" type="line"/>
      <point x="86" y="585"/>
      <point x="133" y="607"/>
      <point x="192" y="607" type="curve" smooth="yes"/>
      <point x="275" y="607"/>
      <point x="324" y="558"/>
      <point x="324" y="472" type="curve" smooth="yes"/>
      <point x="324" y="425"/>
      <point x="310" y="386"/>
      <point x="281" y="362" type="curve" smooth="yes"/>
      <point x="246" y="333"/>
      <point x="208" y="324"/>
      <point x="141" y="324" type="curve" smooth="yes"/>
      <point x="128" y="324" type="line"/>
      <point x="128" y="298" type="line"/>
      <point x="138" y="298" type="line" smooth="yes"/>
      <point x="198" y="298"/>
      <point x="240" y="287"/>
      <point x="271" y="265" type="curve" smooth="yes"/>
      <point x="304" y="241"/>
      <point x="324" y="205"/>
      <point x="324" y="152" type="curve" smooth="yes"/>
      <point x="324" y="72"/>
      <point x="289" y="14"/>
      <point x="194" y="14" type="curve" smooth="yes"/>
      <point x="130" y="14"/>
      <point x="75" y="37"/>
      <point x="25" y="74" type="curve"/>
      <point x="13" y="50" type="line"/>
      <point x="63" y="15"/>
      <point x="119" y="-12"/>
    </contour>
  </outline>
</glyph>
<glyph name="fourtelu" format="2">
  <advance width="486"/>
  <unicode hex="0C6A"/>
  <outline>
    <contour>
      <point x="241" y="-12" type="curve" smooth="yes"/>
      <point x="297" y="-12"/>
      <point x="349" y="14"/>
      <point x="349" y="90" type="curve" smooth="yes"/>
      <point x="349" y="141"/>
      <point x="313" y="180"/>
      <point x="261" y="200" type="curve"/>
      <point x="251" y="207" type="line"/>
      <point x="144" y="227"/>
      <point x="72" y="281"/>
      <point x="72" y="401" type="curve" smooth="yes"/>
      <point x="72" y="497"/>
      <point x="115" y="554"/>
      <point x="189" y="612" type="curve"/>
      <point x="173" y="633" type="line"/>
      <point x="97" y="575"/>
      <point x="45" y="506"/>
      <point x="45" y="401" type="curve" smooth="yes"/>
      <point x="45" y="280"/>
      <point x="105" y="219"/>
      <point x="224" y="189" type="curve"/>
      <point x="233" y="188" type="line"/>
      <point x="293" y="168"/>
      <point x="322" y="132"/>
      <point x="322" y="90" type="curve" smooth="yes"/>
      <point x="322" y="38"/>
      <point x="291" y="14"/>
      <point x="241" y="14" type="curve" smooth="yes"/>
      <point x="193" y="14"/>
      <point x="163" y="38"/>
      <point x="163" y="89" type="curve" smooth="yes"/>
      <point x="163" y="132"/>
      <point x="191" y="170"/>
      <point x="254" y="188" type="curve"/>
      <point x="262" y="189" type="line"/>
      <point x="386" y="219"/>
      <point x="441" y="287"/>
      <point x="441" y="401" type="curve" smooth="yes"/>
      <point x="441" y="506"/>
      <point x="388" y="575"/>
      <point x="313" y="633" type="curve"/>
      <point x="297" y="612" type="line"/>
      <point x="371" y="554"/>
      <point x="414" y="496"/>
      <point x="414" y="401" type="curve" smooth="yes"/>
      <point x="414" y="281"/>
      <point x="342" y="229"/>
      <point x="234" y="206" type="curve"/>
      <point x="230" y="205"/>
      <point x="229" y="202"/>
      <point x="225" y="200" type="curve"/>
      <point x="166" y="179"/>
      <point x="136" y="141"/>
      <point x="136" y="89" type="curve" smooth="yes"/>
      <point x="136" y="18"/>
      <point x="183" y="-12"/>
    </contour>
  </outline>
</glyph>
<glyph name="fivetelu" format="2">
  <advance width="495"/>
  <unicode hex="0C6B"/>
  <outline>
    <contour>
      <point x="165" y="-12" type="curve" smooth="yes"/>
      <point x="283" y="-12"/>
      <point x="341" y="82"/>
      <point x="341" y="310" type="curve" smooth="yes"/>
      <point x="341" y="539"/>
      <point x="283" y="633"/>
      <point x="165" y="633" type="curve" smooth="yes"/>
      <point x="116" y="633"/>
      <point x="70" y="616"/>
      <point x="13" y="579" type="curve"/>
      <point x="27" y="556" type="line"/>
      <point x="72" y="587"/>
      <point x="120" y="607"/>
      <point x="165" y="607" type="curve" smooth="yes"/>
      <point x="271" y="607"/>
      <point x="315" y="515"/>
      <point x="315" y="310" type="curve" smooth="yes"/>
      <point x="315" y="106"/>
      <point x="271" y="14"/>
      <point x="165" y="14" type="curve" smooth="yes"/>
      <point x="120" y="14"/>
      <point x="72" y="34"/>
      <point x="28" y="65" type="curve"/>
      <point x="13" y="43" type="line"/>
      <point x="70" y="5"/>
      <point x="116" y="-12"/>
    </contour>
    <contour>
      <point x="449" y="177" type="curve" smooth="yes"/>
      <point x="449" y="246"/>
      <point x="431" y="301"/>
      <point x="345" y="318" type="curve"/>
      <point x="344" y="303" type="line"/>
      <point x="431" y="320"/>
      <point x="449" y="375"/>
      <point x="449" y="444" type="curve" smooth="yes"/>
      <point x="449" y="513"/>
      <point x="419" y="581"/>
      <point x="374" y="632" type="curve"/>
      <point x="352" y="618" type="line"/>
      <point x="400" y="565"/>
      <point x="423" y="502"/>
      <point x="423" y="444" type="curve" smooth="yes"/>
      <point x="423" y="373"/>
      <point x="397" y="330"/>
      <point x="333" y="323" type="curve"/>
      <point x="333" y="298" type="line"/>
      <point x="397" y="291"/>
      <point x="423" y="248"/>
      <point x="423" y="177" type="curve" smooth="yes"/>
      <point x="423" y="119"/>
      <point x="400" y="56"/>
      <point x="352" y="3" type="curve"/>
      <point x="374" y="-11" type="line"/>
      <point x="419" y="40"/>
      <point x="449" y="108"/>
    </contour>
  </outline>
</glyph>
<glyph name="sixtelu" format="2">
  <advance width="500"/>
  <unicode hex="0C6C"/>
  <outline>
    <contour>
      <point x="48" y="163" type="curve" smooth="yes"/>
      <point x="48" y="113"/>
      <point x="65" y="77"/>
      <point x="92" y="52" type="curve" smooth="yes"/>
      <point x="133" y="14"/>
      <point x="187" y="0"/>
      <point x="286" y="0" type="curve" smooth="yes"/>
      <point x="485" y="0" type="line"/>
      <point x="485" y="26" type="line"/>
      <point x="281" y="26" type="line" smooth="yes"/>
      <point x="198" y="26"/>
      <point x="147" y="36"/>
      <point x="112" y="68" type="curve" smooth="yes"/>
      <point x="89" y="89"/>
      <point x="75" y="120"/>
      <point x="75" y="163" type="curve" smooth="yes"/>
      <point x="75" y="210"/>
      <point x="92" y="241"/>
      <point x="118" y="262" type="curve" smooth="yes"/>
      <point x="151" y="288"/>
      <point x="194" y="297"/>
      <point x="261" y="297" type="curve" smooth="yes"/>
      <point x="330" y="297" type="line"/>
      <point x="330" y="323" type="line"/>
      <point x="267" y="323" type="line" smooth="yes"/>
      <point x="208" y="323"/>
      <point x="166" y="331"/>
      <point x="133" y="355" type="curve" smooth="yes"/>
      <point x="102" y="377"/>
      <point x="81" y="412"/>
      <point x="81" y="466" type="curve" smooth="yes"/>
      <point x="81" y="507"/>
      <point x="94" y="538"/>
      <point x="118" y="559" type="curve" smooth="yes"/>
      <point x="143" y="581"/>
      <point x="180" y="592"/>
      <point x="226" y="594" type="curve"/>
      <point x="227" y="594" type="line"/>
      <point x="227" y="620" type="line"/>
      <point x="226" y="620" type="line"/>
      <point x="176" y="619"/>
      <point x="133" y="605"/>
      <point x="102" y="580" type="curve" smooth="yes"/>
      <point x="72" y="555"/>
      <point x="54" y="517"/>
      <point x="54" y="466" type="curve" smooth="yes"/>
      <point x="54" y="353"/>
      <point x="135" y="311"/>
      <point x="218" y="306" type="curve"/>
      <point x="210" y="314" type="line"/>
      <point x="131" y="310"/>
      <point x="48" y="275"/>
    </contour>
  </outline>
</glyph>
<glyph name="seventelu" format="2">
  <advance width="404"/>
  <unicode hex="0C6D"/>
  <outline>
    <contour>
      <point x="203" y="-12" type="curve" smooth="yes"/>
      <point x="319" y="-12"/>
      <point x="361" y="52"/>
      <point x="361" y="138" type="curve" smooth="yes"/>
      <point x="361" y="164"/>
      <point x="356" y="196"/>
      <point x="346" y="222" type="curve"/>
      <point x="320" y="214" type="line"/>
      <point x="328" y="195"/>
      <point x="334" y="169"/>
      <point x="334" y="139" type="curve" smooth="yes"/>
      <point x="334" y="57"/>
      <point x="294" y="14"/>
      <point x="203" y="14" type="curve" smooth="yes"/>
      <point x="112" y="14"/>
      <point x="74" y="67"/>
      <point x="74" y="141" type="curve" smooth="yes"/>
      <point x="74" y="222"/>
      <point x="110" y="260"/>
      <point x="207" y="311" type="curve" smooth="yes"/>
      <point x="305" y="362"/>
      <point x="348" y="400"/>
      <point x="348" y="493" type="curve" smooth="yes"/>
      <point x="348" y="564"/>
      <point x="309" y="633"/>
      <point x="203" y="633" type="curve" smooth="yes"/>
      <point x="100" y="633"/>
      <point x="55" y="568"/>
      <point x="55" y="496" type="curve" smooth="yes"/>
      <point x="55" y="460"/>
      <point x="63" y="434"/>
      <point x="73" y="409" type="curve"/>
      <point x="99" y="417" type="line"/>
      <point x="90" y="436"/>
      <point x="82" y="465"/>
      <point x="82" y="493" type="curve" smooth="yes"/>
      <point x="82" y="559"/>
      <point x="119" y="607"/>
      <point x="204" y="607" type="curve" smooth="yes"/>
      <point x="291" y="607"/>
      <point x="321" y="552"/>
      <point x="321" y="492" type="curve" smooth="yes"/>
      <point x="321" y="412"/>
      <point x="284" y="380"/>
      <point x="195" y="335" type="curve" smooth="yes"/>
      <point x="94" y="284"/>
      <point x="47" y="234"/>
      <point x="47" y="141" type="curve" smooth="yes"/>
      <point x="47" y="58"/>
      <point x="92" y="-12"/>
    </contour>
  </outline>
</glyph>
<glyph name="eighttelu" format="2">
  <advance width="572"/>
  <unicode hex="0C6E"/>
  <outline>
    <contour>
      <point x="233" y="-12" type="curve" smooth="yes"/>
      <point x="361" y="-12"/>
      <point x="416" y="102"/>
      <point x="416" y="285" type="curve" smooth="yes"/>
      <point x="416" y="421"/>
      <point x="366" y="529"/>
      <point x="305" y="594" type="curve"/>
      <point x="557" y="594" type="line"/>
      <point x="557" y="620" type="line"/>
      <point x="282" y="620" type="line"/>
      <point x="270" y="595" type="line"/>
      <point x="347" y="518"/>
      <point x="389" y="408"/>
      <point x="389" y="283" type="curve" smooth="yes"/>
      <point x="389" y="122"/>
      <point x="345" y="14"/>
      <point x="234" y="14" type="curve" smooth="yes"/>
      <point x="118" y="14"/>
      <point x="79" y="133"/>
      <point x="79" y="272" type="curve" smooth="yes"/>
      <point x="79" y="384"/>
      <point x="115" y="477"/>
      <point x="164" y="552" type="curve"/>
      <point x="141" y="566" type="line"/>
      <point x="87" y="483"/>
      <point x="52" y="386"/>
      <point x="52" y="270" type="curve" smooth="yes"/>
      <point x="52" y="100"/>
      <point x="110" y="-12"/>
    </contour>
  </outline>
</glyph>
<glyph name="ninetelu" format="2">
  <advance width="500"/>
  <unicode hex="0C6F"/>
  <outline>
    <contour>
      <point x="54" y="154" type="curve" smooth="yes"/>
      <point x="54" y="103"/>
      <point x="72" y="65"/>
      <point x="102" y="40" type="curve" smooth="yes"/>
      <point x="133" y="15"/>
      <point x="176" y="1"/>
      <point x="226" y="0" type="curve"/>
      <point x="227" y="0" type="line"/>
      <point x="227" y="26" type="line"/>
      <point x="226" y="26" type="line"/>
      <point x="180" y="28"/>
      <point x="143" y="39"/>
      <point x="118" y="61" type="curve" smooth="yes"/>
      <point x="94" y="82"/>
      <point x="81" y="113"/>
      <point x="81" y="154" type="curve" smooth="yes"/>
      <point x="81" y="208"/>
      <point x="102" y="243"/>
      <point x="133" y="265" type="curve" smooth="yes"/>
      <point x="166" y="289"/>
      <point x="208" y="297"/>
      <point x="267" y="297" type="curve" smooth="yes"/>
      <point x="330" y="297" type="line"/>
      <point x="330" y="323" type="line"/>
      <point x="261" y="323" type="line" smooth="yes"/>
      <point x="194" y="323"/>
      <point x="151" y="332"/>
      <point x="118" y="358" type="curve" smooth="yes"/>
      <point x="92" y="379"/>
      <point x="75" y="410"/>
      <point x="75" y="457" type="curve" smooth="yes"/>
      <point x="75" y="500"/>
      <point x="89" y="531"/>
      <point x="112" y="552" type="curve" smooth="yes"/>
      <point x="147" y="584"/>
      <point x="198" y="594"/>
      <point x="281" y="594" type="curve" smooth="yes"/>
      <point x="485" y="594" type="line"/>
      <point x="485" y="620" type="line"/>
      <point x="286" y="620" type="line" smooth="yes"/>
      <point x="187" y="620"/>
      <point x="133" y="606"/>
      <point x="92" y="568" type="curve" smooth="yes"/>
      <point x="65" y="543"/>
      <point x="48" y="507"/>
      <point x="48" y="457" type="curve" smooth="yes"/>
      <point x="48" y="345"/>
      <point x="131" y="310"/>
      <point x="210" y="306" type="curve"/>
      <point x="218" y="314" type="line"/>
      <point x="135" y="309"/>
      <point x="54" y="267"/>
    </contour>
  </outline>
</glyph>
<glyph name="uni0C77" format="2">
  <advance width="863"/>
  <unicode hex="0C77"/>
  <outline>
    <contour>
      <point x="88" y="482" type="curve"/>
      <point x="62" y="484" type="line"/>
      <point x="52" y="416"/>
      <point x="49" y="366"/>
      <point x="49" y="324" type="curve" smooth="yes"/>
      <point x="49" y="-4"/>
      <point x="189" y="-194"/>
      <point x="439" y="-194" type="curve" smooth="yes"/>
      <point x="682" y="-194"/>
      <point x="814" y="-25"/>
      <point x="814" y="248" type="curve" smooth="yes"/>
      <point x="814" y="504"/>
      <point x="700" y="663"/>
      <point x="505" y="663" type="curve" smooth="yes"/>
      <point x="326" y="663"/>
      <point x="223" y="535"/>
      <point x="223" y="336" type="curve" smooth="yes"/>
      <point x="223" y="162"/>
      <point x="302" y="57"/>
      <point x="440" y="57" type="curve" smooth="yes"/>
      <point x="574" y="57"/>
      <point x="645" y="137"/>
      <point x="645" y="269" type="curve" smooth="yes"/>
      <point x="645" y="385"/>
      <point x="592" y="456"/>
      <point x="498" y="456" type="curve" smooth="yes"/>
      <point x="420" y="456"/>
      <point x="376" y="403"/>
      <point x="376" y="336" type="curve" smooth="yes"/>
      <point x="376" y="270"/>
      <point x="414" y="229"/>
      <point x="468" y="229" type="curve" smooth="yes"/>
      <point x="497" y="229"/>
      <point x="519" y="235"/>
      <point x="540" y="248" type="curve"/>
      <point x="528" y="271" type="line"/>
      <point x="509" y="260"/>
      <point x="494" y="255"/>
      <point x="467" y="255" type="curve" smooth="yes"/>
      <point x="426" y="255"/>
      <point x="403" y="288"/>
      <point x="403" y="336" type="curve" smooth="yes"/>
      <point x="403" y="391"/>
      <point x="436" y="430"/>
      <point x="499" y="430" type="curve" smooth="yes"/>
      <point x="578" y="430"/>
      <point x="618" y="369"/>
      <point x="618" y="269" type="curve" smooth="yes"/>
      <point x="618" y="150"/>
      <point x="559" y="83"/>
      <point x="440" y="83" type="curve" smooth="yes"/>
      <point x="316" y="83"/>
      <point x="250" y="177"/>
      <point x="250" y="336" type="curve" smooth="yes"/>
      <point x="250" y="522"/>
      <point x="342" y="637"/>
      <point x="505" y="637" type="curve" smooth="yes"/>
      <point x="685" y="637"/>
      <point x="787" y="488"/>
      <point x="787" y="248" type="curve" smooth="yes"/>
      <point x="787" y="-13"/>
      <point x="665" y="-168"/>
      <point x="439" y="-168" type="curve" smooth="yes"/>
      <point x="202" y="-168"/>
      <point x="75" y="14"/>
      <point x="75" y="324" type="curve" smooth="yes"/>
      <point x="75" y="377"/>
      <point x="80" y="423"/>
    </contour>
  </outline>
</glyph>
<glyph name="uni0C78" format="2">
  <advance width="435"/>
  <unicode hex="0C78"/>
  <outline>
    <contour>
      <point x="45" y="376" type="curve" smooth="yes"/>
      <point x="45" y="208"/>
      <point x="106" y="121"/>
      <point x="214" y="121" type="curve" smooth="yes"/>
      <point x="320" y="121"/>
      <point x="385" y="208"/>
      <point x="385" y="374" type="curve" smooth="yes"/>
      <point x="385" y="543"/>
      <point x="321" y="633"/>
      <point x="214" y="633" type="curve" smooth="yes"/>
      <point x="108" y="633"/>
      <point x="45" y="540"/>
    </contour>
    <contour>
      <point x="72" y="376" type="curve" smooth="yes"/>
      <point x="72" y="511"/>
      <point x="117" y="607"/>
      <point x="214" y="607" type="curve" smooth="yes"/>
      <point x="312" y="607"/>
      <point x="358" y="516"/>
      <point x="358" y="374" type="curve" smooth="yes"/>
      <point x="358" y="232"/>
      <point x="310" y="147"/>
      <point x="214" y="147" type="curve" smooth="yes"/>
      <point x="119" y="147"/>
      <point x="72" y="227"/>
    </contour>
    <contour>
      <point x="395" y="82" type="curve" smooth="yes"/>
      <point x="395" y="133"/>
      <point x="374" y="170"/>
      <point x="337" y="210" type="curve"/>
      <point x="319" y="190" type="line"/>
      <point x="350" y="157"/>
      <point x="368" y="124"/>
      <point x="368" y="81" type="curve" smooth="yes"/>
      <point x="368" y="25"/>
      <point x="347" y="-9"/>
      <point x="269" y="-55" type="curve"/>
      <point x="283" y="-77" type="line"/>
      <point x="363" y="-33"/>
      <point x="395" y="14"/>
    </contour>
  </outline>
</glyph>
<glyph name="uni0C79" format="2">
  <advance width="198"/>
  <unicode hex="0C79"/>
  <outline>
    <contour>
      <point x="112" y="0" type="line"/>
      <point x="112" y="620" type="line"/>
      <point x="86" y="620" type="line"/>
      <point x="86" y="0" type="line"/>
    </contour>
  </outline>
</glyph>
<glyph name="uni0C7A" format="2">
  <advance width="345"/>
  <unicode hex="0C7A"/>
  <outline>
    <contour>
      <point x="163" y="238" type="curve" smooth="yes"/>
      <point x="212" y="238"/>
      <point x="238" y="272"/>
      <point x="244" y="312" type="curve"/>
      <point x="248" y="368" type="line"/>
      <point x="248" y="620" type="line"/>
      <point x="234" y="620" type="line"/>
      <point x="234" y="377" type="line" smooth="yes"/>
      <point x="234" y="330"/>
      <point x="229" y="303"/>
      <point x="215" y="285" type="curve" smooth="yes"/>
      <point x="204" y="271"/>
      <point x="188" y="264"/>
      <point x="163" y="264" type="curve" smooth="yes"/>
      <point x="138" y="264"/>
      <point x="123" y="271"/>
      <point x="112" y="285" type="curve" smooth="yes"/>
      <point x="98" y="303"/>
      <point x="93" y="330"/>
      <point x="93" y="377" type="curve" smooth="yes"/>
      <point x="93" y="620" type="line"/>
      <point x="67" y="620" type="line"/>
      <point x="67" y="383" type="line" smooth="yes"/>
      <point x="67" y="333"/>
      <point x="70" y="293"/>
      <point x="94" y="265" type="curve" smooth="yes"/>
      <point x="108" y="249"/>
      <point x="128" y="238"/>
    </contour>
    <contour>
      <point x="260" y="0" type="line"/>
      <point x="260" y="620" type="line"/>
      <point x="234" y="620" type="line"/>
      <point x="234" y="0" type="line"/>
    </contour>
  </outline>
</glyph>
<glyph name="uni0C7B" format="2">
  <advance width="486"/>
  <unicode hex="0C7B"/>
  <outline>
    <contour>
      <point x="310" y="238" type="curve" smooth="yes"/>
      <point x="359" y="238"/>
      <point x="380" y="272"/>
      <point x="387" y="311" type="curve"/>
      <point x="389" y="368" type="line"/>
      <point x="389" y="620" type="line"/>
      <point x="375" y="620" type="line"/>
      <point x="375" y="370" type="line" smooth="yes"/>
      <point x="375" y="332"/>
      <point x="373" y="303"/>
      <point x="357" y="283" type="curve" smooth="yes"/>
      <point x="347" y="271"/>
      <point x="333" y="264"/>
      <point x="311" y="264" type="curve" smooth="yes"/>
      <point x="289" y="264"/>
      <point x="275" y="271"/>
      <point x="265" y="283" type="curve" smooth="yes"/>
      <point x="249" y="303"/>
      <point x="247" y="332"/>
      <point x="247" y="373" type="curve" smooth="yes"/>
      <point x="247" y="620" type="line"/>
      <point x="221" y="620" type="line"/>
      <point x="221" y="375" type="line" smooth="yes"/>
      <point x="221" y="327"/>
      <point x="226" y="290"/>
      <point x="248" y="263" type="curve" smooth="yes"/>
      <point x="261" y="248"/>
      <point x="281" y="238"/>
    </contour>
    <contour>
      <point x="401" y="0" type="line"/>
      <point x="401" y="620" type="line"/>
      <point x="375" y="620" type="line"/>
      <point x="375" y="0" type="line"/>
    </contour>
    <contour>
      <point x="156" y="238" type="curve" smooth="yes"/>
      <point x="204" y="238"/>
      <point x="227" y="270"/>
      <point x="237" y="307" type="curve"/>
      <point x="235" y="368" type="line"/>
      <point x="235" y="620" type="line"/>
      <point x="221" y="620" type="line"/>
      <point x="221" y="370" type="line" smooth="yes"/>
      <point x="221" y="332"/>
      <point x="219" y="303"/>
      <point x="203" y="283" type="curve" smooth="yes"/>
      <point x="193" y="271"/>
      <point x="179" y="264"/>
      <point x="157" y="264" type="curve" smooth="yes"/>
      <point x="135" y="264"/>
      <point x="121" y="271"/>
      <point x="111" y="283" type="curve" smooth="yes"/>
      <point x="95" y="303"/>
      <point x="93" y="332"/>
      <point x="93" y="373" type="curve" smooth="yes"/>
      <point x="93" y="620" type="line"/>
      <point x="67" y="620" type="line"/>
      <point x="67" y="372" type="line" smooth="yes"/>
      <point x="67" y="326"/>
      <point x="71" y="288"/>
      <point x="93" y="263" type="curve" smooth="yes"/>
      <point x="106" y="248"/>
      <point x="127" y="238"/>
    </contour>
  </outline>
</glyph>
<glyph name="uni0C7C" format="2">
  <advance width="443"/>
  <unicode hex="0C7C"/>
  <outline>
    <contour>
      <point x="34" y="301" type="line"/>
      <point x="409" y="301" type="line"/>
      <point x="409" y="327" type="line"/>
      <point x="34" y="327" type="line"/>
    </contour>
  </outline>
</glyph>
<glyph name="uni0C7D" format="2">
  <advance width="411"/>
  <unicode hex="0C7D"/>
  <outline>
    <contour>
      <point x="45" y="118" type="curve" smooth="yes"/>
      <point x="45" y="78"/>
      <point x="57" y="54"/>
      <point x="77" y="35" type="curve" smooth="yes"/>
      <point x="102" y="11"/>
      <point x="143" y="0"/>
      <point x="199" y="0" type="curve" smooth="yes"/>
      <point x="392" y="0" type="line"/>
      <point x="392" y="26" type="line"/>
      <point x="197" y="26" type="line" smooth="yes"/>
      <point x="105" y="26"/>
      <point x="72" y="61"/>
      <point x="72" y="119" type="curve" smooth="yes"/>
      <point x="72" y="182"/>
      <point x="110" y="207"/>
      <point x="208" y="245" type="curve" smooth="yes"/>
      <point x="288" y="276"/>
      <point x="341" y="305"/>
      <point x="341" y="386" type="curve" smooth="yes"/>
      <point x="341" y="421"/>
      <point x="330" y="448"/>
      <point x="310" y="466" type="curve" smooth="yes"/>
      <point x="285" y="489"/>
      <point x="250" y="500"/>
      <point x="188" y="500" type="curve" smooth="yes"/>
      <point x="46" y="500" type="line"/>
      <point x="46" y="474" type="line"/>
      <point x="193" y="474" type="line" smooth="yes"/>
      <point x="286" y="474"/>
      <point x="314" y="438"/>
      <point x="314" y="385" type="curve" smooth="yes"/>
      <point x="314" y="328"/>
      <point x="285" y="304"/>
      <point x="197" y="269" type="curve" smooth="yes"/>
      <point x="104" y="232"/>
      <point x="45" y="203"/>
    </contour>
  </outline>
</glyph>
<glyph name="uni0C7E" format="2">
  <advance width="411"/>
  <unicode hex="0C7E"/>
  <outline>
    <contour>
      <point x="45" y="68" type="curve" smooth="yes"/>
      <point x="45" y="46"/>
      <point x="53" y="30"/>
      <point x="66" y="19" type="curve" smooth="yes"/>
      <point x="83" y="5"/>
      <point x="107" y="0"/>
      <point x="146" y="0" type="curve" smooth="yes"/>
      <point x="392" y="0" type="line"/>
      <point x="392" y="26" type="line"/>
      <point x="141" y="26" type="line" smooth="yes"/>
      <point x="88" y="26"/>
      <point x="72" y="41"/>
      <point x="72" y="68" type="curve" smooth="yes"/>
      <point x="72" y="98"/>
      <point x="82" y="117"/>
      <point x="205" y="151" type="curve" smooth="yes"/>
      <point x="315" y="181"/>
      <point x="344" y="203"/>
      <point x="344" y="253" type="curve" smooth="yes"/>
      <point x="344" y="278"/>
      <point x="336" y="296"/>
      <point x="323" y="308" type="curve" smooth="yes"/>
      <point x="304" y="325"/>
      <point x="281" y="332"/>
      <point x="232" y="332" type="curve" smooth="yes"/>
      <point x="136" y="332" type="line" smooth="yes"/>
      <point x="86" y="332"/>
      <point x="72" y="348"/>
      <point x="72" y="372" type="curve" smooth="yes"/>
      <point x="72" y="399"/>
      <point x="82" y="418"/>
      <point x="205" y="452" type="curve" smooth="yes"/>
      <point x="315" y="482"/>
      <point x="344" y="504"/>
      <point x="344" y="554" type="curve" smooth="yes"/>
      <point x="344" y="579"/>
      <point x="336" y="597"/>
      <point x="323" y="609" type="curve" smooth="yes"/>
      <point x="304" y="626"/>
      <point x="281" y="633"/>
      <point x="232" y="633" type="curve" smooth="yes"/>
      <point x="47" y="633" type="line"/>
      <point x="47" y="607" type="line"/>
      <point x="235" y="607" type="line" smooth="yes"/>
      <point x="297" y="607"/>
      <point x="317" y="589"/>
      <point x="317" y="554" type="curve" smooth="yes"/>
      <point x="317" y="522"/>
      <point x="303" y="508"/>
      <point x="194" y="476" type="curve" smooth="yes"/>
      <point x="80" y="443"/>
      <point x="45" y="424"/>
      <point x="45" y="371" type="curve" smooth="yes"/>
      <point x="45" y="351"/>
      <point x="52" y="337"/>
      <point x="63" y="327" type="curve" smooth="yes"/>
      <point x="81" y="311"/>
      <point x="106" y="306"/>
      <point x="143" y="306" type="curve" smooth="yes"/>
      <point x="235" y="306" type="line" smooth="yes"/>
      <point x="297" y="306"/>
      <point x="317" y="288"/>
      <point x="317" y="253" type="curve" smooth="yes"/>
      <point x="317" y="221"/>
      <point x="303" y="207"/>
      <point x="194" y="175" type="curve" smooth="yes"/>
      <point x="80" y="142"/>
      <point x="45" y="123"/>
    </contour>
  </outline>
</glyph>
<glyph name="uni0C7F" format="2">
  <advance width="527"/>
  <unicode hex="0C7F"/>
  <outline>
    <contour>
      <point x="239" y="-12" type="curve" smooth="yes"/>
      <point x="388" y="-12"/>
      <point x="449" y="101"/>
      <point x="496" y="322" type="curve"/>
      <point x="471" y="329" type="line"/>
      <point x="425" y="115"/>
      <point x="371" y="14"/>
      <point x="239" y="14" type="curve" smooth="yes"/>
      <point x="136" y="14"/>
      <point x="76" y="78"/>
      <point x="76" y="250" type="curve" smooth="yes"/>
      <point x="76" y="257" type="line" smooth="yes"/>
      <point x="76" y="388"/>
      <point x="118" y="468"/>
      <point x="174" y="468" type="curve" smooth="yes"/>
      <point x="208" y="468"/>
      <point x="229" y="438"/>
      <point x="229" y="382" type="curve" smooth="yes"/>
      <point x="229" y="321"/>
      <point x="203" y="290"/>
      <point x="154" y="290" type="curve" smooth="yes"/>
      <point x="122" y="290"/>
      <point x="98" y="301"/>
      <point x="72" y="327" type="curve"/>
      <point x="64" y="303" type="line"/>
      <point x="86" y="280"/>
      <point x="120" y="265"/>
      <point x="155" y="265" type="curve" smooth="yes"/>
      <point x="215" y="265"/>
      <point x="256" y="306"/>
      <point x="256" y="382" type="curve" smooth="yes"/>
      <point x="256" y="455"/>
      <point x="220" y="493"/>
      <point x="174" y="493" type="curve" smooth="yes"/>
      <point x="110" y="493"/>
      <point x="49" y="418"/>
      <point x="49" y="252" type="curve" smooth="yes"/>
      <point x="49" y="66"/>
      <point x="119" y="-12"/>
    </contour>
  </outline>
</glyph>
<glyph name="uni1CDA" format="2">
  <unicode hex="1CDA"/>
  <outline>
    <contour>
      <point x="-317" y="604" type="line"/>
      <point x="-317" y="804" type="line"/>
      <point x="-343" y="804" type="line"/>
      <point x="-343" y="604" type="line"/>
    </contour>
    <contour>
      <point x="-229" y="604" type="line"/>
      <point x="-229" y="804" type="line"/>
      <point x="-255" y="804" type="line"/>
      <point x="-255" y="604" type="line"/>
    </contour>
  </outline>
</glyph>
<glyph name="uni1CF2" format="2">
  <advance width="343"/>
  <unicode hex="1CF2"/>
  <outline>
    <contour>
      <point x="172" y="246" type="curve" smooth="yes"/>
      <point x="251" y="246"/>
      <point x="290" y="296"/>
      <point x="313" y="422" type="curve"/>
      <point x="287" y="427" type="line"/>
      <point x="267" y="320"/>
      <point x="241" y="272"/>
      <point x="171" y="272" type="curve" smooth="yes"/>
      <point x="102" y="272"/>
      <point x="76" y="320"/>
      <point x="56" y="427" type="curve"/>
      <point x="30" y="422" type="line"/>
      <point x="53" y="296"/>
      <point x="92" y="246"/>
    </contour>
    <contour>
      <point x="171" y="177" type="curve" smooth="yes"/>
      <point x="92" y="177"/>
      <point x="53" y="127"/>
      <point x="30" y="1" type="curve"/>
      <point x="56" y="-4" type="line"/>
      <point x="76" y="103"/>
      <point x="102" y="151"/>
      <point x="172" y="151" type="curve" smooth="yes"/>
      <point x="241" y="151"/>
      <point x="267" y="103"/>
      <point x="287" y="-4" type="curve"/>
      <point x="313" y="1" type="line"/>
      <point x="290" y="127"/>
      <point x="251" y="177"/>
    </contour>
  </outline>
</glyph>
<glyph name="quoteleft.telu" format="2">
  <advance width="232"/>
  <unicode hex="2018"/>
  <outline>
    <contour>
      <point x="79" y="528" type="line"/>
      <point x="104" y="528" type="line"/>
      <point x="111" y="600"/>
      <point x="132" y="703"/>
      <point x="161" y="773" type="curve"/>
      <point x="139" y="773" type="line"/>
      <point x="109" y="704"/>
      <point x="84" y="619"/>
      <point x="73" y="537" type="curve"/>
    </contour>
  </outline>
</glyph>
<glyph name="quotedblleft.telu" format="2">
  <advance width="365"/>
  <unicode hex="201C"/>
  <outline>
    <contour>
      <point x="212" y="528" type="line"/>
      <point x="237" y="528" type="line"/>
      <point x="244" y="600"/>
      <point x="265" y="703"/>
      <point x="294" y="773" type="curve"/>
      <point x="272" y="773" type="line"/>
      <point x="242" y="704"/>
      <point x="217" y="619"/>
      <point x="206" y="537" type="curve"/>
    </contour>
    <contour>
      <point x="79" y="528" type="line"/>
      <point x="104" y="528" type="line"/>
      <point x="111" y="600"/>
      <point x="132" y="703"/>
      <point x="161" y="773" type="curve"/>
      <point x="139" y="773" type="line"/>
      <point x="109" y="704"/>
      <point x="84" y="619"/>
      <point x="73" y="537" type="curve"/>
    </contour>
  </outline>
</glyph>
<glyph name="quotedblright.telu" format="2">
  <advance width="365"/>
  <unicode hex="201D"/>
  <outline>
    <contour>
      <point x="286" y="773" type="line"/>
      <point x="261" y="773" type="line"/>
      <point x="254" y="701"/>
      <point x="233" y="598"/>
      <point x="204" y="528" type="curve"/>
      <point x="226" y="528" type="line"/>
      <point x="256" y="597"/>
      <point x="281" y="682"/>
      <point x="292" y="764" type="curve"/>
    </contour>
    <contour>
      <point x="153" y="773" type="line"/>
      <point x="128" y="773" type="line"/>
      <point x="121" y="701"/>
      <point x="100" y="598"/>
      <point x="71" y="528" type="curve"/>
      <point x="93" y="528" type="line"/>
      <point x="123" y="597"/>
      <point x="148" y="682"/>
      <point x="159" y="764" type="curve"/>
    </contour>
  </outline>
</glyph>
<glyph name="ellipsis.telu" format="2">
  <advance width="556"/>
  <unicode hex="2026"/>
  <outline>
    <contour>
      <point x="77" y="19" type="curve" smooth="yes"/>
      <point x="77" y="2"/>
      <point x="82" y="-12"/>
      <point x="102" y="-12" type="curve" smooth="yes"/>
      <point x="126" y="-12"/>
      <point x="129" y="2"/>
      <point x="129" y="19" type="curve" smooth="yes"/>
      <point x="129" y="35"/>
      <point x="126" y="50"/>
      <point x="102" y="50" type="curve" smooth="yes"/>
      <point x="82" y="50"/>
      <point x="77" y="35"/>
    </contour>
    <contour>
      <point x="252" y="19" type="curve" smooth="yes"/>
      <point x="252" y="2"/>
      <point x="257" y="-12"/>
      <point x="277" y="-12" type="curve" smooth="yes"/>
      <point x="301" y="-12"/>
      <point x="304" y="2"/>
      <point x="304" y="19" type="curve" smooth="yes"/>
      <point x="304" y="35"/>
      <point x="301" y="50"/>
      <point x="277" y="50" type="curve" smooth="yes"/>
      <point x="257" y="50"/>
      <point x="252" y="35"/>
    </contour>
    <contour>
      <point x="427" y="19" type="curve" smooth="yes"/>
      <point x="427" y="2"/>
      <point x="432" y="-12"/>
      <point x="452" y="-12" type="curve" smooth="yes"/>
      <point x="476" y="-12"/>
      <point x="479" y="2"/>
      <point x="479" y="19" type="curve" smooth="yes"/>
      <point x="479" y="35"/>
      <point x="476" y="50"/>
      <point x="452" y="50" type="curve" smooth="yes"/>
      <point x="432" y="50"/>
      <point x="427" y="35"/>
    </contour>
  </outline>
</glyph>
<glyph name="uni20B9.telu" format="2">
  <advance width="399"/>
  <unicode hex="20B9"/>
  <outline>
    <contour>
      <point x="232" y="0" type="line"/>
      <point x="262" y="0" type="line"/>
      <point x="85" y="282" type="line"/>
      <point x="191" y="290"/>
      <point x="233" y="342"/>
      <point x="237" y="450" type="curve"/>
      <point x="359" y="450" type="line"/>
      <point x="359" y="475" type="line"/>
      <point x="237" y="475" type="line"/>
      <point x="234" y="555"/>
      <point x="212" y="600"/>
      <point x="158" y="624" type="curve"/>
      <point x="359" y="624" type="line"/>
      <point x="359" y="649" type="line"/>
      <point x="51" y="649" type="line"/>
      <point x="51" y="624" type="line"/>
      <point x="66" y="624" type="line" smooth="yes"/>
      <point x="124" y="624"/>
      <point x="160" y="610"/>
      <point x="183" y="579" type="curve" smooth="yes"/>
      <point x="202" y="554"/>
      <point x="211" y="512"/>
      <point x="211" y="475" type="curve"/>
      <point x="52" y="475" type="line"/>
      <point x="52" y="450" type="line"/>
      <point x="211" y="450" type="line"/>
      <point x="206" y="335"/>
      <point x="153" y="306"/>
      <point x="64" y="306" type="curve" smooth="yes"/>
      <point x="57" y="306" type="line"/>
      <point x="55" y="283" type="line"/>
    </contour>
  </outline>
</glyph>
<glyph name="uni25CC" format="2">
  <advance width="578"/>
  <unicode hex="25CC"/>
  <outline>
    <contour>
      <point x="319" y="359" type="curve"/>
      <point x="319" y="378"/>
      <point x="310" y="387"/>
      <point x="290" y="387" type="curve" smooth="yes"/>
      <point x="270" y="387"/>
      <point x="261" y="378"/>
      <point x="261" y="359" type="curve" smooth="yes"/>
      <point x="261" y="340"/>
      <point x="271" y="330"/>
      <point x="290" y="330" type="curve" smooth="yes"/>
      <point x="310" y="330"/>
      <point x="319" y="339"/>
    </contour>
    <contour>
      <point x="194" y="309" type="curve"/>
      <point x="194" y="328"/>
      <point x="185" y="338"/>
      <point x="166" y="338" type="curve" smooth="yes"/>
      <point x="147" y="338"/>
      <point x="137" y="328"/>
      <point x="137" y="309" type="curve" smooth="yes"/>
      <point x="137" y="290"/>
      <point x="147" y="280"/>
      <point x="166" y="280" type="curve" smooth="yes"/>
      <point x="185" y="280"/>
      <point x="194" y="290"/>
    </contour>
    <contour>
      <point x="443" y="309" type="curve"/>
      <point x="443" y="328"/>
      <point x="434" y="338"/>
      <point x="415" y="338" type="curve" smooth="yes"/>
      <point x="396" y="338"/>
      <point x="386" y="328"/>
      <point x="386" y="309" type="curve" smooth="yes"/>
      <point x="386" y="290"/>
      <point x="396" y="280"/>
      <point x="415" y="280" type="curve" smooth="yes"/>
      <point x="434" y="280"/>
      <point x="443" y="290"/>
    </contour>
    <contour>
      <point x="488" y="189" type="curve"/>
      <point x="488" y="208"/>
      <point x="479" y="218"/>
      <point x="459" y="218" type="curve" smooth="yes"/>
      <point x="440" y="218"/>
      <point x="430" y="208"/>
      <point x="430" y="189" type="curve" smooth="yes"/>
      <point x="430" y="170"/>
      <point x="440" y="161"/>
      <point x="459" y="161" type="curve" smooth="yes"/>
      <point x="479" y="161"/>
      <point x="488" y="170"/>
    </contour>
    <contour>
      <point x="149" y="189" type="curve"/>
      <point x="149" y="208"/>
      <point x="140" y="218"/>
      <point x="121" y="218" type="curve" smooth="yes"/>
      <point x="102" y="218"/>
      <point x="92" y="208"/>
      <point x="92" y="189" type="curve" smooth="yes"/>
      <point x="92" y="170"/>
      <point x="102" y="161"/>
      <point x="121" y="161" type="curve" smooth="yes"/>
      <point x="140" y="161"/>
      <point x="149" y="170"/>
    </contour>
    <contour>
      <point x="194" y="70" type="curve"/>
      <point x="194" y="89"/>
      <point x="185" y="99"/>
      <point x="166" y="99" type="curve" smooth="yes"/>
      <point x="147" y="99"/>
      <point x="137" y="89"/>
      <point x="137" y="70" type="curve" smooth="yes"/>
      <point x="137" y="51"/>
      <point x="147" y="41"/>
      <point x="166" y="41" type="curve" smooth="yes"/>
      <point x="185" y="41"/>
      <point x="194" y="51"/>
    </contour>
    <contour>
      <point x="443" y="70" type="curve"/>
      <point x="443" y="89"/>
      <point x="434" y="99"/>
      <point x="415" y="99" type="curve" smooth="yes"/>
      <point x="396" y="99"/>
      <point x="386" y="89"/>
      <point x="386" y="70" type="curve" smooth="yes"/>
      <point x="386" y="51"/>
      <point x="396" y="41"/>
      <point x="415" y="41" type="curve" smooth="yes"/>
      <point x="434" y="41"/>
      <point x="443" y="51"/>
    </contour>
    <contour>
      <point x="319" y="20" type="curve"/>
      <point x="319" y="40"/>
      <point x="310" y="49"/>
      <point x="290" y="49" type="curve" smooth="yes"/>
      <point x="271" y="49"/>
      <point x="261" y="39"/>
      <point x="261" y="20" type="curve" smooth="yes"/>
      <point x="261" y="1"/>
      <point x="271" y="-9"/>
      <point x="290" y="-9" type="curve" smooth="yes"/>
      <point x="310" y="-9"/>
      <point x="319" y="0"/>
    </contour>
  </outline>
</glyph>
<glyph name="aavowelsign1telu" format="2">
  <outline>
    <contour>
      <point x="587" y="282" type="curve" smooth="yes"/>
      <point x="635" y="282"/>
      <point x="675" y="311"/>
      <point x="675" y="385" type="curve" smooth="yes"/>
      <point x="675" y="424"/>
      <point x="662" y="457"/>
      <point x="637" y="479" type="curve" smooth="yes"/>
      <point x="614" y="499"/>
      <point x="583" y="512"/>
      <point x="524" y="512" type="curve" smooth="yes"/>
      <point x="240" y="512" type="line"/>
      <point x="240" y="487" type="line"/>
      <point x="532" y="487" type="line" smooth="yes"/>
      <point x="612" y="487"/>
      <point x="649" y="449"/>
      <point x="649" y="385" type="curve" smooth="yes"/>
      <point x="649" y="329"/>
      <point x="623" y="307"/>
      <point x="587" y="307" type="curve" smooth="yes"/>
      <point x="551" y="307"/>
      <point x="521" y="326"/>
      <point x="521" y="384" type="curve" smooth="yes"/>
      <point x="521" y="425"/>
      <point x="537" y="460"/>
      <point x="566" y="497" type="curve"/>
      <point x="542" y="504" type="line"/>
      <point x="512" y="467"/>
      <point x="495" y="429"/>
      <point x="495" y="383" type="curve" smooth="yes"/>
      <point x="495" y="319"/>
      <point x="531" y="282"/>
    </contour>
  </outline>
</glyph>
<glyph name="aavowelsign2telu" format="2">
  <advance width="717"/>
  <outline>
    <contour>
      <point x="612" y="263" type="curve" smooth="yes"/>
      <point x="660" y="263"/>
      <point x="700" y="292"/>
      <point x="700" y="366" type="curve" smooth="yes"/>
      <point x="700" y="405"/>
      <point x="687" y="438"/>
      <point x="662" y="460" type="curve" smooth="yes"/>
      <point x="639" y="480"/>
      <point x="608" y="493"/>
      <point x="549" y="493" type="curve" smooth="yes"/>
      <point x="82" y="493" type="line"/>
      <point x="82" y="468" type="line"/>
      <point x="557" y="468" type="line" smooth="yes"/>
      <point x="637" y="468"/>
      <point x="674" y="430"/>
      <point x="674" y="366" type="curve" smooth="yes"/>
      <point x="674" y="310"/>
      <point x="648" y="288"/>
      <point x="612" y="288" type="curve" smooth="yes"/>
      <point x="576" y="288"/>
      <point x="546" y="307"/>
      <point x="546" y="365" type="curve" smooth="yes"/>
      <point x="546" y="406"/>
      <point x="562" y="441"/>
      <point x="591" y="478" type="curve"/>
      <point x="567" y="485" type="line"/>
      <point x="537" y="448"/>
      <point x="520" y="410"/>
      <point x="520" y="364" type="curve" smooth="yes"/>
      <point x="520" y="300"/>
      <point x="556" y="263"/>
    </contour>
  </outline>
</glyph>
<glyph name="ailengthmarkUItelu" format="2">
  <outline>
    <contour>
      <point x="-397" y="-68" type="curve" smooth="yes"/>
      <point x="-447" y="-68"/>
      <point x="-480" y="-104"/>
      <point x="-480" y="-162" type="curve" smooth="yes"/>
      <point x="-480" y="-200"/>
      <point x="-468" y="-229"/>
      <point x="-446" y="-248" type="curve" smooth="yes"/>
      <point x="-420" y="-270"/>
      <point x="-379" y="-279"/>
      <point x="-328" y="-279" type="curve" smooth="yes"/>
      <point x="-96" y="-279" type="line"/>
      <point x="-96" y="-254" type="line"/>
      <point x="-340" y="-254" type="line" smooth="yes"/>
      <point x="-420" y="-254"/>
      <point x="-454" y="-224"/>
      <point x="-454" y="-162" type="curve" smooth="yes"/>
      <point x="-454" y="-121"/>
      <point x="-433" y="-93"/>
      <point x="-396" y="-93" type="curve" smooth="yes"/>
      <point x="-368" y="-93"/>
      <point x="-339" y="-112"/>
      <point x="-339" y="-164" type="curve" smooth="yes"/>
      <point x="-339" y="-197"/>
      <point x="-353" y="-230"/>
      <point x="-380" y="-262" type="curve"/>
      <point x="-354" y="-267" type="line"/>
      <point x="-331" y="-239"/>
      <point x="-313" y="-204"/>
      <point x="-313" y="-163" type="curve" smooth="yes"/>
      <point x="-313" y="-97"/>
      <point x="-353" y="-68"/>
    </contour>
  </outline>
</glyph>
<glyph name="ailengthmarknarrowUItelu" format="2">
  <outline>
    <contour>
      <point x="-260" y="-68" type="curve" smooth="yes"/>
      <point x="-310" y="-68"/>
      <point x="-343" y="-104"/>
      <point x="-343" y="-162" type="curve" smooth="yes"/>
      <point x="-343" y="-200"/>
      <point x="-331" y="-229"/>
      <point x="-309" y="-248" type="curve" smooth="yes"/>
      <point x="-283" y="-270"/>
      <point x="-242" y="-279"/>
      <point x="-191" y="-279" type="curve" smooth="yes"/>
      <point x="3" y="-279" type="line"/>
      <point x="3" y="-254" type="line"/>
      <point x="-203" y="-254" type="line" smooth="yes"/>
      <point x="-283" y="-254"/>
      <point x="-317" y="-224"/>
      <point x="-317" y="-162" type="curve" smooth="yes"/>
      <point x="-317" y="-121"/>
      <point x="-296" y="-93"/>
      <point x="-259" y="-93" type="curve" smooth="yes"/>
      <point x="-231" y="-93"/>
      <point x="-202" y="-112"/>
      <point x="-202" y="-164" type="curve" smooth="yes"/>
      <point x="-202" y="-197"/>
      <point x="-216" y="-230"/>
      <point x="-243" y="-262" type="curve"/>
      <point x="-217" y="-267" type="line"/>
      <point x="-194" y="-239"/>
      <point x="-176" y="-204"/>
      <point x="-176" y="-163" type="curve" smooth="yes"/>
      <point x="-176" y="-97"/>
      <point x="-216" y="-68"/>
    </contour>
  </outline>
</glyph>
<glyph name="ailengthmarknarrowtelu" format="2">
  <outline>
    <contour>
      <point x="-260" y="-83" type="curve" smooth="yes"/>
      <point x="-310" y="-83"/>
      <point x="-343" y="-119"/>
      <point x="-343" y="-177" type="curve" smooth="yes"/>
      <point x="-343" y="-215"/>
      <point x="-331" y="-244"/>
      <point x="-309" y="-263" type="curve" smooth="yes"/>
      <point x="-283" y="-285"/>
      <point x="-242" y="-294"/>
      <point x="-191" y="-294" type="curve" smooth="yes"/>
      <point x="3" y="-294" type="line"/>
      <point x="3" y="-269" type="line"/>
      <point x="-203" y="-269" type="line" smooth="yes"/>
      <point x="-283" y="-269"/>
      <point x="-317" y="-239"/>
      <point x="-317" y="-177" type="curve" smooth="yes"/>
      <point x="-317" y="-136"/>
      <point x="-296" y="-108"/>
      <point x="-259" y="-108" type="curve" smooth="yes"/>
      <point x="-231" y="-108"/>
      <point x="-202" y="-127"/>
      <point x="-202" y="-179" type="curve" smooth="yes"/>
      <point x="-202" y="-212"/>
      <point x="-216" y="-245"/>
      <point x="-243" y="-277" type="curve"/>
      <point x="-217" y="-282" type="line"/>
      <point x="-194" y="-254"/>
      <point x="-176" y="-219"/>
      <point x="-176" y="-178" type="curve" smooth="yes"/>
      <point x="-176" y="-112"/>
      <point x="-216" y="-83"/>
    </contour>
  </outline>
</glyph>
<glyph name="ailengthmarkwideUItelu" format="2">
  <outline>
    <contour>
      <point x="-361" y="-68" type="curve" smooth="yes"/>
      <point x="-411" y="-68"/>
      <point x="-444" y="-104"/>
      <point x="-444" y="-162" type="curve" smooth="yes"/>
      <point x="-444" y="-200"/>
      <point x="-432" y="-229"/>
      <point x="-410" y="-248" type="curve" smooth="yes"/>
      <point x="-384" y="-270"/>
      <point x="-343" y="-279"/>
      <point x="-292" y="-279" type="curve" smooth="yes"/>
      <point x="-30" y="-279" type="line"/>
      <point x="-30" y="-254" type="line"/>
      <point x="-304" y="-254" type="line" smooth="yes"/>
      <point x="-384" y="-254"/>
      <point x="-418" y="-224"/>
      <point x="-418" y="-162" type="curve" smooth="yes"/>
      <point x="-418" y="-121"/>
      <point x="-397" y="-93"/>
      <point x="-360" y="-93" type="curve" smooth="yes"/>
      <point x="-332" y="-93"/>
      <point x="-303" y="-112"/>
      <point x="-303" y="-164" type="curve" smooth="yes"/>
      <point x="-303" y="-197"/>
      <point x="-317" y="-230"/>
      <point x="-344" y="-262" type="curve"/>
      <point x="-318" y="-267" type="line"/>
      <point x="-295" y="-239"/>
      <point x="-277" y="-204"/>
      <point x="-277" y="-163" type="curve" smooth="yes"/>
      <point x="-277" y="-97"/>
      <point x="-317" y="-68"/>
    </contour>
  </outline>
</glyph>
